<svg xmlns="http://www.w3.org/2000/svg" width="1600" height="701" fill="none"><g opacity=".15"><path fill="#000" d="M-20.098 114.103c21.93 78.496 76.88 148.81 150.862 193.051 73.982 44.241 166.275 61.967 253.379 48.668 91.282-13.934 172.438-59.446 254.582-98.545 82.144-39.098 172.99-73.291 264.673-61.757 73.453 9.239 138.572 46.783 208.622 69.095 116.62 37.145 249.09 30.301 360.44-18.62C1583.8 197.074 1672.67 106.66 1714.26 0v621.262H-41l20.902-507.159Z" opacity=".5"/><path fill="#4EB4E8" d="M1928.06 71.408c-11.17 90.782-110.13 154.467-208.55 168.255-98.41 13.787-197.79-9.68-295.74-26.015-97.95-16.335-203.79-24.644-292.8 16.282-77.37 35.575-138.335 106.65-224.424 114.754-124.685 11.739-217.878-113.604-342.029-129.398-74.075-9.422-146.744 21.871-211.064 56.879-64.321 35.007-127.968 75.471-201.619 87.373-73.65 11.902-161.65-15.216-187.304-79.679v418.793H1978l-49.94-627.25v.006Z" opacity=".4" style="mix-blend-mode:multiply"/><path fill="#0086D2" d="M31.553 427.823c24.823-68.581 83.427-126.189 156.282-153.622 72.849-27.433 158.658-24.203 228.818 8.609 70.432 32.942 122.204 92.058 189.436 130.211 95.441 54.158 220.864 60.797 322.458 17.065 56.635-24.376 107.043-63.469 168.563-73.916 95.92-16.293 186.25 40.532 279.98 65.313 174.48 46.132 378.41-33.311 463.44-180.54v406.109H-7.776l39.329-219.235v.006Z" style="mix-blend-mode:multiply"/><path fill="#0061A7" d="M1935.39 373.399c-69.67 60.465-172.45 79.41-267.97 71.616-95.52-7.795-186.56-39.125-277.28-67.661-90.71-28.531-184.54-54.825-280.38-51.92-202.36 6.124-384.523 140.806-586.641 129.723-87.407-4.795-170.277-36.866-256.818-49.104-86.542-12.238-187.374 1.308-238.786 66.348V701H1942.22l-6.82-327.601h-.01Z" style="mix-blend-mode:multiply"/></g></svg>