<svg xmlns="http://www.w3.org/2000/svg" width="63" height="50" fill="none"><g clip-path="url(#a)"><path fill="#2FA124" d="M1.473 30.718c3.448 2.646 4.768 3.006 7.655 6.987 4.716 6.5 4.03 9.195 5.429 10.433 1.399 1.239 7.817 2.24 12.192-3.42C31.125 39.06 37.952 23.44 46.702 14.07 55.452 4.7 59.54 1.985 62.164.572 64.79-.842 56.47-.545 40.111 12.593c-11.355 9.136-19.43 21.75-19.43 21.75s-2.273-6.88-7.335-11.491c-5.061-4.611-17.6 3.493-11.873 7.866Z"/></g><defs><clipPath id="a"><path fill="#fff" d="M0 0h62.64v49.096H0z"/></clipPath></defs></svg>