<svg xmlns="http://www.w3.org/2000/svg" width="68" height="74" fill="none"><path fill="#CC0007" d="M62.284 38.519c0 2.508-3.605 4.504-4.218 6.817-.634 2.393 1.479 5.936.276 8.032-1.22 2.125-5.33 2.043-7.041 3.768-1.711 1.725-1.632 5.87-3.739 7.1-2.079 1.211-5.593-.92-7.966-.28-2.294.619-4.275 4.252-6.763 4.252-2.487 0-4.468-3.633-6.762-4.251-2.374-.64-5.888 1.49-7.967.278-2.109-1.23-2.028-5.374-3.738-7.099-1.711-1.725-5.823-1.644-7.042-3.769-1.203-2.095.91-5.638.276-8.03-.613-2.314-4.217-4.31-4.217-6.818S6.987 34.014 7.6 31.7c.635-2.393-1.479-5.935-.276-8.031 1.22-2.126 5.33-2.044 7.042-3.769 1.71-1.725 1.63-5.87 3.738-7.099 2.079-1.212 5.593.918 7.967.279 2.294-.618 4.274-4.252 6.762-4.252 2.488 0 4.468 3.634 6.763 4.252 2.373.64 5.887-1.491 7.966-.279 2.109 1.23 2.028 5.374 3.739 7.1 1.71 1.724 5.822 1.644 7.041 3.768 1.203 2.096-.91 5.638-.276 8.031.613 2.313 4.218 4.31 4.218 6.818Z"/><path stroke="#CC0007" stroke-miterlimit="10" stroke-width="1.2" d="M62.284 38.519c0 2.508-3.605 4.504-4.218 6.817-.634 2.393 1.479 5.936.276 8.032-1.22 2.125-5.33 2.043-7.041 3.768-1.711 1.725-1.632 5.87-3.739 7.1-2.079 1.211-5.593-.92-7.966-.28-2.294.619-4.275 4.252-6.763 4.252-2.487 0-4.468-3.633-6.762-4.251-2.374-.64-5.888 1.49-7.967.278-2.109-1.23-2.028-5.374-3.738-7.099-1.711-1.725-5.823-1.644-7.042-3.769-1.203-2.095.91-5.638.276-8.03-.613-2.314-4.217-4.31-4.217-6.818S6.987 34.014 7.6 31.7c.635-2.393-1.479-5.935-.276-8.031 1.22-2.126 5.33-2.044 7.042-3.769 1.71-1.725 1.63-5.87 3.738-7.099 2.079-1.212 5.593.918 7.967.279 2.294-.618 4.274-4.252 6.762-4.252 2.488 0 4.468 3.634 6.763 4.252 2.373.64 5.887-1.491 7.966-.279 2.109 1.23 2.028 5.374 3.739 7.1 1.71 1.724 5.822 1.644 7.041 3.768 1.203 2.096-.91 5.638-.276 8.031.613 2.313 4.218 4.31 4.218 6.818Z"/><g opacity=".5"><mask id="b" width="60" height="61" x="3" y="8" maskUnits="userSpaceOnUse" style="mask-type:luminance"><mask id="a" width="60" height="61" x="3" y="8" maskUnits="userSpaceOnUse" style="mask-type:luminance"><path fill="#fff" d="M62.284 38.519c0 2.508-3.605 4.504-4.218 6.817-.634 2.393 1.479 5.936.276 8.032-1.22 2.125-5.33 2.043-7.041 3.768-1.711 1.725-1.632 5.87-3.739 7.1-2.079 1.211-5.593-.92-7.966-.28-2.294.619-4.275 4.252-6.763 4.252-2.487 0-4.468-3.633-6.762-4.251-2.374-.64-5.888 1.49-7.967.278-2.109-1.23-2.028-5.374-3.738-7.099-1.711-1.725-5.823-1.644-7.042-3.769-1.203-2.095.91-5.638.276-8.03-.613-2.314-4.217-4.31-4.217-6.818S6.987 34.014 7.6 31.7c.635-2.393-1.479-5.935-.276-8.031 1.22-2.126 5.33-2.044 7.042-3.769 1.71-1.725 1.63-5.87 3.738-7.099 2.079-1.212 5.593.918 7.967.279 2.294-.618 4.274-4.252 6.762-4.252 2.488 0 4.468 3.634 6.763 4.252 2.373.64 5.887-1.491 7.966-.279 2.109 1.23 2.028 5.374 3.739 7.1 1.71 1.724 5.822 1.644 7.041 3.768 1.203 2.096-.91 5.638-.276 8.031.613 2.313 4.218 4.31 4.218 6.818Z"/></mask><g mask="url(#a)"><path fill="#fff" d="M62.284 38.519c0 2.508-3.605 4.504-4.218 6.817-.634 2.393 1.479 5.936.276 8.032-1.22 2.125-5.33 2.043-7.041 3.768-1.711 1.725-1.632 5.87-3.739 7.1-2.079 1.211-5.593-.92-7.966-.28-2.294.619-4.275 4.252-6.763 4.252-2.487 0-4.468-3.633-6.762-4.251-2.374-.64-5.888 1.49-7.967.278-2.109-1.23-2.028-5.374-3.738-7.099-1.711-1.725-5.823-1.644-7.042-3.769-1.203-2.095.91-5.638.276-8.03-.613-2.314-4.217-4.31-4.217-6.818S6.987 34.014 7.6 31.7c.635-2.393-1.479-5.935-.276-8.031 1.22-2.126 5.33-2.044 7.042-3.769 1.71-1.725 1.63-5.87 3.738-7.099 2.079-1.212 5.593.918 7.967.279 2.294-.618 4.274-4.252 6.762-4.252 2.488 0 4.468 3.634 6.763 4.252 2.373.64 5.887-1.491 7.966-.279 2.109 1.23 2.028 5.374 3.739 7.1 1.71 1.724 5.822 1.644 7.041 3.768 1.203 2.096-.91 5.638-.276 8.031.613 2.313 4.218 4.31 4.218 6.818Z"/></g></mask><g mask="url(#b)"><path fill="url(#c)" d="M33.808.002 1.67 41.188l4.394 3.485L38.203 3.487 33.808.002Z"/><path fill="url(#d)" d="M39.272 4.334 7.133 45.52l2.257 1.79L41.528 6.123l-2.256-1.79Z"/><path fill="url(#e)" d="M58.59 9.752 26.453 50.938l4.395 3.485 32.138-41.186-4.394-3.485Z"/><path fill="url(#f)" d="M64.054 14.085 31.915 55.272l2.257 1.79 32.139-41.188-2.257-1.79Z"/></g></g><mask id="h" width="60" height="61" x="3" y="8" maskUnits="userSpaceOnUse" style="mask-type:luminance"><mask id="g" width="60" height="61" x="3" y="8" maskUnits="userSpaceOnUse" style="mask-type:luminance"><path fill="#fff" d="M62.544 38.519c0 2.508-3.604 4.504-4.217 6.817-.635 2.393 1.478 5.936.276 8.032-1.22 2.125-5.331 2.043-7.042 3.768-1.71 1.725-1.631 5.87-3.739 7.1-2.078 1.211-5.592-.92-7.966-.28-2.294.619-4.275 4.252-6.763 4.252-2.487 0-4.468-3.633-6.762-4.251-2.374-.64-5.888 1.49-7.967.278-2.108-1.23-2.027-5.374-3.738-7.099-1.711-1.725-5.822-1.644-7.042-3.769-1.202-2.095.91-5.638.276-8.03-.613-2.314-4.217-4.31-4.217-6.818S7.247 34.014 7.86 31.7c.635-2.393-1.478-5.935-.276-8.031 1.22-2.126 5.33-2.044 7.042-3.769 1.71-1.725 1.631-5.87 3.738-7.099 2.08-1.212 5.593.918 7.967.279 2.294-.618 4.275-4.252 6.762-4.252 2.488 0 4.469 3.634 6.763 4.252 2.374.64 5.888-1.491 7.966-.279 2.11 1.23 2.028 5.374 3.739 7.1 1.71 1.724 5.822 1.644 7.042 3.768 1.202 2.096-.911 5.638-.276 8.031.613 2.313 4.217 4.31 4.217 6.818Z"/></mask><g mask="url(#g)"><path fill="#fff" d="M62.544 38.519c0 2.508-3.604 4.504-4.217 6.817-.635 2.393 1.478 5.936.276 8.032-1.22 2.125-5.331 2.043-7.042 3.768-1.71 1.725-1.631 5.87-3.739 7.1-2.078 1.211-5.592-.92-7.966-.28-2.294.619-4.275 4.252-6.763 4.252-2.487 0-4.468-3.633-6.762-4.251-2.374-.64-5.888 1.49-7.967.278-2.108-1.23-2.027-5.374-3.738-7.099-1.711-1.725-5.822-1.644-7.042-3.769-1.202-2.095.91-5.638.276-8.03-.613-2.314-4.217-4.31-4.217-6.818S7.247 34.014 7.86 31.7c.635-2.393-1.478-5.935-.276-8.031 1.22-2.126 5.33-2.044 7.042-3.769 1.71-1.725 1.631-5.87 3.738-7.099 2.08-1.212 5.593.918 7.967.279 2.294-.618 4.275-4.252 6.762-4.252 2.488 0 4.469 3.634 6.763 4.252 2.374.64 5.888-1.491 7.966-.279 2.11 1.23 2.028 5.374 3.739 7.1 1.71 1.724 5.822 1.644 7.042 3.768 1.202 2.096-.911 5.638-.276 8.031.613 2.313 4.217 4.31 4.217 6.818Z"/></g></mask><g mask="url(#h)"><path fill="url(#i)" d="M34.068.002 1.93 41.188l4.394 3.485L38.463 3.487 34.068.002Z" opacity=".1"/><path fill="url(#j)" d="M39.532 4.334 7.394 45.52l2.256 1.79L41.79 6.123l-2.257-1.79Z" opacity=".1"/><path fill="url(#k)" d="M58.851 9.752 26.713 50.938l4.394 3.485 32.139-41.186-4.395-3.485Z" opacity=".1"/><path fill="url(#l)" d="M64.314 14.085 32.176 55.272l2.256 1.79 32.139-41.188-2.257-1.79Z" opacity=".1"/></g><path stroke="#fff" stroke-miterlimit="10" stroke-width="1.71" d="M60.143 38.52c0 2.325-3.343 4.177-3.912 6.322-.588 2.22 1.371 5.504.256 7.448-1.13 1.971-4.943 1.896-6.53 3.495-1.588 1.599-1.513 5.443-3.467 6.583-1.928 1.124-5.186-.85-7.388-.258-2.128.574-3.965 3.944-6.271 3.944-2.307 0-4.145-3.37-6.272-3.944-2.202-.593-5.46 1.382-7.388.258-1.956-1.14-1.88-4.982-3.467-6.583-1.586-1.6-5.4-1.525-6.53-3.495-1.115-1.944.844-5.228.256-7.448-.57-2.145-3.912-3.997-3.912-6.322 0-2.326 3.342-4.178 3.912-6.323.588-2.22-1.371-5.504-.256-7.448 1.13-1.971 4.942-1.896 6.53-3.495 1.588-1.599 1.513-5.443 3.467-6.583 1.928-1.124 5.186.85 7.388.258 2.127-.574 3.965-3.943 6.271-3.943 2.307 0 4.144 3.369 6.272 3.943 2.2.593 5.46-1.382 7.388-.258 1.956 1.14 1.88 4.983 3.467 6.583 1.586 1.6 5.4 1.525 6.53 3.495 1.115 1.944-.844 5.228-.256 7.448.57 2.145 3.912 3.997 3.912 6.323Z" opacity=".3"/><path fill="#fff" d="M20.556 39.566v-7.05h3.4c.76 0 1.347.167 1.76.5.42.327.63.767.63 1.32 0 .367-.093.687-.28.96-.18.274-.433.477-.76.61.394.12.697.324.91.61.214.28.32.63.32 1.05 0 .62-.223 1.11-.67 1.47-.44.354-1.043.53-1.81.53h-3.5Zm1.76-4.25h1.31c.334 0 .577-.06.73-.18.16-.12.24-.303.24-.55 0-.246-.08-.426-.24-.54-.153-.12-.396-.18-.73-.18h-1.31v1.45Zm0 2.9h1.49c.34 0 .587-.063.74-.19.16-.133.24-.33.24-.59 0-.26-.08-.453-.24-.58-.153-.126-.4-.19-.74-.19h-1.49v1.55ZM27.578 39.566v-7.05h4.98v1.42h-3.22v1.34h2.99v1.42h-2.99v1.45h3.22v1.42h-4.98ZM36.243 39.676a6.225 6.225 0 0 1-1.59-.2c-.507-.14-.923-.323-1.25-.55l.51-1.43c.307.207.667.37 1.08.49.413.12.83.18 1.25.18.44 0 .747-.056.92-.17.18-.12.27-.266.27-.44a.438.438 0 0 0-.19-.37c-.12-.093-.337-.173-.65-.24l-1.17-.25c-1.267-.273-1.9-.936-1.9-1.99 0-.46.123-.863.37-1.21.253-.346.603-.613 1.05-.8.447-.193.967-.29 1.56-.29.487 0 .947.07 1.38.21.44.134.797.317 1.07.55l-.51 1.34a2.848 2.848 0 0 0-.88-.43 3.524 3.524 0 0 0-1.08-.16c-.373 0-.66.067-.86.2-.2.127-.3.294-.3.5 0 .147.06.267.18.36.12.094.333.174.64.24l1.16.25c1.287.274 1.93.92 1.93 1.94 0 .46-.123.86-.37 1.2-.247.34-.593.604-1.04.79-.447.187-.973.28-1.58.28ZM41.65 39.566v-5.55h-2.24v-1.5h6.32v1.5h-2.24v5.55h-1.84ZM19.049 48.566l-3.21-7.05h1.96l2.02 4.69 2.02-4.69h1.89l-3.22 7.05h-1.46ZM22.617 48.566l3.3-7.05h1.45l3.3 7.05h-1.84l-.61-1.43h-3.15l-.61 1.43h-1.84Zm4.01-5.13-.96 2.29h1.94l-.96-2.29h-.02ZM31.094 48.566v-7.05h1.84v5.52h3.14v1.53h-4.98ZM39.77 48.676c-1.026 0-1.813-.26-2.36-.78-.54-.52-.81-1.296-.81-2.33v-4.05h1.84v4.07c0 .514.114.9.34 1.16.227.26.557.39.99.39.427 0 .754-.13.98-.39.227-.26.34-.646.34-1.16v-4.07h1.81v4.05c0 1.034-.266 1.81-.8 2.33-.526.52-1.303.78-2.33.78ZM44.13 48.566v-7.05h4.98v1.42h-3.22v1.34h2.99v1.42h-2.99v1.45h3.22v1.42h-4.98Z"/><path fill="#FFF00C" d="M32.5 21.678a.3.3 0 0 1 .571 0l.465 1.443a.3.3 0 0 0 .286.207h1.51a.3.3 0 0 1 .178.543l-1.226.896a.3.3 0 0 0-.108.335l.467 1.448a.3.3 0 0 1-.463.334l-1.217-.89a.3.3 0 0 0-.355 0l-1.217.89a.3.3 0 0 1-.462-.334l.467-1.448a.3.3 0 0 0-.108-.335l-1.226-.896a.3.3 0 0 1 .177-.543h1.51a.3.3 0 0 0 .286-.207l.465-1.443ZM25.214 25.348a.3.3 0 0 1 .571 0l.193.597a.3.3 0 0 0 .286.208h.628a.3.3 0 0 1 .177.542l-.512.375a.3.3 0 0 0-.108.334l.194.604a.3.3 0 0 1-.462.334l-.504-.369a.3.3 0 0 0-.354 0l-.504.369a.3.3 0 0 1-.462-.334l.194-.604a.3.3 0 0 0-.108-.334l-.512-.375a.3.3 0 0 1 .177-.542h.628a.3.3 0 0 0 .286-.208l.192-.597ZM39.786 25.348a.3.3 0 0 1 .57 0l.194.597a.3.3 0 0 0 .285.208h.628a.3.3 0 0 1 .177.542l-.511.375a.3.3 0 0 0-.109.334l.195.604a.3.3 0 0 1-.463.334l-.503-.369a.3.3 0 0 0-.355 0l-.503.369a.3.3 0 0 1-.463-.334l.195-.604a.3.3 0 0 0-.109-.334l-.512-.375a.3.3 0 0 1 .178-.542h.628a.3.3 0 0 0 .285-.208l.193-.597Z"/><defs><linearGradient id="c" x1="3.864" x2="36.325" y1="42.931" y2="1.998" gradientUnits="userSpaceOnUse"><stop stop-color="#fff" stop-opacity="0"/><stop offset=".1" stop-color="#fff" stop-opacity=".02"/><stop offset=".23" stop-color="#fff" stop-opacity=".08"/><stop offset=".36" stop-color="#fff" stop-opacity=".17"/><stop offset=".5" stop-color="#fff" stop-opacity=".31"/><stop offset=".65" stop-color="#fff" stop-opacity=".48"/><stop offset=".81" stop-color="#fff" stop-opacity=".69"/><stop offset=".96" stop-color="#fff" stop-opacity=".94"/><stop offset="1" stop-color="#fff"/></linearGradient><linearGradient id="d" x1="8.26" x2="40.72" y1="46.416" y2="5.484" gradientUnits="userSpaceOnUse"><stop stop-color="#fff" stop-opacity="0"/><stop offset=".1" stop-color="#fff" stop-opacity=".02"/><stop offset=".23" stop-color="#fff" stop-opacity=".08"/><stop offset=".36" stop-color="#fff" stop-opacity=".17"/><stop offset=".5" stop-color="#fff" stop-opacity=".31"/><stop offset=".65" stop-color="#fff" stop-opacity=".48"/><stop offset=".81" stop-color="#fff" stop-opacity=".69"/><stop offset=".96" stop-color="#fff" stop-opacity=".94"/><stop offset="1" stop-color="#fff"/></linearGradient><linearGradient id="e" x1="28.647" x2="61.108" y1="52.683" y2="11.75" gradientUnits="userSpaceOnUse"><stop stop-color="#fff" stop-opacity="0"/><stop offset=".1" stop-color="#fff" stop-opacity=".02"/><stop offset=".23" stop-color="#fff" stop-opacity=".08"/><stop offset=".36" stop-color="#fff" stop-opacity=".17"/><stop offset=".5" stop-color="#fff" stop-opacity=".31"/><stop offset=".65" stop-color="#fff" stop-opacity=".48"/><stop offset=".81" stop-color="#fff" stop-opacity=".69"/><stop offset=".96" stop-color="#fff" stop-opacity=".94"/><stop offset="1" stop-color="#fff"/></linearGradient><linearGradient id="f" x1="33.042" x2="65.503" y1="56.167" y2="15.234" gradientUnits="userSpaceOnUse"><stop stop-color="#fff" stop-opacity="0"/><stop offset=".1" stop-color="#fff" stop-opacity=".02"/><stop offset=".23" stop-color="#fff" stop-opacity=".08"/><stop offset=".36" stop-color="#fff" stop-opacity=".17"/><stop offset=".5" stop-color="#fff" stop-opacity=".31"/><stop offset=".65" stop-color="#fff" stop-opacity=".48"/><stop offset=".81" stop-color="#fff" stop-opacity=".69"/><stop offset=".96" stop-color="#fff" stop-opacity=".94"/><stop offset="1" stop-color="#fff"/></linearGradient><linearGradient id="i" x1="4.124" x2="36.585" y1="42.931" y2="1.998" gradientUnits="userSpaceOnUse"><stop stop-color="#fff" stop-opacity="0"/><stop offset=".1" stop-color="#fff" stop-opacity=".02"/><stop offset=".23" stop-color="#fff" stop-opacity=".08"/><stop offset=".36" stop-color="#fff" stop-opacity=".17"/><stop offset=".5" stop-color="#fff" stop-opacity=".31"/><stop offset=".65" stop-color="#fff" stop-opacity=".48"/><stop offset=".81" stop-color="#fff" stop-opacity=".69"/><stop offset=".96" stop-color="#fff" stop-opacity=".94"/><stop offset="1" stop-color="#fff"/></linearGradient><linearGradient id="j" x1="8.52" x2="40.98" y1="46.416" y2="5.484" gradientUnits="userSpaceOnUse"><stop stop-color="#fff" stop-opacity="0"/><stop offset=".1" stop-color="#fff" stop-opacity=".02"/><stop offset=".23" stop-color="#fff" stop-opacity=".08"/><stop offset=".36" stop-color="#fff" stop-opacity=".17"/><stop offset=".5" stop-color="#fff" stop-opacity=".31"/><stop offset=".65" stop-color="#fff" stop-opacity=".48"/><stop offset=".81" stop-color="#fff" stop-opacity=".69"/><stop offset=".96" stop-color="#fff" stop-opacity=".94"/><stop offset="1" stop-color="#fff"/></linearGradient><linearGradient id="k" x1="28.907" x2="61.368" y1="52.683" y2="11.75" gradientUnits="userSpaceOnUse"><stop stop-color="#fff" stop-opacity="0"/><stop offset=".1" stop-color="#fff" stop-opacity=".02"/><stop offset=".23" stop-color="#fff" stop-opacity=".08"/><stop offset=".36" stop-color="#fff" stop-opacity=".17"/><stop offset=".5" stop-color="#fff" stop-opacity=".31"/><stop offset=".65" stop-color="#fff" stop-opacity=".48"/><stop offset=".81" stop-color="#fff" stop-opacity=".69"/><stop offset=".96" stop-color="#fff" stop-opacity=".94"/><stop offset="1" stop-color="#fff"/></linearGradient><linearGradient id="l" x1="33.303" x2="65.763" y1="56.167" y2="15.234" gradientUnits="userSpaceOnUse"><stop stop-color="#fff" stop-opacity="0"/><stop offset=".1" stop-color="#fff" stop-opacity=".02"/><stop offset=".23" stop-color="#fff" stop-opacity=".08"/><stop offset=".36" stop-color="#fff" stop-opacity=".17"/><stop offset=".5" stop-color="#fff" stop-opacity=".31"/><stop offset=".65" stop-color="#fff" stop-opacity=".48"/><stop offset=".81" stop-color="#fff" stop-opacity=".69"/><stop offset=".96" stop-color="#fff" stop-opacity=".94"/><stop offset="1" stop-color="#fff"/></linearGradient></defs></svg>