<svg xmlns="http://www.w3.org/2000/svg" width="17" height="14" fill="none"><path fill="#fff" d="M5.246 10.78c-.694-.035-.681-1 0-1.033 1.929.007 7.016.002 9.006.003.544 0 1.01-.366 1.132-.89l1.13-4.834a.915.915 0 0 0-.18-.786.936.936 0 0 0-.732-.352c-.801 0-7.597-.03-11.077-.044L3.973.82A1.125 1.125 0 0 0 2.887 0H1.12a.463.463 0 0 0-.466.46c0 .254.209.46.466.46h1.767a.195.195 0 0 1 .187.14l2.12 7.768c-.373.014-.72.163-.984.427a1.417 1.417 0 0 0-.418 1.033A1.452 1.452 0 0 0 5.246 11.7h.679a1.585 1.585 0 0 0-.158.69c0 .888.731 1.61 1.63 1.61.899 0 1.63-.722 1.63-1.61 0-.239-.054-.475-.158-.69h2.94a1.585 1.585 0 0 0-.157.69c0 .887.73 1.61 1.63 1.61.898 0 1.629-.723 1.629-1.61 0-.248-.058-.493-.17-.714a.46.46 0 0 0 .318-.436.463.463 0 0 0-.466-.46H5.246Zm2.85 1.61c0 .38-.314.69-.7.69a.695.695 0 0 1-.698-.69c0-.38.313-.69.698-.69h.002c.384 0 .697.31.697.69Zm5.185.69a.695.695 0 0 1-.698-.69c0-.377.307-.684.687-.69h.023c.38.006.687.313.687.69 0 .38-.314.69-.699.69Zm2.324-9.269c.003.003.002.005.002.008l-.476 2.037h-1.613l.275-2.056 1.805.008c.003 0 .004 0 .007.003Zm-4.8 5.02V6.775h1.651l-.274 2.054h-1.377Zm-2.31 0L8.22 6.775h1.655V8.83H8.496Zm-2.143 0h-.001a.252.252 0 0 1-.243-.184l-.51-1.871H7.28l.276 2.054H6.352Zm1.743-2.975-.28-2.08 2.058.009v2.07H8.095Zm2.71 0V3.789l2.05.008-.276 2.059h-1.774Zm-3.93-2.083.28 2.083H5.348l-.57-2.092 2.098.009Zm7.377 5.057H13.12l.274-2.054h1.52l-.438 1.877a.227.227 0 0 1-.225.177Z"/></svg>