<svg xmlns="http://www.w3.org/2000/svg" width="1600" height="691" fill="none"><path fill="#0053A4" d="M122.494 244.162C30.7 196.633-33.438 280.469-54.033 328.328v346.565H713.86c-16.475-45.548-87.282-61.886-120.627-64.362-54.919 1.651-168.289-11.882-182.411-79.215-14.122-67.332-76.495-77.564-105.916-74.264-229.486-34.656-67.669-153.479-182.412-212.89Z" opacity=".5"/><path fill="#002347" d="M253.966 451.602C170.403 300.805 40.085 343.53-14.629 383.743v650.937H1203c17.91-399.609-235.766-402.122-447.658-394.582-211.891 7.54-396.923 0-501.376-188.496Z" opacity=".5"/><path fill="#003F7D" fill-opacity=".7" d="M3-8.367h1600v770.023H3z"/></svg>