<svg xmlns="http://www.w3.org/2000/svg" width="1600" height="691" fill="none"><mask id="a" width="1603" height="691" x="0" y="0" maskUnits="userSpaceOnUse" style="mask-type:alpha"><path fill="#FF881A" d="M0 .909h1603V691H0z"/></mask><g mask="url(#a)"><ellipse cx="1392.33" cy="329.14" fill="#004991" rx="78.305" ry="65.919"/><path fill="#073462" d="M1424.02 502.82c26.25-126.55 130.26-168.231 178.98-173.253v733.183H711.078c-2.387-24.1 12.926-53.56 20.881-65.281 65.626-100.436 202.845 20.091 298.301-42.685 95.46-62.773 86.51-120.524 98.44-148.144 11.93-27.62 71.59-130.567 107.39-140.611 35.79-10.044 155.12-5.022 187.93-163.209Z" opacity=".7"/><path fill="#002347" d="M1214.23 652.338c-69.37 9.366-75.15 52.68-69.37 73.167v24.877h383.27c0-57.07-31.22-136.09-128.33-98.044-97.12 38.047-98.86-11.706-185.57 0Z"/></g></svg>