<svg xmlns="http://www.w3.org/2000/svg" width="80" height="80" fill="none"><g fill="#fff" clip-path="url(#a)"><path d="M73.067 36.902 66.8 27.5H53.384l.875-5.625h-5.724c-.59-5.957-5.629-10.625-11.738-10.625-6.11 0-11.148 4.668-11.738 10.625H10.547v2.344h14.512c.59 5.956 5.629 10.625 11.738 10.625 6.11 0 11.148-4.669 11.738-10.625h2.988L47.199 52.03H25.308c-4.294-6.67-13.988-6.655-18.272 0H0v7.032h5.377c.586 5.438 5.203 9.687 10.795 9.687s10.209-4.249 10.795-9.688h22.316c.586 5.44 5.203 9.688 10.795 9.688s10.209-4.249 10.795-9.688H80V44.453c0-3.961-3.055-7.222-6.933-7.55ZM36.797 32.5c-5.213 0-9.453-4.24-9.453-9.453 0-5.213 4.24-9.453 9.453-9.453 5.212 0 9.453 4.24 9.453 9.453 0 5.212-4.24 9.453-9.453 9.453ZM5.377 56.719H2.344v-2.344H5.9a10.768 10.768 0 0 0-.523 2.344Zm10.795 9.687c-4.696 0-8.516-3.82-8.516-8.515 0-4.696 3.82-8.516 8.516-8.516 4.695 0 8.515 3.82 8.515 8.516 0 4.695-3.82 8.515-8.515 8.515ZM58.57 29.844h6.974l4.687 7.031H57.4l1.172-7.031Zm-9.288 26.875H26.967a10.766 10.766 0 0 0-.523-2.344h23.362a10.766 10.766 0 0 0-.523 2.344Zm10.795 9.687c-4.695 0-8.516-3.82-8.516-8.515 0-4.696 3.82-8.516 8.516-8.516s8.516 3.82 8.516 8.516c0 4.695-3.82 8.515-8.516 8.515Zm17.578-9.687h-6.783a10.772 10.772 0 0 0-.523-2.344h7.306v2.344Zm0-4.688h-8.442c-4.294-6.67-13.988-6.655-18.272 0h-1.37l3.448-22.187h3.174l-1.562 9.375h17.79a5.243 5.243 0 0 1 5.1 4.062H73.36a3.52 3.52 0 0 0-3.515 3.516 3.52 3.52 0 0 0 3.515 3.516h4.297v1.718Zm0-4.062H73.36c-1.55 0-1.549-2.344 0-2.344h4.297v2.344ZM2.422 27.813h2.344v2.343H2.422v-2.343Z"/><path d="M7.11 27.813h10.468v2.343H7.11v-2.343ZM7.266 33.516h2.343v2.343H7.266v-2.343ZM11.953 33.516h13.438v2.343H11.953v-2.343ZM4.922 39.219h13.437v2.343H4.922V39.22ZM.234 39.219h2.344v2.343H.234V39.22ZM16.172 54.375a3.52 3.52 0 0 0-3.516 3.516 3.52 3.52 0 0 0 3.516 3.515 3.52 3.52 0 0 0 3.515-3.515 3.52 3.52 0 0 0-3.515-3.516ZM15 57.891c0-1.551 2.344-1.55 2.344 0 0 .646-2.344 1.549-2.344 0ZM60.078 54.375a3.52 3.52 0 0 0-3.516 3.516 3.52 3.52 0 0 0 3.516 3.515 3.52 3.52 0 0 0 3.516-3.515 3.52 3.52 0 0 0-3.516-3.516Zm0 4.688c-1.55 0-1.55-2.344 0-2.344 1.551 0 1.55 2.343 0 2.343ZM38.125 16.328h-2.344v8.516h5.547V22.5h-3.203v-6.172Z"/></g><defs><clipPath id="a"><path fill="#fff" d="M0 0h80v80H0z"/></clipPath></defs></svg>