<svg xmlns="http://www.w3.org/2000/svg" width="70" height="75" fill="none"><path fill="#183766" d="M64.116 39.041c0 2.542-3.71 4.566-4.341 6.91-.654 2.425 1.522 6.015.284 8.14-1.256 2.154-5.488 2.071-7.25 3.82-1.76 1.747-1.678 5.948-3.847 7.194-2.14 1.229-5.758-.93-8.201-.282-2.362.626-4.401 4.309-6.962 4.309-2.56 0-4.6-3.683-6.961-4.31-2.444-.648-6.061 1.512-8.201.283-2.17-1.246-2.087-5.447-3.849-7.195-1.76-1.748-5.993-1.667-7.248-3.82-1.238-2.124.937-5.714.284-8.14-.631-2.344-4.342-4.367-4.342-6.909s3.71-4.566 4.342-6.91c.653-2.425-1.522-6.015-.284-8.14 1.255-2.154 5.487-2.071 7.248-3.82 1.762-1.747 1.68-5.948 3.849-7.194 2.14-1.229 5.757.93 8.2.282C29.2 12.633 31.239 8.95 33.8 8.95c2.56 0 4.6 3.683 6.962 4.31 2.443.648 6.06-1.511 8.2-.283 2.171 1.246 2.088 5.447 3.849 7.195 1.761 1.748 5.993 1.667 7.249 3.82 1.238 2.124-.938 5.714-.284 8.14.63 2.343 4.34 4.367 4.34 6.909Z"/><path stroke="#183766" stroke-miterlimit="10" stroke-width="1.2" d="M64.116 39.041c0 2.542-3.71 4.566-4.341 6.91-.654 2.425 1.522 6.015.284 8.14-1.256 2.154-5.488 2.071-7.25 3.82-1.76 1.747-1.678 5.948-3.847 7.194-2.14 1.229-5.758-.93-8.201-.282-2.362.626-4.401 4.309-6.962 4.309-2.56 0-4.6-3.683-6.961-4.31-2.444-.648-6.061 1.512-8.201.283-2.17-1.246-2.087-5.447-3.849-7.195-1.76-1.748-5.993-1.667-7.248-3.82-1.238-2.124.937-5.714.284-8.14-.631-2.344-4.342-4.367-4.342-6.909s3.71-4.566 4.342-6.91c.653-2.425-1.522-6.015-.284-8.14 1.255-2.154 5.487-2.071 7.248-3.82 1.762-1.747 1.68-5.948 3.849-7.194 2.14-1.229 5.757.93 8.2.282C29.2 12.633 31.239 8.95 33.8 8.95c2.56 0 4.6 3.683 6.962 4.31 2.443.648 6.06-1.511 8.2-.283 2.171 1.246 2.088 5.447 3.849 7.195 1.761 1.748 5.993 1.667 7.249 3.82 1.238 2.124-.938 5.714-.284 8.14.63 2.343 4.34 4.367 4.34 6.909Z"/><mask id="b" width="62" height="62" x="3" y="8" maskUnits="userSpaceOnUse" style="mask-type:luminance"><mask id="a" width="62" height="62" x="3" y="8" maskUnits="userSpaceOnUse" style="mask-type:luminance"><path fill="#fff" d="M64.384 39.041c0 2.542-3.71 4.566-4.342 6.91-.653 2.425 1.523 6.015.285 8.14-1.256 2.154-5.488 2.071-7.25 3.82-1.76 1.747-1.679 5.948-3.848 7.194-2.14 1.229-5.757-.93-8.2-.282-2.362.626-4.401 4.309-6.962 4.309-2.56 0-4.6-3.683-6.962-4.31-2.443-.648-6.06 1.512-8.2.283-2.171-1.246-2.088-5.447-3.849-7.195-1.761-1.748-5.993-1.667-7.249-3.82-1.237-2.124.938-5.714.285-8.14-.631-2.344-4.342-4.367-4.342-6.909s3.71-4.566 4.342-6.91c.653-2.425-1.522-6.015-.285-8.14 1.256-2.154 5.488-2.071 7.25-3.82 1.76-1.747 1.679-5.948 3.848-7.194 2.14-1.229 5.757.93 8.2.282 2.362-.626 4.401-4.309 6.962-4.309 2.56 0 4.6 3.683 6.962 4.31 2.443.648 6.06-1.511 8.2-.283 2.171 1.246 2.087 5.447 3.849 7.195 1.761 1.748 5.993 1.667 7.249 3.82 1.238 2.124-.938 5.714-.285 8.14.631 2.343 4.342 4.367 4.342 6.909Z"/></mask><g mask="url(#a)"><path fill="#fff" d="M64.384 39.041c0 2.542-3.71 4.566-4.342 6.91-.653 2.425 1.523 6.015.285 8.14-1.256 2.154-5.488 2.071-7.25 3.82-1.76 1.747-1.679 5.948-3.848 7.194-2.14 1.229-5.757-.93-8.2-.282-2.362.626-4.401 4.309-6.962 4.309-2.56 0-4.6-3.683-6.962-4.31-2.443-.648-6.06 1.512-8.2.283-2.171-1.246-2.088-5.447-3.849-7.195-1.761-1.748-5.993-1.667-7.249-3.82-1.237-2.124.938-5.714.285-8.14-.631-2.344-4.342-4.367-4.342-6.909s3.71-4.566 4.342-6.91c.653-2.425-1.522-6.015-.285-8.14 1.256-2.154 5.488-2.071 7.25-3.82 1.76-1.747 1.679-5.948 3.848-7.194 2.14-1.229 5.757.93 8.2.282 2.362-.626 4.401-4.309 6.962-4.309 2.56 0 4.6 3.683 6.962 4.31 2.443.648 6.06-1.511 8.2-.283 2.171 1.246 2.087 5.447 3.849 7.195 1.761 1.748 5.993 1.667 7.249 3.82 1.238 2.124-.938 5.714-.285 8.14.631 2.343 4.342 4.367 4.342 6.909Z"/></g></mask><g mask="url(#b)"><path fill="url(#c)" d="M35.07.004 1.988 41.747l4.524 3.532L39.595 3.536 35.07.004Z" opacity=".1"/><path fill="url(#d)" d="M40.695 4.394 7.612 46.138l2.323 1.814L43.019 6.208l-2.324-1.814Z" opacity=".1"/><path fill="url(#e)" d="M60.582 9.885 27.5 51.63l4.524 3.532 33.083-41.743-4.524-3.533Z" opacity=".1"/><path fill="url(#f)" d="M66.206 14.277 33.123 56.02l2.323 1.814L68.53 16.091l-2.324-1.814Z" opacity=".1"/></g><path stroke="#fff" stroke-miterlimit="10" d="M61.911 39.041c0 2.357-3.44 4.234-4.026 6.408-.605 2.25 1.411 5.579.263 7.548-1.164 1.998-5.088 1.922-6.722 3.543-1.635 1.62-1.558 5.517-3.57 6.672-1.984 1.14-5.337-.862-7.605-.262-2.19.582-4.08 3.997-6.455 3.997s-4.266-3.415-6.456-3.997c-2.267-.6-5.62 1.401-7.605.262-2.014-1.156-1.936-5.05-3.57-6.672-1.632-1.621-5.557-1.546-6.722-3.543-1.147-1.97.87-5.298.264-7.548-.586-2.174-4.027-4.051-4.027-6.408s3.44-4.234 4.027-6.408c.605-2.25-1.411-5.579-.264-7.548 1.165-1.999 5.088-1.922 6.723-3.543 1.634-1.62 1.557-5.517 3.569-6.672 1.984-1.14 5.338.862 7.605.262 2.19-.582 4.081-3.997 6.456-3.997 2.374 0 4.266 3.415 6.456 3.997 2.265.6 5.62-1.401 7.605-.262 2.013 1.156 1.936 5.05 3.569 6.672 1.633 1.62 5.558 1.546 6.722 3.543 1.148 1.97-.869 5.298-.263 7.548.586 2.174 4.026 4.051 4.026 6.408Z" opacity=".2"/><path fill="#fff" d="M21.137 36.263c-.887 0-1.643-.165-2.266-.495a3.377 3.377 0 0 1-1.408-1.386c-.323-.594-.484-1.287-.484-2.079 0-.821.169-1.532.506-2.134a3.503 3.503 0 0 1 1.474-1.408c.638-.33 1.408-.495 2.31-.495.543 0 1.06.074 1.551.22.491.14.891.33 1.2.572l-.617 1.562a3.833 3.833 0 0 0-2.123-.627c-.74 0-1.294.198-1.66.594-.36.396-.54.968-.54 1.716s.183 1.313.55 1.694c.367.382.91.572 1.628.572.337 0 .715-.051 1.133-.154v-1.22h-1.55v-1.42h3.2v3.894c-.41.191-.869.338-1.375.44a7.676 7.676 0 0 1-1.529.154ZM29.135 36.263c-.785 0-1.474-.165-2.068-.495a3.577 3.577 0 0 1-1.375-1.408c-.33-.601-.495-1.301-.495-2.1 0-.807.161-1.508.484-2.102a3.48 3.48 0 0 1 1.386-1.397c.594-.33 1.283-.495 2.068-.495.784 0 1.47.165 2.057.495a3.48 3.48 0 0 1 1.386 1.397c.33.594.495 1.295.495 2.101 0 .8-.165 1.5-.495 2.101a3.556 3.556 0 0 1-1.386 1.408c-.587.33-1.273.495-2.057.495Zm0-1.694c.572 0 1.02-.201 1.342-.605.33-.41.495-.979.495-1.705 0-.726-.162-1.29-.484-1.694-.323-.403-.774-.605-1.353-.605-.58 0-1.03.202-1.353.605-.323.404-.484.968-.484 1.694s.161 1.295.484 1.705c.323.404.773.605 1.353.605ZM38.008 36.263c-.785 0-1.474-.165-2.068-.495a3.577 3.577 0 0 1-1.375-1.408c-.33-.601-.495-1.301-.495-2.1 0-.807.161-1.508.484-2.102a3.48 3.48 0 0 1 1.386-1.397c.594-.33 1.283-.495 2.068-.495.785 0 1.47.165 2.057.495a3.48 3.48 0 0 1 1.386 1.397c.33.594.495 1.295.495 2.101 0 .8-.165 1.5-.495 2.101a3.556 3.556 0 0 1-1.386 1.408c-.587.33-1.272.495-2.057.495Zm0-1.694c.572 0 1.02-.201 1.342-.605.33-.41.495-.979.495-1.705 0-.726-.161-1.29-.484-1.694-.323-.403-.774-.605-1.353-.605-.58 0-1.03.202-1.353.605-.323.404-.484.968-.484 1.694s.161 1.295.484 1.705c.323.404.774.605 1.353.605ZM43.141 36.142v-7.755h3.212c1.342 0 2.383.338 3.124 1.012.74.675 1.111 1.628 1.111 2.86s-.37 2.19-1.111 2.871c-.74.675-1.782 1.012-3.124 1.012h-3.212Zm2.024-1.639h1.056c.77 0 1.338-.183 1.705-.55.374-.374.561-.938.561-1.694 0-.755-.187-1.316-.561-1.683-.374-.366-.942-.55-1.705-.55h-1.056v4.477ZM18.596 48.142l-3.53-7.755h2.155l2.222 5.16 2.222-5.16h2.08l-3.543 7.755h-1.606ZM22.52 48.142l3.63-7.755h1.596l3.63 7.755h-2.024l-.671-1.573h-3.465l-.671 1.573H22.52Zm4.412-5.643-1.056 2.52h2.134l-1.056-2.52h-.022ZM31.846 48.142v-7.755h2.024v6.072h3.454v1.683h-5.478ZM41.39 48.263c-1.13 0-1.995-.286-2.596-.858-.594-.572-.891-1.426-.891-2.563v-4.455h2.024v4.477c0 .565.124.99.374 1.276.25.286.612.43 1.089.43.47 0 .828-.144 1.078-.43.25-.286.374-.711.374-1.276v-4.477h1.99v4.455c0 1.137-.293 1.991-.88 2.563-.578.572-1.433.858-2.562.858ZM46.186 48.142v-7.755h5.478v1.562h-3.542v1.474h3.29v1.562h-3.29v1.595h3.542v1.562h-5.478Z"/><defs><linearGradient id="c" x1="4.246" x2="37.026" y1="43.513" y2="1.53" gradientUnits="userSpaceOnUse"><stop stop-color="#fff" stop-opacity="0"/><stop offset=".1" stop-color="#fff" stop-opacity=".02"/><stop offset=".23" stop-color="#fff" stop-opacity=".08"/><stop offset=".36" stop-color="#fff" stop-opacity=".17"/><stop offset=".5" stop-color="#fff" stop-opacity=".31"/><stop offset=".65" stop-color="#fff" stop-opacity=".48"/><stop offset=".81" stop-color="#fff" stop-opacity=".69"/><stop offset=".96" stop-color="#fff" stop-opacity=".94"/><stop offset="1" stop-color="#fff"/></linearGradient><linearGradient id="d" x1="8.772" x2="41.55" y1="47.045" y2="5.064" gradientUnits="userSpaceOnUse"><stop stop-color="#fff" stop-opacity="0"/><stop offset=".1" stop-color="#fff" stop-opacity=".02"/><stop offset=".23" stop-color="#fff" stop-opacity=".08"/><stop offset=".36" stop-color="#fff" stop-opacity=".17"/><stop offset=".5" stop-color="#fff" stop-opacity=".31"/><stop offset=".65" stop-color="#fff" stop-opacity=".48"/><stop offset=".81" stop-color="#fff" stop-opacity=".69"/><stop offset=".96" stop-color="#fff" stop-opacity=".94"/><stop offset="1" stop-color="#fff"/></linearGradient><linearGradient id="e" x1="29.758" x2="62.538" y1="53.397" y2="11.414" gradientUnits="userSpaceOnUse"><stop stop-color="#fff" stop-opacity="0"/><stop offset=".1" stop-color="#fff" stop-opacity=".02"/><stop offset=".23" stop-color="#fff" stop-opacity=".08"/><stop offset=".36" stop-color="#fff" stop-opacity=".17"/><stop offset=".5" stop-color="#fff" stop-opacity=".31"/><stop offset=".65" stop-color="#fff" stop-opacity=".48"/><stop offset=".81" stop-color="#fff" stop-opacity=".69"/><stop offset=".96" stop-color="#fff" stop-opacity=".94"/><stop offset="1" stop-color="#fff"/></linearGradient><linearGradient id="f" x1="34.283" x2="67.062" y1="56.928" y2="14.945" gradientUnits="userSpaceOnUse"><stop stop-color="#fff" stop-opacity="0"/><stop offset=".1" stop-color="#fff" stop-opacity=".02"/><stop offset=".23" stop-color="#fff" stop-opacity=".08"/><stop offset=".36" stop-color="#fff" stop-opacity=".17"/><stop offset=".5" stop-color="#fff" stop-opacity=".31"/><stop offset=".65" stop-color="#fff" stop-opacity=".48"/><stop offset=".81" stop-color="#fff" stop-opacity=".69"/><stop offset=".96" stop-color="#fff" stop-opacity=".94"/><stop offset="1" stop-color="#fff"/></linearGradient></defs></svg>