<svg xmlns="http://www.w3.org/2000/svg" width="96" height="260" fill="none"><path fill="#003F7D" d="M94.266 0c3.62 8.766 4.698 18.662 5.04 28.38.973 27.424-3.6 55.072-13.234 80.026-3.55 9.196-7.845 18.142-13.85 25.359-3.964 4.766-8.591 8.683-13.233 12.503-16.42 13.514-33.74 26.532-45.64 45.482-11.903 18.955-17.254 45.786-7.29 66.329 2.013 4.15 4.708 8.037 8.36 10.136 3.172 1.826 6.787 2.155 10.304 2.459 18.015 1.546 36.03 3.088 54.045 4.634 4.866.419 10.546.446 13.598-4.008 1.939-2.826 2.218-6.707 2.404-10.332.381-7.51.69-15.029 1.016-22.548a5505.788 5505.788 0 0 1 9.398-162.307" opacity=".1"/></svg>