<svg xmlns="http://www.w3.org/2000/svg" width="43" height="48" fill="none"><path fill="#fff" d="M8.763 28.976a3.05 3.05 0 0 0 2.595 3.328l1.472.229a5.12 5.12 0 0 1 3.687 1.668c1.323 1.379 2.97 3.095 5.256 3.38.98.213 2.102.296 2.58 1.3l1.922 3.895a.706.706 0 0 0 .94.319l10.561-5.218a.703.703 0 0 0 .318-.94l-1.577-3.194a2 2 0 0 1-.175-1.306c.766-3.458.393-7.07-1.063-10.298l-2.458-4.975a2.935 2.935 0 0 0-5.125-.185 2.937 2.937 0 0 0-4.69.347 2.92 2.92 0 0 0-4.872.067l-1.968-3.982a2.921 2.921 0 0 0-4.066-1.232 2.955 2.955 0 0 0-1.118 3.886l5.217 10.558c-1.39-.18-2.784-.32-4.181-.418a3.068 3.068 0 0 0-3.255 2.771Zm3.089-19.308-.813-1.644a.702.702 0 0 0-1.258.622l.812 1.644a.702.702 0 0 0 1.259-.622Zm3.374-2-.588 1.737a.703.703 0 0 0 .978.864.702.702 0 0 0 .352-.414l.588-1.737a.702.702 0 0 0-1.33-.45Z"/><path fill="#000" d="M8.763 28.976a3.05 3.05 0 0 0 2.595 3.328l1.472.229a5.12 5.12 0 0 1 3.687 1.668c1.323 1.379 2.97 3.095 5.256 3.38.98.213 2.102.296 2.58 1.3l1.922 3.895a.706.706 0 0 0 .94.319l10.561-5.218a.703.703 0 0 0 .318-.94l-1.577-3.194a2 2 0 0 1-.175-1.306c.766-3.458.393-7.07-1.063-10.298l-2.458-4.975a2.935 2.935 0 0 0-5.125-.185 2.937 2.937 0 0 0-4.69.347 2.92 2.92 0 0 0-4.872.067l-1.968-3.982a2.921 2.921 0 0 0-4.066-1.232 2.955 2.955 0 0 0-1.118 3.886l5.217 10.558c-1.39-.18-2.784-.32-4.181-.418a3.068 3.068 0 0 0-3.255 2.771Zm8.545-.77a.707.707 0 0 0 .744-1.004l-5.81-11.76a1.51 1.51 0 1 1 2.665-1.41l5.817 11.772a.702.702 0 0 0 1.258-.622l-2.745-5.556a1.51 1.51 0 1 1 2.709-1.338l2.745 5.556a.702.702 0 0 0 1.259-.622l-1.823-3.69a1.508 1.508 0 0 1 2.703-1.335l1.823 3.69a.702.702 0 1 0 1.258-.623l-1.057-2.14a1.511 1.511 0 0 1 2.708-1.338l2.447 4.95a15.021 15.021 0 0 1 .962 9.398c-.452 1.477.993 3.51 1.553 4.796l-9.3 4.595-1.613-3.265a3.232 3.232 0 0 0-1.904-1.652 12.933 12.933 0 0 0-1.727-.415c-1.825-.228-3.22-1.682-4.458-2.972a6.491 6.491 0 0 0-4.518-2.082l-1.437-.223a1.651 1.651 0 0 1-1.407-1.806 1.68 1.68 0 0 1 1.762-1.505c2.08.152 3.891.354 5.386.6ZM11.852 9.667l-.813-1.644a.702.702 0 0 0-1.258.622l.812 1.644a.702.702 0 0 0 1.259-.622Zm3.374-2-.588 1.737a.703.703 0 0 0 .978.864.702.702 0 0 0 .352-.414l.588-1.737a.702.702 0 0 0-1.33-.45Z"/><path fill="#000" d="M17.806 12.58a.701.701 0 0 0 .94.32l1.644-.813a.702.702 0 0 0-.622-1.259l-1.644.813a.702.702 0 0 0-.318.94Zm-8.912 1.161a.707.707 0 0 0-.086-1.294l-1.737-.589a.702.702 0 0 0-.45 1.33l1.737.589a.7.7 0 0 0 .536-.036ZM6.66 18.316a.701.701 0 0 0 .94.318l1.645-.812a.702.702 0 0 0-.622-1.259l-1.645.813a.702.702 0 0 0-.318.94Z"/></svg>