<svg xmlns="http://www.w3.org/2000/svg" width="70" height="67" fill="none"><ellipse cx="7.5" cy="35" fill="#EB5C2B" opacity=".6" rx="7.5" ry="6"/><ellipse cx="62.039" cy="39.928" fill="#EB5C2B" opacity=".6" rx="6.593" ry="4.395" transform="rotate(-42.514 62.039 39.928)"/><ellipse cx="37.5" cy="59" fill="#EB5C2B" opacity=".6" rx="7.5" ry="6"/><ellipse cx="21.977" cy="46.883" fill="#EB5C2B" opacity=".6" rx="5.176" ry="4.14" transform="rotate(-32.696 21.977 46.883)"/><ellipse cx="59.592" cy="10.28" fill="#EB5C2B" opacity=".6" rx="5.176" ry="4.14" transform="rotate(-32.696 59.592 10.28)"/><ellipse cx="22.709" cy="13.606" fill="#EB5C2B" opacity=".6" rx="5.176" ry="4.14" transform="rotate(-32.696 22.71 13.606)"/><ellipse cx="5.165" cy="53.168" fill="#EB5C2B" opacity=".6" rx="3.029" ry="2.423" transform="rotate(-21.225 5.165 53.168)"/><ellipse cx="44.724" cy="22.401" fill="#EB5C2B" opacity=".6" rx="3.029" ry="2.423" transform="rotate(-21.225 44.724 22.401)"/><ellipse cx="42.467" cy="38.822" fill="#EB5C2B" opacity=".6" rx="4.076" ry="3.261" transform="rotate(-21.225 42.467 38.822)"/><ellipse cx="26.925" cy="33.075" fill="#EB5C2B" opacity=".6" rx="3.029" ry="2.423" transform="rotate(-115.283 26.925 33.075)"/><ellipse cx="16.671" cy="62.378" fill="#EB5C2B" opacity=".6" rx="3.029" ry="2.423" transform="rotate(-115.283 16.67 62.378)"/><ellipse cx="38.647" cy="3.773" fill="#EB5C2B" opacity=".6" rx="3.029" ry="2.423" transform="rotate(-115.283 38.647 3.773)"/></svg>