<svg xmlns="http://www.w3.org/2000/svg" width="1509" height="356" fill="none"><g opacity=".4"><path fill="url(#a)" d="M1441.97 261.046c-24.44-9.539-42.06-26.195-67.55-34.072-26.19-8.067-50.4-7.925-74.18-27.571-18.67-15.422-13.69-30.465-24.4-45.365-8.81-12.338-21.31-9.348-33.58-19.171-6.82-5.458-5.88-15.565-11.66-20.88-19.89-18.222-15.06-17.178-32.92-5.267-27.52 18.412-36.28 73.505-77.07 57.513-26.77-10.487-56.18-48.212-77.5-66.72-24.4-21.163-75.888-62.685-75.888-62.685s-80.151 66.577-128.943 79.057c-27.948 7.166-70.108-31.651-90.62-48.687-23.448-19.456-62.198-34.262-70.298-66.293-36.144 28.14-66.509 62.829-108.716 84.99-15.68 8.209-35.765 10.392-52.297 18.269-20.417 9.728-30.033 20.121-48.839 34.736-15.917 12.386-35.102 18.175-49.74 29.564-21.364 16.609-24.301 37.773-52.913 25.862-38.749-16.134-58.076-55.283-103.363-30.323-38.086 20.975-86.499 105.062-136.901 104.303l1378.958 13.856c-17.43-7.07-41.87-13.524-61.63-21.211l.05.095Z" style="mix-blend-mode:darken"/><path fill="url(#b)" d="M887.686 259.385c-16.438-6.406-28.328-17.653-45.476-22.92-17.622-5.41-33.918-5.315-49.929-18.555-12.553-10.345-9.237-20.5-16.39-30.512-5.921-8.305-14.353-6.312-22.596-12.908-4.595-3.654-3.932-10.487-7.863-14.046-13.406-12.29-10.138-11.579-22.17-3.559-18.522 12.385-24.396 49.447-51.871 38.722-18.001-7.07-37.802-32.458-52.155-44.938-16.438-14.236-51.113-42.187-51.113-42.187s-53.955 44.797-86.783 53.196c-18.806 4.84-47.181-21.307-60.966-32.743-15.775-13.097-41.829-23.062-47.324-44.606-24.301 18.934-44.765 42.281-73.188 57.229-10.563 5.552-24.064 7.023-35.196 12.29-13.738 6.549-20.227 13.572-32.875 23.395-10.706 8.351-23.638 12.243-33.491 19.883-14.401 11.199-16.343 25.435-35.623 17.415-26.101-10.867-39.128-37.203-69.54-20.405-25.628 14.141-58.22 70.706-92.184 70.184l928.182 9.348c-11.748-4.745-28.185-9.111-41.497-14.283h.048Z" style="mix-blend-mode:darken"/><path fill="url(#c)" d="M1467.5 341.717c-16.43-6.406-28.32-17.653-45.47-22.92-17.62-5.41-33.92-5.315-49.93-18.555-12.55-10.344-9.24-20.499-16.39-30.512-5.92-8.305-14.35-6.311-22.6-12.908-4.59-3.653-3.93-10.487-7.86-14.046-13.41-12.29-10.14-11.578-22.17-3.559-18.52 12.386-24.4 49.447-51.87 38.722-18-7.07-37.8-32.458-52.16-44.938-16.43-14.236-51.11-42.186-51.11-42.186s-53.95 44.796-86.78 53.195c-18.81 4.84-47.18-21.307-60.97-32.743-15.773-13.097-41.826-23.062-47.321-44.654-24.302 18.934-44.766 42.281-73.188 57.229-10.564 5.552-24.065 7.023-35.197 12.291-13.737 6.548-20.227 13.571-32.875 23.394-10.706 8.352-23.638 12.243-33.491 19.883-14.401 11.199-16.343 25.435-35.623 17.416-26.101-10.867-39.128-37.204-69.54-20.405-25.628 14.141-58.219 70.706-92.184 70.184l928.179 9.348c-11.74-4.745-28.18-9.111-41.49-14.284l.04.048Z" style="mix-blend-mode:darken"/></g><defs><linearGradient id="a" x1="814.12" x2="814.12" y1="250.084" y2="-85.413" gradientUnits="userSpaceOnUse"><stop stop-color="#fff"/><stop offset=".22" stop-color="#F9F9F9"/><stop offset=".49" stop-color="#E9E9E9"/><stop offset=".79" stop-color="#CFCFCF"/><stop offset="1" stop-color="#BABABA"/></linearGradient><linearGradient id="b" x1="465.092" x2="465.092" y1="252.029" y2="26.198" gradientUnits="userSpaceOnUse"><stop stop-color="#fff"/><stop offset=".22" stop-color="#F9F9F9"/><stop offset=".49" stop-color="#E9E9E9"/><stop offset=".79" stop-color="#CFCFCF"/><stop offset="1" stop-color="#BABABA"/></linearGradient><linearGradient id="c" x1="1044.91" x2="1044.91" y1="334.362" y2="108.53" gradientUnits="userSpaceOnUse"><stop stop-color="#fff"/><stop offset=".22" stop-color="#F9F9F9"/><stop offset=".49" stop-color="#E9E9E9"/><stop offset=".79" stop-color="#CFCFCF"/><stop offset="1" stop-color="#BABABA"/></linearGradient></defs></svg>