<svg xmlns="http://www.w3.org/2000/svg" width="71" height="71" fill="none"><circle cx="35.5" cy="35.5" r="35.5" fill="#fff"/><path fill="#000" d="M52.092 23.116a4.7 4.7 0 0 0 1.528-5.995l-1.075.546a3.501 3.501 0 0 1-3.121 5.076 3.501 3.501 0 0 1-3.498-3.497 3.501 3.501 0 0 1 3.497-3.497c.948 0 1.835.373 2.499 1.05l.861-.844a4.668 4.668 0 0 0-3.36-1.412 4.708 4.708 0 0 0-4.703 4.703 4.7 4.7 0 0 0 2.041 3.874 5.434 5.434 0 0 0-3.647 5.125v8.597c0 1.19.945 2.163 2.124 2.209v12.86h8.44V39.048a2.213 2.213 0 0 0 2.074-2.206v-8.597a5.434 5.434 0 0 0-3.66-5.13Zm2.455 13.726c0 .554-.451 1.005-1.005 1.005h-1.07v12.858h-2.436V40.01H48.83v10.695h-2.386V37.847h-1.12c-.554 0-1.005-.451-1.005-1.005v-8.597a4.225 4.225 0 0 1 4.22-4.22h1.788a4.225 4.225 0 0 1 4.22 4.22v8.597Zm-16.785-8.904a4.7 4.7 0 0 0 2.035-3.87 4.708 4.708 0 0 0-4.703-4.702 4.708 4.708 0 0 0-4.703 4.703c0 1.605.81 3.025 2.041 3.874a5.434 5.434 0 0 0-3.648 5.125v6.025c0 1.144.875 2.088 1.991 2.199v10.62h8.44v-10.61a2.213 2.213 0 0 0 2.208-2.21v-3.459h-1.206v3.46c0 .553-.45 1.004-1.004 1.004h-1.204v10.608h-2.416v-8.284h-1.206v8.284h-2.406V40.097h-.986c-.554 0-1.005-.45-1.005-1.005v-6.024a4.225 4.225 0 0 1 4.22-4.22h1.787a4.225 4.225 0 0 1 4.22 4.22v1.365h1.206v-1.365a5.434 5.434 0 0 0-3.66-5.13Zm-2.668-.372a3.501 3.501 0 0 1-3.497-3.497 3.501 3.501 0 0 1 3.497-3.497 3.501 3.501 0 0 1 3.497 3.497 3.501 3.501 0 0 1-3.497 3.497Zm-11.618 4.391a4.7 4.7 0 0 0-2.668-8.572 4.708 4.708 0 0 0-4.703 4.703 4.7 4.7 0 0 0 2.04 3.873 5.438 5.438 0 0 0-2.956 2.474l1.052.59a4.229 4.229 0 0 1 3.683-2.158h1.787a4.225 4.225 0 0 1 4.22 4.22v3.854c0 .554-.45 1.005-1.005 1.005h-1.38v8.76h-2.412v-6.628H19.93v6.627h-2.412v-8.76h-.808c-.555 0-1.005-.45-1.005-1.004v-3.854c0-.37.047-.736.141-1.09l-1.165-.31a5.442 5.442 0 0 0-.182 1.4v3.854c0 1.084.784 1.987 1.814 2.175v8.795h8.44v-8.76h.174c1.219 0 2.21-.991 2.21-2.21v-3.854a5.434 5.434 0 0 0-3.66-5.13Zm-2.668-.372a3.501 3.501 0 0 1-3.497-3.497 3.501 3.501 0 0 1 3.497-3.498 3.501 3.501 0 0 1 3.497 3.498 3.501 3.501 0 0 1-3.497 3.497Z"/><path fill="#000" d="M19.929 38.043h1.205v1.21H19.93v-1.21Zm0-2.407h1.205v1.206H19.93v-1.206Zm14.463-3.617h1.206v1.206h-1.206V32.02Zm0 2.412h1.206v1.205h-1.206v-1.205ZM48.82 27.2h1.206v1.206H48.82v-1.205Zm0 2.412h1.206v1.206H48.82v-1.206Zm0 2.411h1.206v1.201H48.82v-1.2Z"/></svg>