<svg xmlns="http://www.w3.org/2000/svg" width="72" height="71" fill="none"><ellipse cx="36" cy="35.5" fill="#fff" rx="36" ry="35.5"/><path fill="#000" d="M19.233 46.22h-2.039a.68.68 0 0 0 0 1.36h2.039a.68.68 0 1 0 0-1.36Zm2.718 0h-.68a.68.68 0 0 0 0 1.36h.68a.68.68 0 1 0 0-1.36Z"/><path fill="#000" d="M53.89 26.513h-1.359v-5.436a2.721 2.721 0 0 0-2.718-2.719H21.272a2.721 2.721 0 0 0-2.718 2.719v12.231h-1.36a2.721 2.721 0 0 0-2.717 2.719v10.872a2.72 2.72 0 0 0 2.718 2.719h6.795a2.722 2.722 0 0 0 2.718-2.719v-2.038h5.925l-.34 1.359h-2.187a.68.68 0 0 0-.68.68v2.038a.68.68 0 0 0 .68.68H53.89a2.722 2.722 0 0 0 2.718-2.719V29.231a2.722 2.722 0 0 0-2.718-2.718ZM25.35 46.899a1.361 1.361 0 0 1-1.36 1.36h-6.795a1.361 1.361 0 0 1-1.36-1.36V36.027a1.36 1.36 0 0 1 1.36-1.36h.869l.525 1.575a.68.68 0 0 0 .644.464h2.719a.68.68 0 0 0 .644-.465l.525-1.574h.87a1.361 1.361 0 0 1 1.358 1.36v10.872Zm-5.853-12.232h2.191l-.226.68h-1.738l-.227-.68Zm7.211 8.835v-2.039H38.94v2.039H26.708ZM38.94 44.86v1.359h-.148l-.34-1.36h.488Zm-1.55 1.359h-3.695l.34-1.36h3.015l.34 1.36Zm-6.604 2.038v-.68h8.24c.062.24.157.468.28.68h-8.52Zm8.154-19.027v10.873H26.708v-4.077a2.721 2.721 0 0 0-2.718-2.719h-4.077V21.077a1.361 1.361 0 0 1 1.359-1.36h28.541a1.361 1.361 0 0 1 1.36 1.36v5.436h-9.515a2.722 2.722 0 0 0-2.718 2.718ZM55.25 46.9a1.361 1.361 0 0 1-1.36 1.36H41.658a1.361 1.361 0 0 1-1.359-1.36V29.231a1.36 1.36 0 0 1 1.36-1.359H53.89a1.36 1.36 0 0 1 1.36 1.36v17.667Z"/><path fill="#000" d="M53.89 28.552H41.66a.68.68 0 0 0-.68.68v15.63a.68.68 0 0 0 .68.679h12.232a.68.68 0 0 0 .68-.68v-15.63a.68.68 0 0 0-.68-.679Zm-.679 15.63H42.34v-14.27H53.21v14.27ZM47.095 47.58a.68.68 0 1 0 0-1.36.68.68 0 0 0 0 1.36Z"/></svg>