<svg xmlns="http://www.w3.org/2000/svg" width="72" height="71" fill="none"><ellipse cx="36" cy="35.5" fill="#fff" rx="36" ry="35.5"/><path fill="#000" d="M19.583 29.558a.685.685 0 0 0 .685-.685v-8.9h8.9a.685.685 0 1 0 0-1.37h-9.585a.685.685 0 0 0-.685.685v9.585c0 .378.307.685.685.685Zm32.863-10.954h-9.585a.685.685 0 1 0 0 1.369h8.9v8.9a.685.685 0 0 0 1.37 0v-9.585a.685.685 0 0 0-.685-.684ZM29.168 51.466h-8.9v-8.9a.685.685 0 0 0-1.37 0v9.585c0 .378.307.685.685.685h9.585a.685.685 0 0 0 0-1.37Zm23.278-9.585a.685.685 0 0 0-.685.685v8.9h-8.9a.685.685 0 0 0 0 1.37h9.585a.685.685 0 0 0 .685-.685v-9.585a.685.685 0 0 0-.685-.685ZM36.015 30.927a4.798 4.798 0 0 0-4.793 4.793 4.798 4.798 0 0 0 4.792 4.792 4.798 4.798 0 0 0 4.793-4.792 4.798 4.798 0 0 0-4.793-4.793Zm0 8.216a3.427 3.427 0 0 1-3.424-3.423 3.427 3.427 0 0 1 3.423-3.424 3.427 3.427 0 0 1 3.424 3.424 3.427 3.427 0 0 1-3.424 3.423Z"/><path fill="#000" d="M52.446 35.035h-4.127c-.344-6.251-5.369-11.276-11.62-11.62v-4.127a.685.685 0 1 0-1.37 0v4.127c-6.25.344-11.275 5.369-11.619 11.62h-4.127a.685.685 0 1 0 0 1.37h4.127c.344 6.25 5.369 11.275 11.62 11.619v4.127a.685.685 0 0 0 1.37 0v-4.127c6.25-.344 11.275-5.368 11.619-11.62h4.127a.685.685 0 0 0 0-1.369ZM36.699 46.652V43.25a.685.685 0 0 0-1.37 0v3.4c-5.495-.34-9.906-4.75-10.247-10.247h3.401a.685.685 0 0 0 0-1.369h-3.4c.34-5.496 4.75-9.907 10.247-10.248v3.402a.685.685 0 1 0 1.37 0v-3.402c5.495.341 9.906 4.752 10.247 10.248h-3.401a.685.685 0 0 0 0 1.37h3.4c-.34 5.495-4.75 9.906-10.247 10.247Z"/></svg>