<svg xmlns="http://www.w3.org/2000/svg" width="71" height="71" fill="none"><circle cx="35.5" cy="35.5" r="35.5" fill="#fff"/><mask id="a" width="39" height="40" x="16" y="15" maskUnits="userSpaceOnUse" style="mask-type:luminance"><path fill="#fff" stroke="#fff" stroke-width="2" d="M53.685 53.02V16.397h-36.62V53.02h36.62Z"/></mask><g stroke="#000" stroke-linecap="round" stroke-linejoin="round" stroke-miterlimit="10" stroke-width="2" mask="url(#a)"><path d="M35.375 25.657c0 5-4.052 9.052-9.052 9.052-4.999 0-9.127-4.053-9.127-9.052 0-5 4.128-9.127 9.127-9.127 5 0 9.052 4.128 9.052 9.127ZM53.554 43.76c0 5-4.128 9.128-9.127 9.128-5 0-9.052-4.128-9.052-9.127 0-5 4.053-9.052 9.052-9.052s9.127 4.052 9.127 9.051ZM26.323 34.709v13.577M21.798 43.76h9.052M44.427 21.433v13.276M39.901 25.657l4.526-4.526 4.526 4.526"/></g></svg>