<svg xmlns="http://www.w3.org/2000/svg" width="71" height="71" fill="none"><circle cx="35.5" cy="35.5" r="35.5" fill="#fff"/><path fill="#000" d="M35.656 17.07a.827.827 0 1 0-.013 1.654.827.827 0 0 0 .013-1.653Zm-.038 4.957a5.79 5.79 0 0 0-5.826 5.74 5.79 5.79 0 0 0 5.74 5.826h.044a5.79 5.79 0 0 0 5.781-5.74 5.79 5.79 0 0 0-5.739-5.826Zm-.043 9.914h-.031a4.135 4.135 0 0 1-4.1-4.162 4.135 4.135 0 0 1 4.13-4.1h.032a4.135 4.135 0 0 1 4.1 4.162 4.135 4.135 0 0 1-4.13 4.1Zm3.604-14.244a.826.826 0 0 0-.552 1.558 9.077 9.077 0 0 1 6.035 8.623.826.826 0 0 0 .82.833h.006a.826.826 0 0 0 .826-.82 10.73 10.73 0 0 0-7.135-10.194Z"/><path fill="#000" d="M40.644 44.864c5.495-7.073 8.928-10.761 8.975-16.95.058-7.785-6.26-14.148-14.045-14.148-7.694 0-13.984 6.23-14.042 13.938-.047 6.356 3.45 10.039 8.983 17.158-5.504.823-8.983 2.89-8.983 5.417 0 1.693 1.565 3.213 4.407 4.279 2.587.97 6.009 1.504 9.636 1.504 3.628 0 7.05-.534 9.637-1.504 2.842-1.066 4.407-2.586 4.407-4.279 0-2.526-3.476-4.592-8.975-5.416Zm-17.46-17.147c.051-6.801 5.6-12.3 12.39-12.3 6.87 0 12.444 5.617 12.393 12.486-.044 5.876-3.686 9.497-9.5 17.076a162.385 162.385 0 0 0-2.89 3.879 156.556 156.556 0 0 0-2.885-3.88c-6.054-7.895-9.553-11.243-9.508-17.261ZM35.575 54.41c-7.092 0-12.391-2.18-12.391-4.13 0-1.447 3.168-3.273 8.494-3.906a147.55 147.55 0 0 1 3.223 4.382.826.826 0 0 0 .673.35h.001a.826.826 0 0 0 .674-.349 153.05 153.05 0 0 1 3.231-4.382c5.322.633 8.487 2.46 8.487 3.904 0 1.95-5.3 4.13-12.392 4.13Z"/></svg>