<svg xmlns="http://www.w3.org/2000/svg" width="71" height="71" fill="none"><circle cx="35.5" cy="35.5" r="35.5" fill="#fff"/><mask id="a" width="39" height="38" x="16" y="16" maskUnits="userSpaceOnUse" style="mask-type:luminance"><path fill="#fff" stroke="#fff" d="M53.798 53.336V16.593H17.055v36.743h36.743Z"/></mask><g stroke="#000" stroke-linecap="round" stroke-linejoin="round" stroke-miterlimit="10" mask="url(#a)"><path d="M53.745 46.144v.687a2.506 2.506 0 0 1-2.506 2.506H19.614a2.506 2.506 0 0 1-2.507-2.506v-14.25M17.107 30.204v-3.721h36.638v17.286"/><path d="M49.59 20.588h1.648a2.506 2.506 0 0 1 2.507 2.506v3.391H17.107v-3.39a2.506 2.506 0 0 1 2.507-2.507h27.59"/><path d="M22.452 23.512a1.18 1.18 0 1 1-2.36 0 1.18 1.18 0 0 1 2.36 0ZM26.654 23.512a1.18 1.18 0 1 1-2.359 0 1.18 1.18 0 0 1 2.359 0ZM30.856 23.512a1.18 1.18 0 1 1-2.359 0 1.18 1.18 0 0 1 2.359 0ZM29.529 38.647H26.58v-5.93h2.949v5.93Zm0 0h2.948m-2.948 0v-4.221h2.948v4.22m0 0h2.95m-2.95 0v-8.441h2.95v8.442m0 0h2.948m-2.949 0v-6.744h2.949v6.744m0 0h2.949m-2.95 0v-10.32h2.95v10.32m0 0h2.948v-5.503h-2.948v5.503ZM24.368 38.647h22.115M35.313 41.997l-7.975 2.694M43.481 43.214l-5.9-1.334M45.812 43.474a1.18 1.18 0 1 1-2.359 0 1.18 1.18 0 0 1 2.36 0ZM37.609 41.62a1.18 1.18 0 1 1-2.359 0 1.18 1.18 0 0 1 2.359 0ZM27.4 45.069a1.18 1.18 0 1 1-2.359 0 1.18 1.18 0 0 1 2.359 0Z"/></g></svg>