<svg width="80" height="80" viewBox="0 0 80 80" fill="none" xmlns="http://www.w3.org/2000/svg">
<g clip-path="url(#clip0_739_944)">
<path d="M73.0672 36.9022L66.7991 27.5H53.3844L54.2588 21.875H48.5353C47.9452 15.9183 42.9062 11.25 36.797 11.25C30.6878 11.25 25.6489 15.9183 25.0588 21.875H10.5469V24.2188H25.0586C25.6488 30.1755 30.6877 34.8438 36.7969 34.8438C42.9061 34.8438 47.945 30.1755 48.5352 24.2188H51.5225L47.1992 52.0312H25.3075C21.0139 45.3603 11.3197 45.3761 7.03609 52.0312H0V59.0625H5.37672C5.96312 64.5011 10.58 68.75 16.1719 68.75C21.7638 68.75 26.3806 64.5011 26.967 59.0625H49.283C49.8694 64.5011 54.4863 68.75 60.0781 68.75C65.67 68.75 70.2869 64.5011 70.8733 59.0625H80C80 56.9108 80 46.2247 80 44.4531C80 40.4917 76.945 37.2306 73.0672 36.9022ZM36.7969 32.5C31.5844 32.5 27.3438 28.2592 27.3438 23.0469C27.3438 17.8345 31.5844 13.5938 36.7969 13.5938C42.0094 13.5938 46.25 17.8345 46.25 23.0469C46.25 28.2592 42.0094 32.5 36.7969 32.5ZM5.37672 56.7188H2.34375V54.375H5.89984C5.64297 55.1233 5.46422 55.9073 5.37672 56.7188ZM16.1719 66.4062C11.4764 66.4062 7.65625 62.5863 7.65625 57.8906C7.65625 53.195 11.4764 49.375 16.1719 49.375C20.8673 49.375 24.6875 53.195 24.6875 57.8906C24.6875 62.5863 20.8673 66.4062 16.1719 66.4062ZM58.5709 29.8438H65.5448L70.2323 36.875H57.3991L58.5709 29.8438ZM49.283 56.7188H26.967C26.8795 55.9073 26.7008 55.1233 26.4439 54.375H49.8061C49.5492 55.1233 49.3705 55.9073 49.283 56.7188ZM60.0781 66.4062C55.3827 66.4062 51.5625 62.5863 51.5625 57.8906C51.5625 53.195 55.3827 49.375 60.0781 49.375C64.7736 49.375 68.5938 53.195 68.5938 57.8906C68.5938 62.5863 64.7736 66.4062 60.0781 66.4062ZM77.6562 56.7188H70.8733C70.7858 55.9073 70.607 55.1233 70.3502 54.375H77.6562V56.7188ZM77.6562 52.0312H69.2137C64.9202 45.3603 55.2259 45.3761 50.9423 52.0312H49.5711L53.0198 29.8438H56.1945L54.632 39.2188H72.4217C74.905 39.2188 76.9884 40.9577 77.5222 43.2812H73.3594C71.4208 43.2812 69.8438 44.8584 69.8438 46.7969C69.8438 48.7353 71.4208 50.3125 73.3594 50.3125H77.6562V52.0312ZM77.6562 47.9688H73.3594C71.8084 47.9688 71.81 45.625 73.3594 45.625H77.6562V47.9688Z" fill="white"/>
<path d="M2.42188 27.8125H4.76562V30.1562H2.42188V27.8125Z" fill="white"/>
<path d="M7.10938 27.8125H17.5781V30.1562H7.10938V27.8125Z" fill="white"/>
<path d="M7.26562 33.5156H9.60938V35.8594H7.26562V33.5156Z" fill="white"/>
<path d="M11.9531 33.5156H25.3906V35.8594H11.9531V33.5156Z" fill="white"/>
<path d="M4.92188 39.2188H18.3594V41.5625H4.92188V39.2188Z" fill="white"/>
<path d="M0.234375 39.2188H2.57812V41.5625H0.234375V39.2188Z" fill="white"/>
<path d="M16.1719 54.375C14.2333 54.375 12.6562 55.9522 12.6562 57.8906C12.6562 59.8291 14.2333 61.4062 16.1719 61.4062C18.1105 61.4062 19.6875 59.8291 19.6875 57.8906C19.6875 55.9522 18.1105 54.375 16.1719 54.375ZM15 57.8906C15 56.3397 17.3438 56.3412 17.3438 57.8906C17.3438 58.5369 15 59.44 15 57.8906Z" fill="white"/>
<path d="M60.0781 54.375C58.1395 54.375 56.5625 55.9522 56.5625 57.8906C56.5625 59.8291 58.1395 61.4062 60.0781 61.4062C62.0167 61.4062 63.5938 59.8291 63.5938 57.8906C63.5938 55.9522 62.0167 54.375 60.0781 54.375ZM60.0781 59.0625C58.5272 59.0625 58.5287 56.7188 60.0781 56.7188C61.6291 56.7188 61.6275 59.0625 60.0781 59.0625Z" fill="white"/>
<path d="M38.125 16.3281H35.7812V24.8438H41.3281V22.5H38.125V16.3281Z" fill="white"/>
</g>
<defs>
<clipPath id="clip0_739_944">
<rect width="80" height="80" fill="white"/>
</clipPath>
</defs>
</svg>
