<svg xmlns="http://www.w3.org/2000/svg" width="912" height="612" fill="none"><mask id="a" width="912" height="612" x="0" y="0" maskUnits="userSpaceOnUse" style="mask-type:luminance"><path fill="#fff" d="M912 0H0v612h912V0Z"/></mask><g mask="url(#a)"><path fill="url(#b)" d="M59.478 3.33c-11.4 20.66-21.88 41.84-31.02 63.59-9.13 21.75-16.94 44.07-22.84 66.91l-1.14 4.27-.97 4.31-1.95 8.63c-.71 2.86-1.14 5.78-1.69 8.68l-1.58 8.7c-.47 2.91-.81 5.84-1.22 8.76-.37 2.92-.85 5.84-1.13 8.77l-.77 8.81c-.25 2.94-.57 5.87-.61 8.82l-.32 8.84c-.04 1.47-.14 2.94-.12 4.42l.08 4.42.15 8.84c0 1.47.12 2.94.23 4.41l.32 4.41c.22 2.94.42 5.88.67 8.82l1.06 8.78 1.36 8.74 1.64 8.69c4.74 23.1 12.51 45.54 22.63 66.82 10.13 21.3 22.57 41.45 36.62 60.38 14.05 18.94 29.69 36.67 46.39 53.31 8.35 8.32 16.98 16.37 25.83 24.16 2.21 1.95 4.42 3.9 6.68 5.8 2.24 1.91 4.47 3.84 6.78 5.68l13.7 11.18c37.02 29.23 76.51 55.32 117.76 78.2 41.17 23.06 84.01 43.03 127.6 61.07 21.81 9 43.91 17.27 65.98 25.63 11.02 4.22 21.98 8.62 32.73 13.5 10.74 4.89 21.31 10.2 31.37 16.4 10.05 6.19 19.67 13.13 28.37 21.13 8.66 8.03 16.4 17.05 22.91 26.91 1.71 2.41 3.1 5.02 4.63 7.55.79 1.25 1.4 2.59 2.09 3.9l2.02 3.94 1.77 4.06c.57 1.36 1.23 2.68 1.69 4.09l1.5 4.16c.24.7.53 1.38.72 2.09l.61 2.13c3.34 11.31 4.83 23.19 4.17 34.97.63-11.79-.89-23.65-4.26-34.95l-.61-2.12c-.2-.71-.49-1.39-.73-2.09l-1.51-4.16c-.46-1.4-1.13-2.72-1.7-4.08l-1.78-4.05-2.03-3.93c-.69-1.3-1.31-2.64-2.1-3.89-1.53-2.52-2.93-5.12-4.64-7.52-6.52-9.82-14.28-18.81-22.94-26.8-8.7-7.96-18.33-14.86-28.37-21.01-10.05-6.18-20.61-11.47-31.34-16.35-10.74-4.86-21.7-9.25-32.72-13.46-22.07-8.34-44.19-16.59-66.01-25.58-43.62-18.01-86.5-37.95-127.72-60.98-41.31-22.85-80.85-48.92-117.94-78.16l-13.71-11.21c-2.3-1.85-4.53-3.78-6.78-5.7-2.26-1.9-4.47-3.86-6.68-5.81a579.399 579.399 0 0 1-25.84-24.22c-16.71-16.68-32.35-34.45-46.41-53.44-14.05-18.98-26.5-39.17-36.62-60.52-10.13-21.33-17.89-43.82-22.61-66.97l-1.63-8.71-1.35-8.75-1.05-8.79c-.25-2.94-.44-5.89-.66-8.83l-.32-4.42c-.11-1.47-.24-2.94-.23-4.42l-.14-8.86-.07-4.43c-.02-1.48.09-2.95.13-4.43l.33-8.85c1.16-23.6 5.21-46.99 11.15-69.82 5.96-22.85 13.84-45.16 23.03-66.89 9.2-21.73 19.74-42.89 31.2-63.51l-.04.03Z"/><path fill="url(#c)" d="M54.419 10.28C43.049 30.87 32.629 52 23.559 73.7c-9.06 21.7-16.78 43.98-22.56 66.77-.8 2.83-1.4 5.71-2.04 8.57l-1.92 8.6c-.64 2.87-1.07 5.78-1.61 8.67-.51 2.89-1.06 5.78-1.53 8.68l-1.16 8.74-.58 4.37c-.09.73-.21 1.45-.28 2.19l-.19 2.2-.74 8.78-.37 4.39-.15 4.4-.3 8.81-.07 2.2.04 2.2.09 4.41.17 8.81.66 8.79.33 4.39.17 2.2c.06.73.17 1.46.26 2.19.38 2.91.66 5.84 1.12 8.74.48 2.9.87 5.81 1.41 8.7.57 2.88 1.08 5.78 1.69 8.65 4.88 22.99 12.76 45.32 22.95 66.48 10.19 21.18 22.65 41.24 36.66 60.1 14.02 18.87 29.59 36.57 46.19 53.2 8.31 8.32 16.88 16.37 25.67 24.17 8.75 7.85 17.91 15.22 26.97 22.71 36.77 29.31 75.95 55.58 116.91 78.68 40.87 23.28 83.4 43.56 126.7 61.92 21.66 9.18 43.61 17.61 65.53 26.16 10.94 4.31 21.82 8.81 32.49 13.77 10.66 4.97 21.15 10.37 31.12 16.64 9.96 6.26 19.51 13.24 28.13 21.26 8.58 8.06 16.26 17.08 22.73 26.92 1.7 2.41 3.08 5.01 4.6 7.53.78 1.25 1.4 2.59 2.08 3.89l2.01 3.93 1.77 4.04c.57 1.36 1.23 2.67 1.69 4.07l1.5 4.15c.24.7.52 1.38.73 2.08l.61 2.12c3.35 11.27 4.87 23.1 4.24 34.86.6-11.75-.96-23.57-4.34-34.83l-.61-2.12c-.2-.71-.49-1.39-.73-2.08l-1.51-4.14c-.46-1.4-1.13-2.71-1.7-4.07l-1.78-4.03-2.02-3.92c-.69-1.3-1.31-2.63-2.09-3.88-1.52-2.51-2.91-5.11-4.62-7.51-6.48-9.8-14.18-18.79-22.76-26.81-8.63-7.99-18.17-14.93-28.13-21.15-9.96-6.24-20.43-11.63-31.09-16.58-10.67-4.95-21.54-9.43-32.48-13.73-21.92-8.53-43.89-16.94-65.57-26.1-43.33-18.32-85.9-38.57-126.82-61.83-41.01-23.08-80.25-49.33-117.08-78.64-36.69-29.42-70.79-62.45-98.87-100.3-14.02-18.91-26.48-39.01-36.67-60.24-10.2-21.22-18.06-43.59-22.94-66.63-.62-2.88-1.12-5.78-1.69-8.67-.54-2.89-.93-5.81-1.41-8.72-.46-2.91-.74-5.84-1.12-8.76-.08-.73-.19-1.46-.25-2.19l-.17-2.2-.33-4.4-.65-8.8-.17-8.83-.08-4.41-.04-2.21.08-2.21.31-8.82.15-4.41.37-4.4.75-8.8.19-2.2c.07-.73.19-1.46.28-2.19l.59-4.37 1.17-8.75c.48-2.9 1.03-5.79 1.54-8.69.55-2.89.99-5.8 1.62-8.67l1.93-8.61c.65-2.87 1.25-5.75 2.06-8.58 5.85-22.8 13.63-45.07 22.75-66.75 9.13-21.68 19.61-42.78 31.04-63.34l.03.02Z"/><path fill="url(#d)" d="M49.348 17.23c-11.33 20.53-21.7 41.6-30.7 63.25-8.99 21.65-16.61 43.88-22.27 66.63-5.73 22.72-9.21 46.03-10.08 69.44l-.27 8.78c-.01 2.93.11 5.86.16 8.78l.1 4.39c.04 1.46.02 2.93.18 4.39l.69 8.76c.9 11.68 2.78 23.27 5.27 34.71 5.04 22.88 13.04 45.08 23.28 66.14 10.24 21.08 22.69 41.05 36.67 59.84 28.01 37.63 61.87 70.58 98.31 100 18.22 14.75 37.11 28.65 56.47 41.86l7.29 4.91c2.43 1.63 4.84 3.3 7.33 4.85l14.81 9.48c9.99 6.12 19.97 12.28 30.16 18.07l7.61 4.41 7.69 4.26 7.69 4.25 3.85 2.12 3.89 2.05 15.56 8.19 15.7 7.91c21.01 10.4 42.3 20.23 63.81 29.56 21.5 9.35 43.32 17.94 65.08 26.68 10.87 4.4 21.67 9 32.26 14.04 10.59 5.05 20.98 10.54 30.87 16.87 9.88 6.32 19.34 13.35 27.89 21.4 8.5 8.09 16.13 17.11 22.55 26.92 1.69 2.4 3.07 5 4.58 7.51.78 1.25 1.39 2.58 2.07 3.88l2 3.92 1.76 4.03c.56 1.35 1.23 2.67 1.69 4.06l1.5 4.14c.24.69.52 1.37.73 2.07l.61 2.11c3.36 11.23 4.91 23.02 4.32 34.74.56-11.72-1.03-23.5-4.41-34.71l-.61-2.11c-.21-.7-.49-1.38-.73-2.07l-1.51-4.13c-.46-1.39-1.13-2.7-1.7-4.05l-1.77-4.02-2.01-3.91c-.68-1.3-1.3-2.63-2.08-3.87-1.52-2.51-2.9-5.09-4.59-7.49-6.44-9.79-14.08-18.77-22.59-26.82-8.55-8.01-18.01-15.01-27.9-21.29-9.88-6.3-20.26-11.78-30.84-16.81-10.59-5.03-21.38-9.61-32.25-14-21.76-8.71-43.6-17.29-65.12-26.62-21.52-9.32-42.83-19.13-63.86-29.52l-15.72-7.9-15.57-8.18-3.89-2.05-3.85-2.12-7.7-4.25-7.7-4.25-7.61-4.4c-10.2-5.79-20.19-11.94-30.2-18.06l-14.83-9.47c-2.49-1.55-4.9-3.22-7.34-4.85l-7.3-4.91c-19.39-13.21-38.32-27.09-56.56-41.85-36.45-29.49-70.32-62.51-98.34-100.22-13.99-18.84-26.43-38.86-36.68-59.98-10.24-21.11-18.23-43.35-23.26-66.28-2.49-11.46-4.37-23.08-5.25-34.78l-.68-8.77c-.15-1.46-.13-2.93-.17-4.4l-.09-4.4c-.05-2.93-.16-5.87-.15-8.8l.28-8.8c.9-23.45 4.4-46.78 10.17-69.52 5.73-22.75 13.41-44.98 22.47-66.61 9.06-21.63 19.49-42.68 30.88-63.17l-.05.04Z"/><path fill="url(#e)" d="M44.289 24.17c-11.3 20.46-21.62 41.48-30.55 63.08-8.92 21.6-16.45 43.79-21.99 66.49-5.53 22.7-8.89 45.94-9.59 69.29-.68 23.34 1.39 46.79 6.66 69.55 5.21 22.77 13.31 44.84 23.61 65.8 10.3 20.97 22.76 40.84 36.69 59.58 13.94 18.75 29.37 36.37 45.79 52.98 8.21 8.31 16.68 16.36 25.36 24.18 4.34 3.91 8.72 7.77 13.2 11.52 4.48 3.75 8.88 7.59 13.42 11.27 18.06 14.83 36.85 28.76 56.06 42.06l7.23 4.95c2.41 1.65 4.82 3.31 7.28 4.88l14.69 9.56 14.89 9.24 3.72 2.31 3.77 2.23 7.55 4.46c20.17 11.81 40.66 23.06 61.53 33.58 20.86 10.54 42 20.52 63.36 30.02 21.35 9.52 43.02 18.27 64.63 27.19 10.79 4.5 21.51 9.18 32.02 14.31 10.51 5.13 20.81 10.71 30.62 17.1 9.8 6.38 19.18 13.46 27.64 21.54 8.42 8.12 15.99 17.13 22.38 26.93 1.68 2.4 3.05 4.99 4.55 7.5.77 1.24 1.39 2.57 2.06 3.87l1.99 3.91 1.76 4.02c.56 1.35 1.23 2.66 1.69 4.05l1.5 4.12c.24.69.51 1.37.73 2.07l.61 2.11c3.36 11.19 4.95 22.94 4.39 34.62.53-11.68-1.09-23.42-4.48-34.59l-.61-2.1c-.22-.7-.49-1.37-.74-2.06l-1.51-4.11c-.46-1.39-1.13-2.69-1.69-4.04l-1.77-4.01-2-3.9c-.68-1.29-1.3-2.62-2.07-3.86-1.51-2.5-2.88-5.08-4.56-7.47-6.4-9.77-13.98-18.75-22.41-26.83-8.48-8.04-17.86-15.08-27.65-21.42-9.8-6.36-20.09-11.93-30.59-17.04-10.5-5.11-21.22-9.78-32.01-14.27-21.61-8.9-43.3-17.64-64.67-27.14-21.37-9.48-42.53-19.45-63.41-29.97-20.89-10.51-41.41-21.75-61.59-33.55l-7.56-4.45-3.78-2.23-3.73-2.31-14.91-9.23-14.71-9.55c-2.47-1.57-4.88-3.22-7.29-4.88l-7.24-4.95c-19.24-13.29-38.05-27.21-56.14-42.04-4.53-3.69-8.94-7.53-13.42-11.29-4.49-3.75-8.87-7.63-13.21-11.54a610.812 610.812 0 0 1-25.37-24.23c-16.43-16.65-31.86-34.3-45.8-53.09-13.94-18.78-26.4-38.7-36.7-59.71-10.3-21-18.4-43.12-23.59-65.94-5.26-22.81-7.31-46.3-6.61-69.68.72-23.38 4.1-46.66 9.67-69.37 5.61-22.71 13.2-44.9 22.18-66.48 8.99-21.59 19.37-42.57 30.72-63.01v-.03Z"/><path fill="url(#f)" d="M39.23 31.12C27.97 51.52 17.7 72.48 8.84 94.03 0 115.58-7.45 137.73-12.85 160.39c-5.32 22.67-8.59 45.86-9.09 69.14l-.11 4.36-.05 2.18.06 2.18.24 8.73.13 4.36.36 4.35.73 8.7c1.16 11.58 3.17 23.08 5.85 34.4 5.37 22.66 13.59 44.61 23.94 65.45 10.36 20.86 22.82 40.64 36.72 59.32 27.84 37.39 61.27 70.33 97.23 99.9l13.56 11.01c4.58 3.59 9.22 7.12 13.83 10.68 4.57 3.61 9.35 6.95 14.03 10.41l7.05 5.16 7.17 4.99 7.17 4.98 3.59 2.49 3.64 2.41 14.58 9.63 14.78 9.32c2.45 1.57 4.94 3.08 7.45 4.57l7.49 4.5c20.02 11.92 40.36 23.29 61.07 33.97 20.71 10.67 41.7 20.81 62.9 30.47 21.19 9.69 42.72 18.61 64.18 27.71 10.71 4.59 21.35 9.36 31.78 14.57 10.43 5.21 20.64 10.88 30.36 17.32 9.71 6.44 19.01 13.56 27.4 21.67 8.35 8.14 15.86 17.15 22.21 26.93 1.66 2.4 3.03 4.98 4.52 7.48.77 1.24 1.38 2.56 2.05 3.86l1.98 3.9 1.76 4 .87 2 .44 1 .37 1.03 1.49 4.11c.24.69.51 1.37.73 2.06l.61 2.1c3.37 11.15 4.99 22.85 4.47 34.5.49-11.65-1.16-23.34-4.56-34.47l-.62-2.1c-.22-.69-.49-1.37-.74-2.05l-1.5-4.1-.38-1.03-.44-1-.88-2-1.77-3.99-1.99-3.89c-.67-1.29-1.29-2.61-2.06-3.85-1.5-2.49-2.87-5.07-4.54-7.46-6.36-9.75-13.88-18.73-22.24-26.83-8.4-8.07-17.7-15.15-27.41-21.56-9.72-6.42-19.92-12.08-30.34-17.27-10.42-5.2-21.06-9.95-31.77-14.53-21.46-9.08-43.01-17.98-64.22-27.65-21.22-9.64-42.23-19.76-62.96-30.42-20.73-10.66-41.1-22.02-61.14-33.93l-7.5-4.5c-2.5-1.49-5-2.99-7.45-4.57l-14.8-9.31-14.6-9.63-3.65-2.41-3.59-2.49-7.18-4.98-7.18-4.99-7.06-5.15c-4.69-3.46-9.47-6.8-14.05-10.41-4.61-3.56-9.26-7.08-13.85-10.67l-13.58-11.01c-35.96-29.62-69.4-62.64-97.25-100.11-13.9-18.72-26.36-38.54-36.72-59.45-10.35-20.89-18.57-42.88-23.92-65.59-2.67-11.35-4.67-22.87-5.83-34.47l-.72-8.72-.36-4.36-.12-4.37-.23-8.74-.06-2.19.05-2.19.12-4.37c.53-23.32 3.82-46.53 9.18-69.22 5.47-22.67 12.98-44.81 21.88-66.35 8.92-21.54 19.24-42.47 30.56-62.84l.01.05Z"/><path fill="url(#g)" d="M34.157 38.07c-11.23 20.34-21.45 41.24-30.23 62.75-8.75 21.51-16.16 43.6-21.35 66.24-5.19 22.63-8.3 45.76-8.63 68.98l-.1 4.35c-.01 1.45.07 2.9.1 4.35l.26 8.7c.01 2.9.38 5.79.6 8.68l.75 8.67c1.3 11.53 3.37 22.98 6.13 34.25 5.53 22.55 13.86 44.37 24.26 65.12 10.41 20.75 22.87 40.45 36.74 59.06 27.78 37.25 60.96 70.22 96.69 99.85l13.45 11.06 13.73 10.72 3.43 2.68 3.5 2.59 7 5.19 7 5.18 7.12 5.02c9.43 6.78 19.11 13.19 28.76 19.65l14.66 9.4c2.43 1.59 4.92 3.09 7.39 4.6l7.43 4.55c19.86 12.03 40.06 23.52 60.62 34.35 20.56 10.81 41.39 21.09 62.45 30.91 21.04 9.86 42.42 18.94 63.72 28.22 10.63 4.69 21.2 9.54 31.54 14.83 10.35 5.28 20.47 11.04 30.11 17.55 9.63 6.5 18.85 13.66 27.16 21.8 8.28 8.16 15.73 17.17 22.04 26.94 1.65 2.39 3.01 4.97 4.5 7.46.76 1.24 1.38 2.56 2.05 3.85l1.98 3.89 1.75 3.99.87 2 .44 1 .37 1.02 1.49 4.1c.24.68.51 1.36.74 2.05l.61 2.09c3.38 11.11 5.03 22.77 4.54 34.39.46-11.62-1.23-23.27-4.63-34.36l-.62-2.09c-.23-.69-.5-1.36-.74-2.05l-1.5-4.09-.38-1.02-.44-1-.88-1.99-1.76-3.98-1.98-3.88c-.67-1.29-1.29-2.6-2.05-3.84-1.49-2.49-2.86-5.06-4.51-7.44-6.32-9.74-13.79-18.71-22.08-26.84-8.32-8.11-17.54-15.23-27.17-21.69-4.81-3.25-9.77-6.26-14.78-9.2-5.05-2.87-10.14-5.66-15.31-8.29-10.34-5.28-20.9-10.12-31.53-14.79-21.3-9.26-42.71-18.32-63.76-28.17-21.07-9.8-41.92-20.07-62.5-30.87-20.57-10.81-40.79-22.29-60.68-34.31l-7.44-4.54c-2.48-1.52-4.97-3.01-7.4-4.6l-14.68-9.39c-9.67-6.45-19.36-12.86-28.8-19.64l-7.13-5.02-7.01-5.18-7.01-5.19-3.5-2.59-3.44-2.68-13.75-10.71-13.47-11.06c-35.73-29.69-68.92-62.73-96.71-100.06-13.86-18.66-26.33-38.39-36.74-59.19-10.41-20.79-18.73-42.65-24.25-65.25a271.305 271.305 0 0 1-6.11-34.32l-.74-8.69c-.22-2.9-.58-5.79-.59-8.7l-.26-8.72c-.03-1.45-.11-2.91-.1-4.36l.1-4.36c.36-23.25 3.49-46.42 8.71-69.06 5.26-22.65 12.73-44.74 21.55-66.23 8.84-21.49 19.12-42.37 30.4-62.68v.04Z"/><path fill="url(#h)" d="M29.098 45.02c-11.2 20.28-21.37 41.13-30.07 62.59-4.41 10.71-8.28 21.63-11.88 32.63-.48 1.37-.9 2.75-1.3 4.14l-1.23 4.16-2.45 8.33-2.13 8.42c-.68 2.81-1.49 5.59-2.03 8.44-5.06 22.58-8 45.67-8.17 68.82-.24 23.15 2.61 46.31 8.29 68.74 5.67 22.44 14.12 44.15 24.58 64.78 10.46 20.65 22.93 40.25 36.75 58.81 27.71 37.13 60.67 70.09 96.15 99.81 17.63 15.02 36.03 29.1 54.82 42.63 9.35 6.82 18.97 13.28 28.55 19.78l14.55 9.49c4.86 3.15 9.81 6.15 14.71 9.23a1188.85 1188.85 0 0 0 60.16 34.73c20.41 10.95 41.09 21.38 61.99 31.36 20.88 10.03 42.12 19.26 63.26 28.73 10.55 4.78 21.04 9.72 31.3 15.09 10.27 5.36 20.3 11.21 29.86 17.77 9.54 6.56 18.69 13.76 26.92 21.93 8.21 8.18 15.6 17.19 21.87 26.94 1.64 2.39 3 4.96 4.47 7.45.76 1.24 1.37 2.55 2.04 3.84l1.97 3.87c.6 1.32 1.17 2.65 1.75 3.98l.87 1.99c.3.66.58 1.33.81 2.01l1.49 4.08.74 2.04.61 2.08c3.39 11.07 5.07 22.69 4.62 34.27.42-11.58-1.29-23.19-4.71-34.24l-.62-2.08-.74-2.04-1.5-4.07c-.24-.68-.52-1.35-.82-2.01l-.87-1.99c-.59-1.32-1.15-2.65-1.76-3.97l-1.98-3.87c-.67-1.28-1.28-2.59-2.04-3.83-1.48-2.48-2.84-5.05-4.49-7.43-6.28-9.72-13.69-18.7-21.91-26.84-8.24-8.14-17.39-15.3-26.93-21.82-9.55-6.53-19.57-12.36-29.84-17.71-10.26-5.36-20.74-10.29-31.29-15.05-21.14-9.45-42.4-18.67-63.3-28.68-20.92-9.96-41.62-20.38-62.04-31.31a1194.352 1194.352 0 0 1-60.22-34.69c-4.91-3.08-9.87-6.08-14.73-9.22l-14.57-9.48c-9.59-6.49-19.22-12.94-28.59-19.76-18.81-13.52-37.25-27.59-54.9-42.61-35.48-29.77-68.45-62.81-96.16-100.01-13.83-18.6-26.29-38.24-36.75-58.93-10.46-20.68-18.9-42.43-24.56-64.92-5.68-22.48-8.51-45.68-8.24-68.86.19-23.18 3.15-46.3 8.25-68.9.55-2.85 1.37-5.63 2.06-8.44l2.16-8.42 2.47-8.33 1.24-4.16c.4-1.39.83-2.78 1.31-4.14 3.63-11 7.53-21.92 11.97-32.62 8.77-21.45 18.99-42.28 30.24-62.52l-.01-.01Z"/><path fill="#EB5C2B" d="M82.53 638.81c-11.46-20.63-21.99-41.78-31.2-63.51-9.2-21.73-17.07-44.04-23.03-66.89-5.95-22.84-9.99-46.23-11.15-69.82l-.33-8.85c-.04-1.48-.15-2.95-.13-4.43l.07-4.43.14-8.86c-.01-1.48.12-2.95.23-4.42l.32-4.42c.22-2.94.41-5.89.66-8.83l1.05-8.79 1.35-8.75 1.63-8.71c4.73-23.15 12.49-45.64 22.61-66.97 10.12-21.35 22.58-41.54 36.62-60.52 14.05-18.98 29.7-36.76 46.41-53.44 8.36-8.34 16.98-16.41 25.84-24.22 2.22-1.95 4.43-3.91 6.68-5.81 2.24-1.92 4.48-3.85 6.78-5.7l13.71-11.21c37.08-29.23 76.63-55.3 117.94-78.16 41.22-23.03 84.1-42.98 127.72-60.98 21.83-8.98 43.94-17.24 66.01-25.58 11.02-4.21 21.97-8.6 32.72-13.46 10.73-4.87 21.29-10.17 31.34-16.35 10.05-6.15 19.67-13.05 28.37-21.01 8.67-7.99 16.42-16.98 22.94-26.8 1.71-2.4 3.11-5 4.64-7.52.79-1.25 1.41-2.59 2.1-3.89l2.03-3.93 1.78-4.05c.57-1.36 1.24-2.68 1.7-4.08l1.51-4.16c.24-.7.53-1.38.73-2.09l.61-2.12c3.37-11.29 4.9-23.16 4.26-34.95.67 11.79-.83 23.66-4.17 34.97l-.61 2.13c-.2.71-.49 1.39-.72 2.09l-1.5 4.16c-.46 1.41-1.12 2.73-1.69 4.09l-1.77 4.06-2.02 3.94c-.69 1.31-1.3 2.65-2.09 3.9-1.53 2.52-2.92 5.13-4.63 7.55-6.51 9.85-14.25 18.88-22.91 26.91-8.7 8-18.32 14.94-28.37 21.13-10.05 6.21-20.63 11.51-31.37 16.4-10.75 4.88-21.71 9.28-32.73 13.5-22.07 8.36-44.17 16.63-65.98 25.63-43.59 18.04-86.43 38.01-127.6 61.07-41.26 22.88-80.74 48.96-117.76 78.2l-13.7 11.18c-2.3 1.84-4.53 3.77-6.78 5.68-2.25 1.9-4.46 3.85-6.68 5.8a577.816 577.816 0 0 0-25.83 24.16c-16.7 16.64-32.34 34.38-46.39 53.31-14.04 18.93-26.49 39.08-36.62 60.38-10.13 21.28-17.9 43.72-22.63 66.82L21 376.85l-1.36 8.74-1.06 8.78c-.25 2.94-.44 5.88-.67 8.82l-.32 4.41c-.11 1.47-.24 2.94-.23 4.41l-.15 8.84-.08 4.42c-.02 1.47.09 2.95.12 4.42l.32 8.84c.04 2.95.37 5.88.61 8.82l.77 8.81c.29 2.93.76 5.85 1.13 8.77.41 2.92.76 5.85 1.22 8.76l1.58 8.7c.55 2.9.98 5.82 1.69 8.68l1.95 8.63.97 4.31 1.14 4.27c5.89 22.84 13.7 45.16 22.84 66.91s19.61 42.93 31.02 63.59l.04.03Z"/><path fill="#EB5C2B" d="M77.459 631.86c-11.42-20.56-21.9-41.66-31.04-63.34-9.13-21.68-16.91-43.95-22.75-66.75-.81-2.83-1.41-5.71-2.06-8.58l-1.93-8.61c-.64-2.87-1.08-5.78-1.62-8.67-.51-2.9-1.07-5.79-1.54-8.69l-1.17-8.75-.59-4.37c-.09-.73-.21-1.46-.28-2.19l-.19-2.2-.75-8.8-.37-4.4-.15-4.41-.31-8.82-.08-2.21.04-2.21.08-4.41.17-8.83.65-8.8.33-4.4.17-2.2c.06-.73.17-1.46.25-2.19.38-2.92.66-5.85 1.12-8.76.47-2.9.87-5.82 1.41-8.72.57-2.89 1.07-5.79 1.69-8.67 4.87-23.04 12.74-45.41 22.94-66.63 10.19-21.23 22.65-41.33 36.67-60.24 28.08-37.85 62.18-70.88 98.87-100.3 36.83-29.31 76.07-55.56 117.08-78.64 40.92-23.26 83.49-43.51 126.82-61.83 21.67-9.16 43.65-17.57 65.57-26.1 10.94-4.3 21.82-8.79 32.48-13.73 10.66-4.95 21.13-10.34 31.09-16.58 9.97-6.22 19.51-13.16 28.13-21.15 8.58-8.02 16.28-17.01 22.76-26.81 1.7-2.4 3.09-4.99 4.62-7.51.78-1.25 1.4-2.58 2.09-3.88l2.02-3.92 1.78-4.03c.57-1.35 1.24-2.67 1.7-4.07l1.51-4.14c.24-.69.53-1.37.73-2.08l.61-2.12c3.38-11.25 4.93-23.07 4.34-34.83.63 11.75-.89 23.58-4.24 34.86l-.61 2.12c-.2.71-.49 1.39-.73 2.08l-1.5 4.15c-.46 1.4-1.12 2.72-1.69 4.07l-1.77 4.04-2.01 3.93c-.68 1.3-1.3 2.64-2.08 3.89-1.52 2.52-2.9 5.12-4.6 7.53-6.46 9.84-14.15 18.86-22.73 26.92-8.62 8.03-18.16 15.01-28.13 21.26-9.97 6.27-20.45 11.67-31.12 16.64-10.67 4.96-21.55 9.46-32.49 13.77-21.92 8.55-43.87 16.98-65.53 26.16-43.3 18.36-85.83 38.64-126.7 61.92-40.96 23.1-80.15 49.37-116.91 78.68-9.06 7.49-18.22 14.87-26.97 22.71-8.79 7.8-17.36 15.85-25.67 24.17-16.61 16.63-32.18 34.33-46.19 53.2-14.01 18.86-26.47 38.92-36.66 60.1-10.2 21.17-18.07 43.49-22.95 66.48-.62 2.87-1.13 5.77-1.69 8.65-.54 2.89-.94 5.8-1.41 8.7-.46 2.9-.74 5.83-1.12 8.74-.08.73-.19 1.46-.26 2.19l-.17 2.2-.33 4.39-.66 8.79-.17 8.81-.09 4.41-.04 2.2.07 2.2.3 8.81.15 4.4.37 4.39.74 8.78.19 2.2c.07.73.19 1.46.28 2.19l.58 4.37 1.16 8.74c.47 2.9 1.02 5.79 1.53 8.68.54 2.89.98 5.8 1.61 8.67l1.92 8.6c.64 2.87 1.25 5.75 2.04 8.57 5.78 22.79 13.49 45.07 22.56 66.77 9.07 21.7 19.49 42.82 30.86 63.42l-.03.02Z"/><path fill="#EB5C2B" d="M72.398 624.91c-11.39-20.5-21.82-41.54-30.88-63.17-9.05-21.63-16.74-43.86-22.47-66.61-5.77-22.74-9.27-46.07-10.17-69.52l-.28-8.8c-.01-2.93.1-5.87.15-8.8l.09-4.4c.04-1.47.02-2.93.17-4.4l.68-8.77c.89-11.7 2.76-23.32 5.25-34.78 5.03-22.93 13.02-45.17 23.26-66.28 10.24-21.12 22.69-41.14 36.68-59.98 28.02-37.71 61.9-70.73 98.34-100.22 18.24-14.76 37.17-28.64 56.56-41.85l7.3-4.91c2.44-1.63 4.85-3.3 7.34-4.85l14.83-9.47c10.01-6.12 19.99-12.27 30.2-18.06l7.61-4.4 7.7-4.25 7.7-4.25 3.85-2.12 3.89-2.05 15.57-8.18 15.72-7.9c21.03-10.38 42.34-20.2 63.86-29.52 21.52-9.33 43.36-17.91 65.12-26.62 10.87-4.39 21.66-8.97 32.25-14 10.58-5.03 20.96-10.51 30.84-16.81 9.88-6.28 19.34-13.27 27.9-21.29 8.5-8.05 16.15-17.03 22.59-26.82 1.69-2.4 3.07-4.98 4.59-7.49.78-1.24 1.4-2.57 2.08-3.87l2.01-3.91 1.77-4.02c.57-1.35 1.24-2.66 1.7-4.05l1.51-4.13c.24-.69.52-1.37.73-2.07l.61-2.11c3.38-11.21 4.97-22.99 4.41-34.71.6 11.72-.96 23.51-4.32 34.74l-.61 2.11c-.21.7-.49 1.38-.73 2.07l-1.5 4.14c-.46 1.4-1.12 2.71-1.69 4.06l-1.76 4.03-2 3.92c-.68 1.3-1.3 2.63-2.07 3.88-1.51 2.51-2.89 5.11-4.58 7.51-6.42 9.82-14.05 18.83-22.55 26.92-8.55 8.05-18.01 15.08-27.89 21.4-9.89 6.33-20.28 11.82-30.87 16.87-10.59 5.04-21.39 9.64-32.26 14.04-21.77 8.74-43.58 17.33-65.08 26.68-21.51 9.34-42.8 19.17-63.81 29.56l-15.7 7.91-15.56 8.19-3.89 2.05-3.85 2.12-7.69 4.25-7.69 4.26-7.61 4.41c-10.19 5.79-20.17 11.95-30.16 18.07l-14.81 9.48c-2.48 1.55-4.89 3.22-7.33 4.85l-7.29 4.91c-19.36 13.21-38.25 27.11-56.47 41.86-36.44 29.43-70.3 62.37-98.31 100-13.98 18.8-26.43 38.77-36.67 59.84-10.24 21.06-18.24 43.26-23.28 66.14-2.5 11.44-4.38 23.03-5.27 34.71l-.69 8.76c-.15 1.46-.13 2.92-.18 4.39l-.1 4.39c-.05 2.93-.17 5.86-.16 8.78l.27 8.78c.87 23.41 4.36 46.72 10.08 69.44 5.66 22.75 13.28 44.99 22.27 66.63 9 21.65 19.37 42.72 30.7 63.25l.05.04Z"/><path fill="#EB5C2B" d="M67.328 617.97c-11.35-20.43-21.73-41.42-30.72-63.01-8.98-21.58-16.57-43.77-22.18-66.48-5.57-22.71-8.95-45.99-9.67-69.37-.7-23.37 1.35-46.87 6.61-69.68 5.19-22.82 13.3-44.94 23.59-65.94 10.3-21.01 22.76-40.93 36.7-59.71 13.94-18.79 29.37-36.45 45.8-53.09 8.22-8.32 16.69-16.4 25.37-24.23 4.34-3.92 8.72-7.79 13.21-11.54 4.48-3.76 8.89-7.6 13.42-11.29 18.09-14.83 36.91-28.75 56.14-42.04l7.24-4.95c2.41-1.65 4.82-3.31 7.29-4.88l14.71-9.55 14.91-9.23 3.73-2.31 3.78-2.23 7.56-4.45c20.19-11.79 40.7-23.04 61.59-33.55 20.88-10.52 42.04-20.49 63.41-29.97 21.36-9.5 43.06-18.24 64.67-27.14 10.79-4.49 21.51-9.15 32.01-14.27 10.5-5.11 20.79-10.68 30.59-17.04 9.8-6.34 19.18-13.38 27.65-21.42 8.43-8.08 16.01-17.06 22.41-26.83 1.68-2.39 3.06-4.97 4.56-7.47.77-1.24 1.39-2.57 2.07-3.86l2-3.9 1.77-4.01c.56-1.35 1.23-2.65 1.69-4.04l1.51-4.11c.24-.69.52-1.37.74-2.06l.61-2.1c3.39-11.17 5.01-22.91 4.48-34.59.56 11.68-1.03 23.43-4.39 34.62l-.61 2.11c-.22.7-.49 1.38-.73 2.07l-1.5 4.12c-.46 1.39-1.13 2.7-1.69 4.05l-1.76 4.02-1.99 3.91c-.68 1.3-1.29 2.63-2.06 3.87-1.5 2.51-2.87 5.1-4.55 7.5-6.38 9.8-13.95 18.81-22.38 26.93-8.47 8.08-17.85 15.16-27.65 21.54-9.8 6.39-20.11 11.97-30.62 17.1-10.51 5.13-21.23 9.81-32.02 14.31-21.61 8.92-43.28 17.67-64.63 27.19-21.36 9.5-42.5 19.48-63.36 30.02-20.87 10.52-41.36 21.78-61.53 33.58l-7.55 4.46-3.77 2.23-3.72 2.31-14.89 9.24-14.69 9.56c-2.46 1.57-4.87 3.22-7.28 4.88l-7.23 4.95c-19.21 13.3-38 27.23-56.06 42.06-4.53 3.68-8.94 7.52-13.42 11.27-4.48 3.74-8.86 7.61-13.2 11.52-8.68 7.82-17.15 15.87-25.36 24.18-16.42 16.61-31.85 34.23-45.79 52.98-13.93 18.74-26.39 38.61-36.69 59.58-10.3 20.96-18.41 43.02-23.61 65.8-5.27 22.76-7.34 46.21-6.66 69.55.69 23.35 4.06 46.59 9.59 69.29 5.54 22.7 13.07 44.9 21.99 66.49 8.93 21.6 19.25 42.62 30.55 63.08l.01-.03Z"/><path fill="#EB5C2B" d="M62.269 611.02c-11.32-20.37-21.65-41.3-30.56-62.84-8.91-21.53-16.41-43.68-21.88-66.35-5.36-22.69-8.64-45.9-9.18-69.22l-.12-4.37-.05-2.19.06-2.19.23-8.74.12-4.37.36-4.36.72-8.72c1.16-11.6 3.16-23.12 5.83-34.47 5.35-22.71 13.57-44.7 23.92-65.59 10.35-20.91 22.82-40.73 36.72-59.45 27.85-37.47 61.29-70.48 97.25-100.11l13.58-11.01c4.59-3.59 9.23-7.11 13.85-10.67 4.58-3.61 9.36-6.95 14.05-10.41l7.06-5.15 7.18-4.99 7.18-4.98 3.59-2.49 3.65-2.41 14.6-9.63 14.8-9.31c2.45-1.57 4.95-3.08 7.45-4.57l7.5-4.5c20.04-11.91 40.41-23.27 61.14-33.93 20.73-10.66 41.74-20.78 62.96-30.42 21.209-9.67 42.759-18.57 64.219-27.65 10.71-4.58 21.35-9.33 31.77-14.53 10.421-5.19 20.63-10.85 30.341-17.27 9.71-6.41 19.019-13.49 27.409-21.56 8.36-8.1 15.88-17.08 22.24-26.83 1.67-2.39 3.041-4.96 4.541-7.46.77-1.24 1.39-2.56 2.06-3.85l1.99-3.89 1.77-3.99.879-2 .44-1 .38-1.03 1.5-4.1c.24-.69.511-1.36.741-2.05l.62-2.1c3.4-11.13 5.05-22.82 4.56-34.47.53 11.65-1.101 23.35-4.471 34.5l-.609 2.1c-.22.69-.49 1.37-.73 2.06l-1.491 4.11-.37 1.03-.44 1-.87 2-1.76 4-1.98 3.9c-.669 1.29-1.289 2.62-2.049 3.86-1.49 2.5-2.861 5.08-4.521 7.48-6.34 9.78-13.849 18.8-22.209 26.93-8.39 8.11-17.69 15.23-27.4 21.67-9.72 6.45-19.93 12.12-30.36 17.32-10.43 5.21-21.071 9.98-31.781 14.57-21.46 9.1-42.99 18.02-64.18 27.71-21.2 9.66-42.189 19.79-62.899 30.47-20.71 10.67-41.06 22.05-61.07 33.97l-7.49 4.5c-2.5 1.49-4.99 3-7.45 4.57l-14.78 9.32-14.58 9.63-3.64 2.41-3.59 2.49-7.17 4.98-7.17 4.99-7.05 5.16c-4.68 3.46-9.46 6.8-14.03 10.41-4.61 3.56-9.24 7.08-13.83 10.68l-13.56 11.01c-35.96 29.56-69.39 62.51-97.23 99.9-13.9 18.68-26.36 38.46-36.72 59.32-10.35 20.85-18.57 42.79-23.94 65.45-2.68 11.33-4.68 22.82-5.85 34.4l-.73 8.7-.36 4.35-.13 4.36-.24 8.73-.06 2.18.05 2.18.11 4.36c.51 23.28 3.77 46.47 9.09 69.14 5.41 22.66 12.85 44.81 21.69 66.36 8.85 21.55 19.12 42.51 30.39 62.91l-.01.05Z"/><path fill="#EB5C2B" d="M57.208 604.07c-11.28-20.31-21.56-41.19-30.4-62.68-8.81-21.49-16.29-43.58-21.55-66.23-5.23-22.64-8.35-45.81-8.71-69.06l-.1-4.36c-.01-1.45.07-2.91.1-4.36l.26-8.72c.01-2.91.38-5.8.59-8.7l.74-8.69c1.29-11.56 3.36-23.02 6.11-34.32 5.51-22.6 13.84-44.47 24.25-65.25 10.41-20.8 22.87-40.53 36.74-59.19 27.78-37.33 60.98-70.37 96.71-100.06l13.47-11.06 13.75-10.71 3.44-2.68 3.5-2.59 7.01-5.19 7.01-5.18 7.13-5.02c9.44-6.78 19.14-13.19 28.8-19.64l14.68-9.39c2.43-1.59 4.92-3.08 7.4-4.6l7.44-4.54c19.89-12.02 40.11-23.5 60.68-34.31 20.58-10.8 41.43-21.07 62.5-30.87 21.05-9.84 42.46-18.9 63.76-28.17 10.63-4.67 21.19-9.51 31.53-14.79 5.18-2.62 10.27-5.42 15.31-8.29 5-2.94 9.97-5.95 14.78-9.2 9.63-6.47 18.86-13.59 27.17-21.69 8.29-8.12 15.75-17.1 22.08-26.84 1.66-2.39 3.02-4.95 4.51-7.44.76-1.24 1.38-2.55 2.05-3.84l1.98-3.88 1.76-3.98.88-1.99.44-1 .38-1.02 1.5-4.09c.25-.68.51-1.36.74-2.05l.62-2.09c3.41-11.09 5.09-22.74 4.63-34.36.49 11.61-1.16 23.28-4.54 34.39l-.61 2.09c-.23.69-.49 1.37-.74 2.05l-1.49 4.1-.37 1.02-.44 1-.87 2-1.75 3.99-1.98 3.89c-.67 1.29-1.28 2.61-2.05 3.85-1.49 2.5-2.85 5.07-4.5 7.46-6.3 9.77-13.76 18.78-22.04 26.94-8.31 8.14-17.53 15.3-27.16 21.8-9.64 6.51-19.76 12.26-30.11 17.55-10.35 5.3-20.91 10.15-31.54 14.83-21.3 9.29-42.69 18.36-63.72 28.22-21.05 9.82-41.89 20.1-62.45 30.91-20.55 10.83-40.75 22.31-60.62 34.35l-7.43 4.55c-2.48 1.52-4.96 3.01-7.39 4.6l-14.66 9.4c-9.65 6.46-19.34 12.87-28.76 19.65l-7.12 5.02-7 5.18-7 5.19-3.5 2.59-3.43 2.68-13.73 10.72-13.45 11.06c-35.72 29.63-68.91 62.6-96.69 99.85-13.86 18.62-26.33 38.31-36.74 59.06-10.41 20.74-18.74 42.56-24.26 65.12-2.76 11.27-4.84 22.72-6.13 34.25l-.75 8.67c-.22 2.89-.59 5.78-.6 8.68l-.26 8.7c-.03 1.45-.12 2.9-.1 4.35l.1 4.35c.34 23.22 3.44 46.35 8.63 68.98 5.19 22.64 12.6 44.74 21.35 66.24 8.78 21.51 19 42.41 30.23 62.75v.04Z"/><path fill="#EB5C2B" d="M52.138 597.12c-11.25-20.25-21.48-41.07-30.24-62.52-4.45-10.7-8.34-21.62-11.97-32.62a76.38 76.38 0 0 1-1.31-4.14l-1.24-4.16-2.47-8.33-2.16-8.42c-.69-2.81-1.51-5.6-2.06-8.44-5.1-22.6-8.06-45.72-8.25-68.9-.26-23.18 2.57-46.39 8.24-68.86 5.66-22.49 14.1-44.24 24.56-64.92 10.46-20.69 22.93-40.34 36.75-58.93 27.71-37.2 60.69-70.24 96.16-100.01 17.65-15.02 36.09-29.09 54.9-42.61 9.37-6.82 18.99-13.27 28.59-19.76l14.57-9.48c4.86-3.15 9.82-6.14 14.73-9.22 19.74-12.13 39.81-23.72 60.22-34.69 20.43-10.94 41.13-21.35 62.04-31.31 20.89-10.01 42.16-19.23 63.3-28.68 10.55-4.76 21.03-9.69 31.29-15.05 10.26-5.35 20.29-11.18 29.84-17.71 9.55-6.53 18.7-13.69 26.93-21.82 8.22-8.14 15.63-17.12 21.91-26.84 1.65-2.38 3.01-4.94 4.49-7.43.76-1.23 1.38-2.54 2.04-3.83l1.98-3.87c.61-1.31 1.17-2.65 1.76-3.97l.87-1.99c.3-.66.58-1.33.82-2.01l1.5-4.07.74-2.04.62-2.08c3.41-11.05 5.13-22.66 4.71-34.24.45 11.58-1.23 23.2-4.62 34.27l-.61 2.08-.74 2.04-1.49 4.08c-.23.69-.51 1.35-.81 2.01l-.87 1.99c-.58 1.32-1.15 2.66-1.75 3.98l-1.97 3.87c-.66 1.29-1.28 2.6-2.04 3.84-1.48 2.49-2.83 5.06-4.47 7.45-6.27 9.75-13.66 18.76-21.87 26.94-8.23 8.17-17.38 15.37-26.92 21.93-9.56 6.56-19.59 12.4-29.86 17.77-10.26 5.38-20.75 10.32-31.3 15.09-21.14 9.47-42.38 18.7-63.26 28.73-20.9 9.98-41.58 20.41-61.99 31.36-20.39 10.98-40.44 22.58-60.16 34.73-4.9 3.08-9.85 6.08-14.71 9.23l-14.55 9.49c-9.58 6.5-19.2 12.95-28.55 19.78-18.78 13.53-37.19 27.61-54.82 42.63-35.47 29.71-68.44 62.68-96.15 99.81-13.83 18.56-26.29 38.16-36.75 58.81-10.46 20.64-18.9 42.34-24.58 64.78-5.69 22.43-8.53 45.59-8.29 68.74.17 23.15 3.11 46.24 8.17 68.82.54 2.84 1.35 5.63 2.03 8.44l2.13 8.42 2.45 8.33 1.23 4.16c.4 1.39.82 2.78 1.3 4.14 3.6 11 7.46 21.93 11.88 32.63 8.71 21.46 18.88 42.32 30.07 62.59l.01-.01Z"/><path fill="url(#i)" d="M25.79 629.93c-2.81-2.52-5.61-5.04-8.42-7.56 156.889-181.33 156.889-453.28 0-634.62 2.81-2.52 5.61-5.04 8.42-7.56 160.629 185.65 160.629 464.08 0 649.74Z"/><path fill="#003F7D" d="M481-17.732c15.782-7.51 33.527-9.544 50.935-10.007 49.127-1.317 98.526 9.254 142.983 30.594 16.382 7.865 32.3 17.318 45.084 30.386 8.44 8.627 15.346 18.653 22.078 28.706 23.814 35.562 46.719 73.04 80.373 99.067 33.663 26.035 81.581 38.25 118.597 17.472 7.477-4.196 14.501-9.862 18.344-17.627 3.344-6.747 4.016-14.484 4.643-22.013 3.189-38.558 6.369-77.117 9.558-115.676.863-10.416 1.045-22.585-6.86-29.25-5.015-4.232-11.957-4.94-18.444-5.44-13.438-1.026-26.894-1.898-40.35-2.806A8266.752 8266.752 0 0 1 617.541-39" opacity=".1"/><path fill="url(#j)" d="m-14.2 707.51-94.771-85.14c156.89-181.34 121.89-457.96 0-634.62l94.77-85.14c198.99 229.99 198.99 574.91 0 804.89v.01Z"/></g><defs><linearGradient id="b" x1="25.995" x2="604.253" y1="275.364" y2="275.364" gradientUnits="userSpaceOnUse"><stop stop-color="#EB5C2B"/><stop offset="1" stop-color="#FF881A"/></linearGradient><linearGradient id="c" x1="21.73" x2="597.34" y1="282.613" y2="282.613" gradientUnits="userSpaceOnUse"><stop stop-color="#EB5C2B"/><stop offset="1" stop-color="#FF881A"/></linearGradient><linearGradient id="d" x1="17.617" x2="590.503" y1="289.836" y2="289.836" gradientUnits="userSpaceOnUse"><stop stop-color="#EB5C2B"/><stop offset="1" stop-color="#FF881A"/></linearGradient><linearGradient id="e" x1="13.451" x2="583.571" y1="297.13" y2="297.13" gradientUnits="userSpaceOnUse"><stop stop-color="#EB5C2B"/><stop offset="1" stop-color="#FF881A"/></linearGradient><linearGradient id="f" x1="9.151" x2="576.708" y1="304.316" y2="304.316" gradientUnits="userSpaceOnUse"><stop stop-color="#EB5C2B"/><stop offset="1" stop-color="#FF881A"/></linearGradient><linearGradient id="g" x1="4.968" x2="569.835" y1="311.579" y2="311.579" gradientUnits="userSpaceOnUse"><stop stop-color="#EB5C2B"/><stop offset="1" stop-color="#FF881A"/></linearGradient><linearGradient id="h" x1=".81" x2="562.964" y1="318.852" y2="318.852" gradientUnits="userSpaceOnUse"><stop stop-color="#EB5C2B"/><stop offset="1" stop-color="#FF881A"/></linearGradient><linearGradient id="i" x1="81.815" x2="81.815" y1="273.15" y2="629.93" gradientUnits="userSpaceOnUse"><stop stop-color="#FF8F00"/><stop offset="1" stop-color="#EB5C2B"/></linearGradient><linearGradient id="j" x1="13.036" x2="13.036" y1="2.15" y2="612.15" gradientUnits="userSpaceOnUse"><stop stop-color="#003F7D"/><stop offset="1" stop-color="#002347"/></linearGradient></defs></svg>