<svg xmlns="http://www.w3.org/2000/svg" width="346" height="604" fill="none"><mask id="a" width="346" height="604" x="0" y="0" maskUnits="userSpaceOnUse" style="mask-type:luminance"><path fill="#fff" d="M345.205 604V0H0v604h345.205Z"/></mask><g mask="url(#a)"><path fill="#EB5C2B" d="M78.511 39.38c17.304.723 34.577 2.227 51.707 4.779 17.127 2.558 34.108 6.17 50.695 11.184 16.578 5.016 32.768 11.438 47.981 19.739l5.667 3.18c.942.54 1.905 1.035 2.823 1.613l2.747 1.74 5.494 3.477c.93.56 1.801 1.204 2.679 1.835l2.644 1.892c1.757 1.262 3.531 2.51 5.276 3.791l5.101 4.02 4.961 4.193 4.829 4.353c12.683 11.817 23.792 25.278 33.272 39.772 9.492 14.501 17.362 30.023 23.869 46.07 6.504 16.053 11.644 32.648 15.689 49.486a420.025 420.025 0 0 1 5.27 25.436c.371 2.135.752 4.267 1.08 6.402.345 2.136.695 4.277.973 6.423l1.769 12.868c4.104 34.385 5.283 69.107 3.779 103.701-1.363 34.604-5.29 69.067-10.721 103.247-2.736 17.095 29.55 107.486 26.322 124.487-1.584 8.506-3.028 17.037-4.101 25.623-1.059 8.577-1.784 17.212-1.762 25.865.002 8.641.639 17.301 2.292 25.79 1.683 8.482 4.344 16.771 7.996 24.608.847 1.988 1.939 3.859 2.931 5.781.48.972 1.082 1.873 1.632 2.802l1.683 2.774 1.854 2.664c.633.877 1.203 1.801 1.903 2.624l2.027 2.537c.346.418.661.86 1.029 1.256l1.093 1.193c5.778 6.429 12.624 11.928 20.251 16.039-7.638-4.092-14.495-9.573-20.298-15.99l-1.1-1.197c-.368-.397-.682-.838-1.032-1.25l-2.031-2.53c-.706-.828-1.28-1.746-1.913-2.623l-1.864-2.661-1.694-2.771c-.556-.933-1.161-1.828-1.641-2.8-.992-1.922-2.094-3.79-2.954-5.786-3.675-7.842-6.365-16.14-8.077-24.631-1.677-8.505-2.339-17.18-2.367-25.836-.04-8.665.693-17.313 1.743-25.904 1.061-8.593 2.502-17.134 4.079-25.644 3.216-17.008-29.08-107.397-26.364-124.487 5.394-34.177 9.294-68.623 10.619-103.206 1.472-34.571.26-69.253-3.873-103.604l-1.755-12.85c-.271-2.143-.626-4.277-.96-6.416-.328-2.134-.703-4.263-1.074-6.399a423.225 423.225 0 0 0-5.236-25.406c-4.024-16.816-9.143-33.39-15.615-49.424-6.476-16.028-14.325-31.528-23.782-46.016-9.444-14.481-20.518-27.929-33.17-39.727l-4.812-4.351-4.951-4.196-5.092-4.022c-1.744-1.282-3.512-2.526-5.265-3.794l-2.638-1.888c-.879-.631-1.749-1.275-2.673-1.831l-5.477-3.477-2.737-1.741c-.913-.575-1.881-1.072-2.813-1.616l-5.657-3.182c-1.862-1.104-3.823-2.019-5.756-2.993l-5.81-2.89c-1.945-.94-3.953-1.763-5.923-2.648-1.985-.861-3.954-1.763-5.952-2.589l-6.051-2.34c-2.027-.766-4.019-1.614-6.082-2.264l-6.149-2.082-3.07-1.042-3.11-.92c-16.554-5.055-33.518-8.708-50.635-11.312-17.116-2.603-34.385-4.156-51.688-4.922l-.034.013Z"/><path fill="#EB5C2B" d="M84.804 38.866c17.244.721 34.467 2.238 51.539 4.814 17.069 2.583 33.99 6.236 50.5 11.306 2.082.576 4.115 1.303 6.161 1.994l6.129 2.087c2.042.698 4.032 1.536 6.048 2.304 2.011.79 4.035 1.546 6.03 2.362l5.926 2.616 2.962 1.302c.492.224.995.428 1.479.663l1.45.723 5.796 2.898 2.897 1.452 2.818 1.594 5.64 3.18 1.415.796 1.368.87 2.73 1.738 5.464 3.485 5.26 3.774 2.629 1.89 1.312.948c.434.317.849.665 1.275.995 1.683 1.355 3.41 2.651 5.056 4.052 1.635 1.404 3.31 2.772 4.919 4.219 1.591 1.463 3.215 2.885 4.781 4.375 12.56 11.863 23.552 25.347 32.932 39.848 9.391 14.499 17.204 29.986 23.675 45.994 12.946 32.053 20.57 66.027 24.942 100.241 4.249 34.259 5.66 68.856 4.409 103.347-1.105 34.503-4.725 68.888-9.845 103.009-2.02 13.461-4.407 26.863-6.823 40.258-.647 3.585 4.174 6.415 3.53 10-1.497 8.49 116.307-15.164 115.318-6.604-.982 8.564-1.616 17.178-1.523 25.797.077 8.618.77 17.243 2.472 25.694 1.736 8.437 4.416 16.695 8.071 24.499.852 1.982 1.941 3.843 2.933 5.764.484.966 1.079 1.863 1.629 2.792l1.681 2.764 1.841 2.656c.627.873 1.197 1.798 1.897 2.621l2.014 2.529c.34.414.655.856 1.023 1.253l1.094 1.192c5.749 6.42 12.556 11.912 20.144 16.043-7.597-4.102-14.422-9.579-20.201-15.991l-1.094-1.193c-.368-.397-.683-.839-1.023-1.253l-2.024-2.526c-.7-.824-1.274-1.742-1.901-2.615l-1.851-2.653-1.691-2.762c-.554-.923-1.155-1.823-1.639-2.79-.996-1.915-2.096-3.773-2.954-5.759-3.687-7.807-6.39-16.07-8.151-24.523-1.727-8.466-2.445-17.106-2.54-25.735-.109-8.638.523-17.261 1.496-25.839.98-8.574-116.829 15.076-115.339 6.582 3.039-16.987.695-33.19 3.241-50.256 5.083-34.117 8.669-68.488 9.742-102.968 1.219-34.468-.223-69.04-4.499-103.256-1.221-8.535-2.334-17.09-3.893-25.565a429.65 429.65 0 0 0-5.304-25.309c-4.052-16.756-9.172-33.271-15.622-49.257-6.444-15.983-14.233-31.455-23.592-45.935-9.348-14.482-20.309-27.947-32.834-39.797-1.56-1.486-3.18-2.915-4.769-4.367-1.602-1.444-3.271-2.808-4.906-4.211-1.64-1.398-3.367-2.694-5.044-4.045-.426-.33-.841-.678-1.271-1l-1.312-.949-2.622-1.886-5.251-3.776-5.451-3.478-2.726-1.744-1.362-.867-1.404-.797-5.631-3.184-2.812-1.59-2.89-1.448-5.78-2.896-1.45-.723c-.484-.236-.987-.44-1.479-.663l-2.958-1.309-5.916-2.618c-1.995-.816-4.015-1.578-6.02-2.364-2.016-.768-4.006-1.606-6.044-2.31l-6.119-2.09c-2.042-.697-4.079-1.418-6.147-2.002-16.481-5.104-33.381-8.805-50.44-11.433-17.058-2.628-34.27-4.19-51.52-4.958l-.001-.026Z"/><path fill="#EB5C2B" d="M91.092 38.36c17.195.717 34.361 2.241 51.372 4.849 17.007 2.613 33.868 6.308 50.305 11.427 16.446 5.091 32.392 11.828 47.418 20.238l5.617 3.192c1.838 1.114 3.637 2.308 5.452 3.46l2.72 1.74c.905.588 1.827 1.134 2.69 1.79l5.23 3.782c6.984 5.033 13.543 10.65 19.765 16.592 12.43 11.922 23.294 25.431 32.59 39.915 9.302 14.488 17.07 29.939 23.509 45.901 12.881 31.961 20.582 65.794 25.094 99.878 2.257 17.061 3.7 34.216 4.546 51.403l.279 6.446c.087 2.151.21 4.298.227 6.449l.251 12.902c-.001 8.605.028 17.203-.256 25.807l-.159 6.445-.287 6.444-.287 6.444-.147 3.22-.206 3.218-.84 12.873-1.072 12.858c-1.553 17.13-3.564 34.221-5.968 51.253-2.398 17.035-5.388 33.983-8.266 50.931-1.413 8.481-2.677 16.985-3.582 25.535-.902 8.545-1.445 17.136-1.283 25.729.149 8.585.903 17.178 2.647 25.603 1.785 8.399 4.479 16.621 8.142 24.397.856 1.976 1.943 3.826 2.932 5.738.478.962 1.073 1.859 1.627 2.782l1.678 2.754 1.839 2.645c.627.873 1.191 1.794 1.885 2.614l2.007 2.525c.341.414.659.849 1.017 1.249l1.087 1.189c5.725 6.404 12.491 11.906 20.043 16.04-7.567-4.109-14.351-9.596-20.096-15.996l-1.087-1.189c-.358-.399-.677-.834-1.017-1.248l-2.017-2.523c-.701-.824-1.268-1.738-1.895-2.611l-1.849-2.643-1.689-2.752c-.553-.922-1.149-1.819-1.637-2.779-.993-1.906-2.092-3.764-2.948-5.74-3.69-7.774-6.41-15.996-8.22-24.41-1.767-8.429-2.546-17.038-2.72-25.639-.177-8.61.364-17.211 1.257-25.77.899-8.555 2.154-17.072 3.561-25.557 2.863-16.966 5.835-33.899 8.213-50.929 2.388-17.033 4.385-34.115 5.924-51.236l1.058-12.851.83-12.869.206-3.218.147-3.221.283-6.437.277-6.442.153-6.449c.276-8.591.241-17.193.234-25.785l-.265-12.894c-.021-2.145-.144-4.292-.23-6.442l-.283-6.44c-.858-17.168-2.328-34.306-4.587-51.35-4.474-34.062-12.133-67.852-24.968-99.776-6.418-15.941-14.154-31.372-23.425-45.841-9.264-14.465-20.1-27.965-32.495-39.874-6.205-5.941-12.742-11.552-19.713-16.578l-5.22-3.784c-.857-.652-1.779-1.198-2.68-1.792l-2.71-1.742c-1.815-1.153-3.604-2.349-5.436-3.46l-5.6-3.19c-14.989-8.414-30.919-15.15-47.334-20.263-16.41-5.164-33.251-8.906-50.241-11.561-17-2.653-34.162-4.226-51.353-4.993l-.044.016Z"/><path fill="#EB5C2B" d="M97.378 37.843c17.136.715 34.251 2.252 51.21 4.888 16.949 2.638 33.747 6.38 50.113 11.56 16.351 5.204 32.22 11.997 47.133 20.492 14.899 8.504 28.827 18.779 41.093 30.798 12.3 11.979 23.044 25.517 32.252 39.991 9.21 14.483 16.911 29.902 23.332 45.81 6.426 15.912 11.575 32.323 15.703 48.971a448.213 448.213 0 0 1 5.456 25.145c.793 4.215 1.539 8.437 2.167 12.681.639 4.242 1.355 8.47 1.931 12.717 2.358 16.993 3.868 34.095 4.826 51.212l.327 6.424c.11 2.139.227 4.282.264 6.429l.347 12.858.071 12.861.018 3.217-.051 3.219-.109 6.433c-.348 17.144-1.158 34.282-2.575 51.374-1.408 17.09-3.268 34.144-5.514 51.143-2.231 17-5.067 33.922-7.768 50.848-1.32 8.47-2.507 16.96-3.322 25.489-.82 8.525-1.273 17.095-1.043 25.66.217 8.558 1.033 17.121 2.824 25.497 1.831 8.366 4.551 16.545 8.218 24.288.853 1.965 1.94 3.816 2.931 5.711.481.956 1.077 1.853 1.624 2.772l1.676 2.744 1.833 2.642c.63.867 1.188 1.783 1.882 2.603l1.995 2.517c.34.415.659.85 1.006 1.252l1.082 1.185c5.695 6.395 12.425 11.901 19.94 16.038-7.527-4.119-14.274-9.609-19.994-15.993l-1.087-1.189c-.354-.406-.677-.835-1.017-1.249l-2.005-2.515c-.694-.82-1.258-1.74-1.888-2.607l-1.843-2.64-1.686-2.741c-.554-.923-1.153-1.813-1.635-2.77-.997-1.899-2.094-3.747-2.953-5.716-3.693-7.742-6.436-15.926-8.292-24.308-1.816-8.391-2.657-16.969-2.899-25.542-.249-8.577.205-17.163 1.017-25.702.812-8.539 1.987-17.037 3.3-25.51 2.689-16.935 5.508-33.842 7.722-50.843 2.23-17 4.075-34.046 5.463-51.131 1.404-17.083 2.199-34.212 2.534-51.348l.098-6.43.048-3.212-.022-3.212-.084-12.852-.361-12.849c-.042-2.14-.152-4.28-.268-6.423l-.331-6.418c-.972-17.108-2.5-34.195-4.87-51.17-.569-4.242-1.285-8.471-1.918-12.709-.626-4.234-1.372-8.455-2.158-12.667a442.699 442.699 0 0 0-5.429-25.12c-4.113-16.629-9.237-33.026-15.638-48.922-6.4-15.887-14.069-31.286-23.254-45.754-9.179-14.465-19.885-27.98-32.156-39.95-12.232-12.006-26.121-22.274-40.994-30.78-14.883-8.502-30.723-15.286-47.052-20.512-16.333-5.219-33.114-9.002-50.046-11.682-16.942-2.677-34.053-4.263-51.189-5.021l.015.018Z"/><path fill="#EB5C2B" d="M103.667 37.336c17.087.712 34.145 2.257 51.042 4.924 16.891 2.663 33.63 6.445 49.917 11.697 16.257 5.328 32.044 12.157 46.851 20.742l2.782 1.597 1.39.806 1.348.876 5.384 3.488 2.69 1.747 2.592 1.894 5.183 3.787c6.819 5.164 13.265 10.824 19.349 16.837 12.17 12.037 22.79 25.594 31.906 40.064 9.128 14.476 16.763 29.863 23.161 45.723 12.796 31.763 20.66 65.317 25.443 99.154l1.694 12.71c.49 4.245.917 8.495 1.377 12.748.507 4.247.768 8.516 1.138 12.775l.522 6.388.375 6.401.369 6.398.184 3.199.112 3.206.439 12.82.162 12.823c.045 2.134.033 4.276.009 6.41l-.054 6.415c-.216 17.096-.903 34.188-2.166 51.238-1.262 17.049-2.97 34.067-5.059 51.033-2.067 16.971-4.745 33.86-7.277 50.762-1.233 8.454-2.333 16.929-3.066 25.438-.741 8.506-1.106 17.06-.804 25.592.295 8.528 1.163 17.062 3.004 25.4 1.87 8.33 4.613 16.471 8.282 24.181.857 1.96 1.942 3.8 2.933 5.695.481.957 1.07 1.85 1.621 2.763l1.674 2.733 1.82 2.634.915 1.316.458.658.499.632 1.993 2.507c.34.415.656.84 1 1.248l1.077 1.191c5.667 6.386 12.354 11.892 19.835 16.043-7.496-4.126-14.197-9.623-19.888-15.998l-1.081-1.185c-.348-.402-.67-.831-1.01-1.245l-2.003-2.505-.503-.626-.458-.658-.919-1.309-1.83-2.632-1.684-2.731c-.551-.913-1.146-1.81-1.632-2.76-.994-1.889-2.085-3.733-2.952-5.69-3.696-7.709-6.468-15.859-8.357-24.201-1.865-8.353-2.762-16.896-3.076-25.436-.317-8.55.042-17.107.78-25.623.731-8.52 1.818-17.002 3.045-25.46 2.519-16.909 5.178-33.794 7.224-50.76 2.069-16.961 3.763-33.97 5.005-51.015 1.249-17.041 1.916-34.128 2.114-51.209l.05-6.409c.025-2.134.032-4.27-.009-6.41l-.176-12.814-.447-12.807-.115-3.2-.185-3.199-.372-6.392-.379-6.395-.532-6.386c-.374-4.252-.635-8.521-1.145-12.761-.464-4.247-.895-8.491-1.392-12.74l-1.701-12.698c-4.739-33.81-12.569-67.335-25.319-99.061-6.374-15.845-13.987-31.209-23.08-45.673-9.091-14.454-19.68-27.992-31.811-40.023-6.067-6.012-12.495-11.66-19.297-16.823l-5.167-3.785-2.586-1.89-2.68-1.75-5.373-3.49-1.342-.872-1.384-.803-2.772-1.6c-14.77-8.588-30.537-15.421-46.766-20.767-16.259-5.285-32.974-9.105-49.851-11.82-16.88-2.708-33.934-4.302-51.021-5.056l-.027-.026Z"/><path fill="#EB5C2B" d="M109.955 36.83c17.034.713 34.042 2.27 50.881 4.962 16.827 2.71 33.521 6.482 49.715 11.858 16.177 5.39 31.877 12.303 46.571 20.974l2.768 1.606c.912.548 1.795 1.157 2.692 1.73l5.359 3.5c1.818 1.12 3.486 2.457 5.221 3.698l5.158 3.788c6.743 5.23 13.125 10.91 19.147 16.955 12.04 12.095 22.543 25.675 31.567 40.14 9.036 14.472 16.618 29.818 22.991 45.636 12.735 31.666 20.709 65.081 25.618 98.798l1.767 12.66 1.441 12.701.361 3.178.281 3.181.566 6.372.559 6.368.413 6.382c.63 8.501.93 17.023 1.27 25.535l.258 12.778c.065 2.129.045 4.257.047 6.39l-.006 6.393c-.09 17.044-.644 34.088-1.752 51.095-1.118 17.009-2.671 33.985-4.602 50.918-1.899 16.936-4.423 33.799-6.775 50.673-1.146 8.438-2.159 16.898-2.812 25.388-.343 4.243-.538 8.499-.671 12.751-.074 4.254-.092 8.515.101 12.768.364 8.501 1.288 17.001 3.177 25.3 1.91 8.294 4.676 16.397 8.35 24.085.861 1.953 1.943 3.784 2.932 5.669.485.95 1.068 1.839 1.619 2.752l1.671 2.723 1.818 2.624.909 1.312.457.658.494.628 1.986 2.504c.33.416.656.839 1 1.247l1.071 1.188c5.638 6.377 12.288 11.886 19.739 16.044-7.456-4.136-14.131-9.634-19.792-15.999l-1.075-1.182c-.344-.408-.67-.831-1-1.247l-1.997-2.501-.496-.622-.458-.658-.919-1.31-1.828-2.621-1.678-2.728c-.551-.912-1.144-1.799-1.625-2.755-.995-1.889-2.083-3.724-2.948-5.671-3.704-7.68-6.489-15.795-8.428-24.098-1.914-8.314-2.867-16.823-3.25-25.335-.385-8.523-.11-17.055.541-25.555.644-8.504 1.651-16.967 2.791-25.409 2.338-16.882 4.849-33.736 6.728-50.668 1.911-16.928 3.454-33.901 4.558-50.902 1.087-17.001 1.633-34.033 1.703-51.073l-.004-6.39c-.002-2.133.015-4.255-.051-6.384l-.272-12.769c-.35-8.51-.653-17.026-1.291-25.514l-.417-6.376-.563-6.362-.569-6.365-.282-3.181-.365-3.172-1.454-12.693-1.775-12.647c-4.875-33.687-12.809-67.07-25.495-98.705-6.351-15.796-13.904-31.133-22.909-45.586-8.999-14.449-19.471-28.01-31.481-40.096-6-6.04-12.372-11.722-19.096-16.941l-5.141-3.787c-1.725-1.243-3.393-2.58-5.205-3.696l-5.347-3.492c-.896-.574-1.77-1.185-2.685-1.727l-2.762-1.602c-14.667-8.672-30.335-15.583-46.49-20.994-16.162-5.416-32.835-9.235-49.645-11.987-16.828-2.737-33.826-4.34-50.86-5.095l-.025-.016Z"/><path fill="#EB5C2B" d="M116.247 36.316c16.985.71 33.937 2.275 50.72 5.001 8.403 1.31 16.729 3.055 25.005 4.992a56.13 56.13 0 0 1 3.094.765l3.079.816 6.161 1.641 6.098 1.87c2.023.644 4.084 1.199 6.073 1.941 16.102 5.457 31.71 12.451 46.295 21.201 14.611 8.707 28.059 19.359 39.956 31.504 11.913 12.147 22.299 25.75 31.241 40.208 8.949 14.461 16.477 29.783 22.825 45.543 12.68 31.572 20.739 64.849 25.797 98.434 2.646 16.791 4.395 33.712 5.658 50.655.682 8.472 1.037 16.959 1.425 25.449l.357 12.744c.111 4.246.084 8.494.133 12.744.036 16.993-.392 33.985-1.338 50.953-.972 16.969-2.38 33.904-4.15 50.799-1.731 16.901-4.102 33.737-6.279 50.58-1.06 8.423-1.985 16.866-2.558 25.337-.578 8.467-.769 16.973-.337 25.447s1.412 16.939 3.351 25.199c1.949 8.258 4.734 16.331 8.415 23.979.858 1.943 1.94 3.774 2.933 5.653.479.946 1.062 1.835 1.616 2.741l1.665 2.72c.587.883 1.211 1.746 1.812 2.62l.913 1.306c.298.44.61.872.944 1.282l1.974 2.496.994 1.244 1.065 1.184c5.612 6.361 12.222 11.88 19.633 16.048-7.422-4.149-14.054-9.647-19.686-16.004l-1.069-1.177-.994-1.244-1.984-2.493a15.05 15.05 0 0 1-.948-1.276l-.913-1.306c-.604-.868-1.225-1.737-1.822-2.618l-1.668-2.713c-.555-.907-1.138-1.796-1.624-2.746-.992-1.879-2.084-3.707-2.952-5.647-3.704-7.654-6.516-15.725-8.494-23.992-1.964-8.276-2.968-16.756-3.423-25.235-.447-8.492-.263-17.002.307-25.483.56-8.478 1.484-16.932 2.536-25.358 2.165-16.851 4.519-33.673 6.233-50.575 1.754-16.896 3.141-33.826 4.1-50.786a875.557 875.557 0 0 0 1.29-50.931c-.053-4.244-.036-8.49-.147-12.736l-.371-12.735c-.402-8.481-.757-16.968-1.453-25.432-1.281-16.928-3.047-33.834-5.701-50.612-5.02-33.562-13.039-66.806-25.676-98.352-6.325-15.755-13.825-31.05-22.749-45.497-8.917-14.442-19.272-28.026-31.146-40.166-11.864-12.143-25.277-22.782-39.862-31.49-14.559-8.75-30.14-15.746-46.214-21.22-1.985-.749-4.042-1.31-6.062-1.96l-6.087-1.888-6.153-1.655-3.075-.822a54.331 54.331 0 0 0-3.09-.77c-8.265-1.957-16.586-3.724-24.977-5.053-16.77-2.761-33.723-4.38-50.698-5.134l.002.01Z"/><path fill="#EB5C2B" d="M256.376 64.38c-17.303.723-34.576 2.227-51.707 4.779-17.126 2.558-34.107 6.17-50.695 11.184-16.577 5.017-32.768 11.439-47.981 19.739l-5.667 3.18c-.942.541-1.904 1.035-2.823 1.614l-2.747 1.739-5.493 3.477c-.93.56-1.801 1.204-2.68 1.835l-2.644 1.892c-1.756 1.262-3.53 2.51-5.275 3.791l-5.102 4.021-4.96 4.193-4.83 4.352c-12.682 11.818-23.792 25.278-33.271 39.772-9.492 14.501-17.362 30.023-23.87 46.07-6.503 16.053-11.643 32.649-15.688 49.486a420.786 420.786 0 0 0-5.27 25.436c-.371 2.135-.752 4.268-1.08 6.403-.345 2.136-.696 4.276-.973 6.423l-1.77 12.867c-4.103 34.386-5.283 69.107-3.779 103.702 1.363 34.603 5.29 69.066 10.721 103.247 2.736 17.095 6.03 34.089 9.258 51.09 1.583 8.506 3.027 17.037 4.1 25.623 1.06 8.577 1.784 17.212 1.763 25.865-.003 8.642-.64 17.301-2.292 25.79-1.683 8.482-4.344 16.771-7.996 24.608-.848 1.989-1.94 3.859-2.931 5.781-.48.973-1.082 1.873-1.632 2.802l-1.683 2.774-1.854 2.664c-.633.877-1.203 1.801-1.904 2.625l-2.026 2.536c-.346.418-.661.86-1.03 1.257l-1.093 1.192c-5.778 6.429-12.623 11.928-20.25 16.039 7.638-4.092 14.495-9.573 20.297-15.99l1.1-1.197c.368-.396.683-.838 1.033-1.25l2.03-2.53c.707-.827 1.28-1.746 1.914-2.623l1.864-2.66 1.693-2.772c.556-.933 1.162-1.827 1.642-2.8.992-1.921 2.094-3.79 2.954-5.786 3.674-7.842 6.364-16.14 8.076-24.631 1.678-8.505 2.34-17.179 2.367-25.836.04-8.665-.692-17.312-1.742-25.904-1.061-8.593-2.502-17.134-4.08-25.644-3.215-17.008-6.499-34-9.214-51.091-5.395-34.176-9.294-68.622-10.62-103.206-1.472-34.571-.259-69.252 3.874-103.604l1.754-12.85c.271-2.143.626-4.277.96-6.415.329-2.135.703-4.264 1.074-6.399a423.56 423.56 0 0 1 5.237-25.406c4.024-16.817 9.142-33.39 15.615-49.425 6.476-16.028 14.324-31.528 23.781-46.016 9.445-14.481 20.519-27.929 33.17-39.727l4.813-4.351 4.951-4.195 5.091-4.023c1.745-1.281 3.513-2.525 5.266-3.794l2.638-1.888c.878-.631 1.749-1.275 2.673-1.831l5.477-3.476 2.737-1.742c.912-.575 1.88-1.072 2.813-1.616l5.657-3.182c1.862-1.104 3.823-2.018 5.755-2.993l5.811-2.89c1.945-.94 3.953-1.762 5.923-2.648 1.985-.86 3.953-1.763 5.951-2.589l6.052-2.34c2.026-.765 4.019-1.614 6.081-2.264l6.15-2.082 3.07-1.042 3.109-.92c16.555-5.054 33.519-8.708 50.635-11.311 17.117-2.604 34.385-4.157 51.688-4.923l.034.014Z"/><path fill="#EB5C2B" d="M250.084 63.866c-17.245.721-34.467 2.237-51.54 4.814-17.068 2.583-33.99 6.236-50.5 11.306-2.082.576-4.115 1.303-6.16 1.994l-6.13 2.087c-2.041.698-4.032 1.536-6.048 2.304-2.011.79-4.034 1.546-6.03 2.361l-5.926 2.616-2.962 1.303c-.491.223-.994.427-1.478.663l-1.45.723-5.797 2.898-2.896 1.452-2.819 1.593-5.64 3.181-1.414.796-1.369.87-2.73 1.738-5.463 3.485-5.26 3.774-2.63 1.89-1.311.948c-.434.317-.85.665-1.276.994-1.682 1.355-3.41 2.652-5.055 4.053-1.636 1.404-3.31 2.771-4.92 4.219-1.59 1.462-3.215 2.885-4.78 4.375-12.56 11.863-23.553 25.346-32.933 39.848-9.39 14.499-17.204 29.986-23.675 45.994-12.946 32.052-20.57 66.027-24.941 100.241-4.25 34.259-5.66 68.855-4.41 103.346 1.105 34.504 4.725 68.888 9.845 103.01 2.562 17.063 5.712 34.034 8.764 51.013 1.496 8.491 2.85 17.016 3.84 25.576.981 8.564 1.615 17.178 1.522 25.797-.077 8.619-.77 17.243-2.472 25.694-1.736 8.437-4.416 16.695-8.07 24.499-.852 1.982-1.942 3.843-2.934 5.764-.484.967-1.079 1.864-1.629 2.793l-1.68 2.764-1.842 2.655c-.627.874-1.197 1.798-1.897 2.621l-2.014 2.529c-.34.414-.655.856-1.023 1.253l-1.093 1.193c-5.75 6.419-12.556 11.912-20.145 16.042 7.598-4.101 14.422-9.579 20.202-15.991l1.093-1.193c.368-.397.683-.838 1.023-1.253l2.024-2.526c.7-.824 1.274-1.742 1.901-2.615l1.852-2.653 1.69-2.762c.554-.922 1.156-1.823 1.64-2.789.995-1.916 2.095-3.774 2.953-5.76 3.687-7.807 6.39-16.07 8.151-24.522 1.727-8.466 2.445-17.106 2.54-25.736.109-8.637-.523-17.261-1.496-25.839-.98-8.574-2.328-17.103-3.818-25.598-3.04-16.986-6.166-33.946-8.711-51.011-5.083-34.118-8.67-68.489-9.742-102.969-1.22-34.467.223-69.04 4.499-103.255 1.22-8.535 2.334-17.09 3.892-25.565a429.44 429.44 0 0 1 5.304-25.31c4.053-16.756 9.173-33.271 15.623-49.257 6.444-15.982 14.232-31.454 23.591-45.934 9.349-14.483 20.31-27.947 32.834-39.797 1.56-1.486 3.18-2.915 4.769-4.367 1.602-1.444 3.271-2.808 4.907-4.212 1.64-1.397 3.367-2.693 5.043-4.045.426-.329.841-.677 1.272-1l1.312-.948 2.622-1.887 5.25-3.776 5.45-3.477 2.728-1.744 1.361-.867 1.405-.798 5.63-3.183 2.812-1.59 2.89-1.448 5.781-2.896 1.45-.723c.484-.236.987-.44 1.478-.663l2.958-1.31 5.916-2.618c1.996-.815 4.015-1.577 6.02-2.364 2.016-.768 4.006-1.606 6.044-2.31l6.12-2.09c2.042-.697 4.078-1.417 6.146-2.002 16.481-5.103 33.382-8.804 50.44-11.432s34.27-4.19 51.521-4.958l.001-.026Z"/><path fill="#EB5C2B" d="M243.795 63.36c-17.195.717-34.361 2.241-51.371 4.849-17.007 2.614-33.869 6.308-50.306 11.427-16.446 5.091-32.392 11.828-47.418 20.238l-5.616 3.192c-1.838 1.115-3.637 2.308-5.452 3.461l-2.72 1.74c-.905.587-1.827 1.133-2.69 1.79l-5.23 3.781c-6.985 5.033-13.544 10.65-19.765 16.593-12.43 11.921-23.295 25.43-32.59 39.914-9.303 14.488-17.07 29.939-23.509 45.901-12.881 31.961-20.583 65.794-25.094 99.878-2.258 17.061-3.7 34.216-4.547 51.403l-.279 6.446c-.086 2.151-.209 4.298-.226 6.449l-.251 12.902c0 8.605-.029 17.203.255 25.807l.16 6.445.286 6.444.288 6.444.146 3.22.206 3.218.84 12.873 1.073 12.858c1.553 17.13 3.564 34.221 5.968 51.253 2.398 17.035 5.387 33.983 8.266 50.931 1.413 8.481 2.676 16.985 3.582 25.535.901 8.545 1.444 17.136 1.283 25.729-.15 8.585-.903 17.178-2.647 25.603-1.786 8.399-4.48 16.621-8.143 24.397-.855 1.976-1.942 3.826-2.932 5.738-.477.962-1.073 1.859-1.626 2.782l-1.678 2.754-1.84 2.645c-.627.873-1.19 1.794-1.884 2.614l-2.008 2.525c-.34.414-.659.849-1.016 1.248l-1.088 1.19c-5.724 6.404-12.49 11.906-20.042 16.04 7.567-4.109 14.351-9.596 20.095-15.996l1.088-1.189c.358-.399.676-.834 1.016-1.248l2.018-2.523c.7-.824 1.268-1.738 1.895-2.611l1.849-2.643 1.688-2.752c.554-.922 1.15-1.819 1.637-2.779.993-1.906 2.093-3.764 2.948-5.74 3.69-7.774 6.41-15.996 8.22-24.41 1.767-8.429 2.546-17.039 2.72-25.639.177-8.61-.364-17.211-1.256-25.77-.9-8.555-2.155-17.072-3.562-25.557-2.863-16.966-5.835-33.899-8.213-50.929-2.387-17.033-4.384-34.115-5.923-51.236l-1.059-12.851-.83-12.869-.206-3.218-.146-3.221-.284-6.437-.277-6.442-.152-6.449c-.277-8.591-.241-17.193-.234-25.785l.265-12.894c.02-2.145.143-4.292.23-6.442l.283-6.44c.858-17.168 2.328-34.306 4.587-51.35 4.474-34.062 12.133-67.852 24.968-99.776 6.418-15.941 14.154-31.372 23.424-45.841 9.265-14.465 20.1-27.965 32.496-39.874 6.205-5.941 12.741-11.552 19.713-16.578l5.22-3.784c.857-.652 1.778-1.198 2.68-1.792l2.71-1.742c1.815-1.153 3.603-2.349 5.435-3.46l5.6-3.191c14.99-8.413 30.92-15.148 47.334-20.263 16.41-5.163 33.251-8.905 50.241-11.56 17.001-2.653 34.162-4.226 51.353-4.993l.044.016Z"/><path fill="#EB5C2B" d="M237.51 62.843c-17.137.715-34.252 2.252-51.211 4.888-16.948 2.638-33.747 6.38-50.112 11.56-16.351 5.204-32.22 11.997-47.133 20.492-14.9 8.504-28.827 18.779-41.094 30.798-12.3 11.979-23.044 25.517-32.251 39.991-9.21 14.483-16.912 29.902-23.332 45.81-6.427 15.912-11.576 32.323-15.703 48.971a447.418 447.418 0 0 0-5.457 25.145c-.792 4.215-1.538 8.437-2.167 12.681-.639 4.242-1.354 8.47-1.93 12.717-2.359 16.993-3.868 34.095-4.826 51.212l-.328 6.424c-.11 2.139-.227 4.283-.264 6.429l-.347 12.858-.07 12.861-.018 3.217.05 3.219.11 6.433c.348 17.144 1.157 34.282 2.575 51.374 1.408 17.09 3.267 34.144 5.514 51.143 2.23 17 5.066 33.922 7.768 50.848 1.32 8.47 2.507 16.96 3.321 25.489.82 8.525 1.273 17.095 1.044 25.66-.218 8.558-1.034 17.121-2.825 25.497-1.83 8.366-4.55 16.545-8.217 24.288-.853 1.965-1.94 3.816-2.931 5.711-.482.956-1.077 1.853-1.624 2.772l-1.676 2.744-1.833 2.642c-.63.867-1.188 1.783-1.882 2.603l-1.995 2.517c-.34.415-.66.85-1.007 1.252l-1.081 1.185c-5.695 6.395-12.425 11.901-19.94 16.038 7.526-4.119 14.274-9.609 19.993-15.993l1.088-1.189c.354-.406.676-.835 1.016-1.249l2.005-2.515c.694-.82 1.258-1.74 1.889-2.607l1.843-2.64 1.686-2.741c.553-.923 1.152-1.813 1.634-2.77.997-1.899 2.094-3.747 2.953-5.716 3.693-7.742 6.436-15.926 8.292-24.308 1.816-8.391 2.657-16.969 2.9-25.542.248-8.577-.206-17.163-1.018-25.702-.812-8.539-1.986-17.037-3.3-25.51-2.689-16.935-5.507-33.842-7.721-50.843-2.23-17-4.076-34.046-5.464-51.131-1.404-17.083-2.199-34.212-2.534-51.348l-.098-6.43-.047-3.212.022-3.212.084-12.852.36-12.849c.042-2.14.152-4.28.269-6.423l.33-6.418c.973-17.108 2.5-34.195 4.87-51.17.57-4.242 1.286-8.471 1.918-12.709.626-4.234 1.372-8.455 2.159-12.667a442.09 442.09 0 0 1 5.429-25.12c4.112-16.629 9.236-33.026 15.638-48.922 6.4-15.887 14.069-31.286 23.254-45.754 9.179-14.465 19.885-27.98 32.156-39.95 12.232-12.006 26.12-22.274 40.993-30.779 14.883-8.503 30.723-15.287 47.052-20.513 16.333-5.219 33.115-9.002 50.047-11.682 16.942-2.677 34.053-4.263 51.188-5.021l-.014.018Z"/><path fill="#EB5C2B" d="M231.221 62.336c-17.087.712-34.146 2.257-51.043 4.924-16.89 2.663-33.629 6.445-49.916 11.697-16.258 5.328-32.045 12.157-46.851 20.742l-2.782 1.597-1.39.807-1.349.875-5.383 3.488-2.69 1.747-2.592 1.894-5.184 3.787c-6.818 5.164-13.265 10.824-19.348 16.837-12.17 12.037-22.79 25.594-31.906 40.064-9.129 14.476-16.763 29.863-23.162 45.723-12.796 31.763-20.66 65.317-25.442 99.154l-1.694 12.71c-.49 4.245-.918 8.495-1.378 12.748-.506 4.247-.767 8.516-1.138 12.775l-.521 6.388-.375 6.401-.37 6.398-.184 3.199-.111 3.206-.44 12.82-.162 12.823a197.933 197.933 0 0 0-.009 6.41l.055 6.415c.216 17.096.902 34.188 2.165 51.237 1.263 17.05 2.971 34.068 5.06 51.034 2.066 16.971 4.745 33.86 7.276 50.762 1.233 8.454 2.333 16.929 3.067 25.438.74 8.506 1.106 17.06.804 25.592-.296 8.528-1.164 17.062-3.004 25.4-1.87 8.33-4.614 16.471-8.283 24.181-.857 1.96-1.941 3.8-2.932 5.695-.482.957-1.07 1.85-1.622 2.763l-1.673 2.733-1.82 2.634-.916 1.316-.458.658-.499.632-1.992 2.507c-.34.414-.657.84-1 1.248l-1.078 1.191c-5.666 6.386-12.353 11.892-19.835 16.043 7.497-4.126 14.198-9.623 19.888-15.998l1.082-1.185c.347-.402.67-.831 1.01-1.245l2.002-2.505.504-.626.457-.658.92-1.309 1.83-2.632 1.683-2.731c.551-.913 1.147-1.81 1.632-2.76.995-1.889 2.086-3.733 2.953-5.69 3.695-7.709 6.467-15.859 8.356-24.201 1.866-8.353 2.763-16.896 3.077-25.436.317-8.55-.043-17.107-.78-25.623-.732-8.52-1.819-17.002-3.046-25.46-2.519-16.909-5.177-33.794-7.223-50.76-2.069-16.961-3.763-33.97-5.006-51.015-1.249-17.041-1.915-34.128-2.113-51.209l-.05-6.409a209.78 209.78 0 0 1 .008-6.41l.177-12.814.446-12.807.116-3.2.184-3.199.373-6.392.379-6.395.531-6.386c.375-4.252.636-8.521 1.146-12.761.464-4.247.895-8.491 1.392-12.74l1.7-12.698c4.74-33.81 12.57-67.335 25.32-99.061 6.373-15.845 13.986-31.209 23.08-45.673 9.09-14.454 19.68-27.992 31.81-40.023 6.068-6.012 12.495-11.66 19.297-16.823l5.168-3.785 2.585-1.89 2.68-1.75 5.374-3.49 1.342-.872 1.384-.803 2.771-1.599c14.77-8.589 30.537-15.422 46.767-20.768 16.258-5.285 32.974-9.105 49.85-11.82 16.88-2.708 33.935-4.302 51.021-5.056l.028-.026Z"/><path fill="#EB5C2B" d="M224.932 61.83c-17.034.713-34.042 2.27-50.881 4.962-16.827 2.71-33.521 6.482-49.715 11.858-16.177 5.39-31.877 12.303-46.571 20.974l-2.768 1.606c-.912.549-1.795 1.157-2.691 1.731l-5.36 3.499c-1.818 1.12-3.486 2.457-5.221 3.698l-5.157 3.788c-6.744 5.231-13.126 10.911-19.148 16.955-12.04 12.095-22.542 25.675-31.566 40.14-9.037 14.472-16.619 29.818-22.991 45.636-12.736 31.666-20.71 65.081-25.618 98.798l-1.768 12.66-1.44 12.701-.361 3.178-.282 3.181-.565 6.372-.56 6.368-.413 6.382c-.63 8.501-.93 17.023-1.27 25.535l-.258 12.778c-.065 2.129-.044 4.257-.046 6.39l.006 6.393c.09 17.044.644 34.088 1.751 51.095 1.118 17.009 2.67 33.985 4.602 50.918 1.899 16.936 4.424 33.799 6.775 50.673 1.146 8.438 2.159 16.898 2.812 25.388.343 4.243.539 8.499.671 12.751.074 4.254.092 8.515-.1 12.768-.364 8.501-1.288 17.001-3.178 25.3-1.91 8.294-4.676 16.397-8.35 24.085-.86 1.953-1.943 3.783-2.931 5.669-.486.95-1.069 1.839-1.62 2.752l-1.67 2.723-1.819 2.624-.909 1.312-.457.658-.493.628-1.987 2.504c-.33.416-.656.839-1 1.247l-1.07 1.188c-5.638 6.377-12.289 11.886-19.74 16.044 7.456-4.136 14.13-9.634 19.792-15.999l1.075-1.182c.344-.408.67-.831 1-1.247l1.997-2.501.497-.622.457-.658.92-1.31 1.827-2.621 1.678-2.728c.55-.912 1.144-1.799 1.625-2.755.995-1.889 2.083-3.724 2.948-5.671 3.705-7.68 6.49-15.795 8.428-24.098 1.915-8.314 2.867-16.823 3.25-25.335.385-8.523.11-17.055-.54-25.555-.645-8.504-1.652-16.967-2.791-25.409-2.339-16.882-4.85-33.736-6.728-50.668-1.912-16.928-3.454-33.901-4.558-50.902-1.088-17.001-1.634-34.033-1.704-51.073l.004-6.39c.002-2.133-.014-4.255.05-6.384l.273-12.769c.35-8.51.653-17.026 1.291-25.514l.417-6.376.563-6.362.57-6.365.281-3.181.365-3.172 1.455-12.693 1.774-12.647c4.875-33.687 12.81-67.07 25.495-98.705 6.35-15.796 13.904-31.133 22.91-45.586 8.998-14.449 19.47-28.01 31.48-40.096 6-6.04 12.372-11.722 19.097-16.941l5.14-3.787c1.726-1.243 3.393-2.58 5.205-3.696l5.347-3.492c.897-.574 1.77-1.185 2.685-1.727l2.762-1.602c14.668-8.672 30.336-15.583 46.491-20.994 16.161-5.416 32.834-9.235 49.644-11.987 16.829-2.737 33.826-4.34 50.86-5.095l.025-.016Z"/><path fill="#EB5C2B" d="M218.64 61.316c-16.985.71-33.936 2.275-50.719 5.001-8.403 1.31-16.729 3.055-25.006 4.992-1.041.224-2.07.483-3.093.765l-3.079.816-6.161 1.641-6.099 1.87c-2.023.644-4.084 1.199-6.072 1.941-16.102 5.457-31.71 12.451-46.295 21.201-14.612 8.707-28.06 19.359-39.956 31.504-11.914 12.147-22.3 25.75-31.242 40.208-8.949 14.461-16.476 29.783-22.824 45.543-12.68 31.572-20.74 64.849-25.797 98.434-2.647 16.791-4.395 33.712-5.658 50.655-.683 8.472-1.038 16.959-1.425 25.449l-.357 12.744c-.112 4.246-.085 8.494-.133 12.744-.037 16.993.391 33.985 1.337 50.953.973 16.969 2.38 33.904 4.15 50.799 1.732 16.901 4.103 33.737 6.28 50.58 1.059 8.423 1.985 16.866 2.557 25.337.579 8.467.77 16.973.337 25.447-.432 8.474-1.411 16.939-3.35 25.199-1.95 8.258-4.734 16.331-8.415 23.979-.859 1.943-1.94 3.774-2.933 5.653-.48.946-1.062 1.835-1.617 2.741l-1.665 2.72c-.586.883-1.211 1.746-1.812 2.62l-.912 1.306c-.299.44-.61.872-.945 1.282l-1.973 2.496-.994 1.244-1.065 1.184c-5.613 6.361-12.223 11.88-19.634 16.048 7.423-4.149 14.054-9.647 19.687-16.004l1.069-1.177.994-1.244 1.983-2.493c.344-.408.65-.836.949-1.276l.912-1.306c.605-.868 1.226-1.737 1.822-2.618l1.669-2.713c.555-.907 1.138-1.796 1.623-2.746.992-1.879 2.084-3.707 2.953-5.647 3.703-7.654 6.515-15.726 8.493-23.992 1.964-8.276 2.969-16.756 3.423-25.235.447-8.492.263-17.002-.307-25.483-.56-8.478-1.483-16.932-2.536-25.358-2.165-16.851-4.518-33.673-6.233-50.575-1.753-16.896-3.14-33.826-4.1-50.786a874.672 874.672 0 0 1-1.29-50.931c.053-4.244.036-8.49.148-12.736l.37-12.735c.402-8.481.757-16.968 1.454-25.432 1.28-16.928 3.047-33.834 5.7-50.612 5.021-33.562 13.04-66.806 25.676-98.352 6.325-15.755 13.826-31.05 22.75-45.497 8.917-14.442 19.271-28.026 31.146-40.166 11.864-12.143 25.276-22.782 39.862-31.49 14.558-8.75 30.14-15.746 46.214-21.22 1.985-.749 4.042-1.31 6.061-1.96l6.087-1.888 6.153-1.655 3.076-.822a53.92 53.92 0 0 1 3.089-.77c8.265-1.957 16.586-3.724 24.977-5.052 16.77-2.762 33.724-4.38 50.699-5.135l-.003.01Z"/><path fill="url(#b)" d="M-2.85 18.596c1.38-2.216 2.761-4.423 4.142-6.639 99.36 123.703 248.375 123.703 347.74 0 1.381 2.216 2.762 4.423 4.143 6.639-101.727 126.652-254.293 126.652-356.026 0Z"/><path fill="url(#c)" d="M-45.376-13.25 1.28-88.476c99.372 124.536 250.957 96.754 347.764 0L395.7-13.25c-126.032 157.953-315.044 157.953-441.07 0h-.006Z"/></g><defs><linearGradient id="b" x1="192.647" x2="-2.85" y1="62.771" y2="62.771" gradientUnits="userSpaceOnUse"><stop stop-color="#FF8F00"/><stop offset="1" stop-color="#EB5C2B"/></linearGradient><linearGradient id="c" x1="341.153" x2="6.88" y1="8.37" y2="8.37" gradientUnits="userSpaceOnUse"><stop stop-color="#003F7D"/><stop offset="1" stop-color="#002347"/></linearGradient></defs></svg>