<svg xmlns="http://www.w3.org/2000/svg" xml:space="preserve" x="0" y="0" version="1.1" viewBox="0 0 260 32">
    <style>.st0{stroke:#eb5c2b;stroke-miterlimit:10}.st0,.st1{fill:#eb5c2b}</style>
    <path d="M14.3 14.8h10.8v14.7c-1.8.6-3.4 1-5.1 1.2-1.6.2-3.4.4-5.2.4-4.4 0-7.8-1.3-10.2-3.9C2.2 24.6 1 20.9 1 16.1c0-4.7 1.4-8.4 4.1-11 2.7-2.7 6.4-4 11.2-4 3.1 0 5.9.6 8.7 1.8l-1.7 4c-2.4-1.1-4.7-1.6-7.1-1.6-3.1 0-5.6 1-7.4 2.9-1.8 2-2.7 4.6-2.7 8 0 3.6.8 6.3 2.4 8.1s4 2.8 7 2.8c1.5 0 3.2-.2 5-.6V19h-6.1v-4.2zM32.1 30.7V1.5h4.8v25.1h12.4v4.1H32.1zM77.2 1.5v18.9c0 2.2-.5 4-1.4 5.7-.9 1.6-2.3 2.9-4 3.7-1.8.9-3.8 1.3-6.3 1.3-3.6 0-6.4-1-8.5-2.9-2-1.9-3-4.6-3-7.9V1.5h4.8V20c0 2.4.6 4.2 1.7 5.3s2.8 1.7 5.2 1.7c4.5 0 6.8-2.4 6.8-7.1V1.5h4.7zM97.1 5.1c-2.7 0-4.9 1-6.5 2.9-1.6 1.9-2.4 4.6-2.4 8.1 0 3.6.8 6.3 2.3 8.1C92 26 94.2 27 97.1 27c1.2 0 2.4-.1 3.6-.4 1.2-.2 2.4-.6 3.6-.9v4.1c-2.3.9-4.9 1.3-7.8 1.3-4.3 0-7.6-1.3-9.9-3.9-2.3-2.6-3.4-6.3-3.4-11.1 0-3 .6-5.7 1.7-8s2.7-4 4.8-5.2c2.1-1.2 4.6-1.8 7.4-1.8 3 0 5.7.6 8.3 1.9l-1.7 4c-1-.5-2-.9-3.1-1.2-1.1-.5-2.3-.7-3.5-.7zM136.5 16c0 4.8-1.2 8.5-3.6 11.1-2.4 2.6-5.7 4-10.1 4-4.4 0-7.8-1.3-10.2-3.9-2.4-2.6-3.5-6.3-3.5-11.2 0-4.8 1.2-8.5 3.6-11.1 2.4-2.6 5.8-3.9 10.2-3.9 4.3 0 7.7 1.3 10.1 3.9 2.3 2.7 3.5 6.4 3.5 11.1zm-22.3 0c0 3.6.7 6.3 2.2 8.2s3.6 2.8 6.5 2.8c2.8 0 5-.9 6.4-2.8 1.4-1.8 2.2-4.6 2.2-8.2 0-3.6-.7-6.3-2.1-8.2C128 5.9 125.8 5 123 5c-2.9 0-5 .9-6.5 2.8s-2.3 4.7-2.3 8.2z" class="st0"/>
    <path d="M155.5 4.1c-3.2 0-5.7 1.1-7.6 3.2-1.9 2.1-2.8 5.1-2.8 8.8 0 3.8.9 6.8 2.7 8.9 1.8 2.1 4.3 3.1 7.7 3.1 2 0 4.4-.4 7-1.1v3c-2 .8-4.5 1.1-7.5 1.1-4.3 0-7.6-1.3-10-3.9-2.3-2.6-3.5-6.3-3.5-11.1 0-3 .6-5.6 1.7-7.9 1.1-2.3 2.8-4 4.9-5.2s4.6-1.8 7.5-1.8c3.1 0 5.7.6 8 1.7l-1.4 2.9c-2.3-1.2-4.5-1.7-6.7-1.7zM168.8 30.7V1.5h3.4v26.1h12.9v3.1h-16.3zM206.3 30.7H190V1.5h16.3v3h-12.9v9.4h12.1v3h-12.1v10.8h12.9v3zM231.2 30.7l-3.6-9.3h-11.7l-3.6 9.3h-3.4l11.6-29.3h2.9l11.5 29.3h-3.7zm-4.7-12.4-3.4-9.1c-.4-1.1-.9-2.6-1.4-4.2-.3 1.3-.7 2.7-1.3 4.2l-3.4 9.1h9.5zM242.1 18.5v12.2h-3.4V1.5h8c3.6 0 6.2.7 7.9 2.1s2.6 3.4 2.6 6.2c0 3.9-2 6.5-5.9 7.8l7.9 13.1h-4l-7.1-12.2h-6zm0-2.9h4.7c2.4 0 4.2-.5 5.3-1.4 1.1-1 1.7-2.4 1.7-4.3s-.6-3.3-1.7-4.2c-1.1-.9-3-1.3-5.5-1.3h-4.4v11.2z" class="st1"/>
</svg>