<svg xmlns="http://www.w3.org/2000/svg" width="368" height="60" fill="none"><path fill="#000" d="M2.496 59.134c-1.04 0-1.56-.494-1.56-1.482 0-.26.104-.65.312-1.17.26-.468.624-1.144 1.092-2.028l4.446-8.268c2.392-4.316 4.472-8.268 6.24-11.856 1.82-3.64 3.38-6.89 4.68-9.75 3.9-8.892 5.85-15.626 5.85-20.202 0-.312.207-.676.623-1.092.469-.416.91-.624 1.327-.624.623 0 .936.598.936 1.794 0 3.38-1.223 8.502-3.666 15.366a208.24 208.24 0 0 1-3.043 7.566 127.498 127.498 0 0 1-3.276 7.098c2.236-2.704 4.55-5.33 6.942-7.878a143.881 143.881 0 0 1 7.488-7.41C38.584 11.97 44.2 8.356 47.736 8.356c2.236 0 3.354 1.456 3.354 4.368 0 3.12-1.535 8.736-4.603 16.848-3.951 10.192-6.136 16.042-6.552 17.55 11.804-14.3 23.816-24.726 36.037-31.278a97.912 97.912 0 0 1 5.226-2.574c1.872-.884 3.302-1.326 4.29-1.326 1.456 0 2.184.884 2.184 2.652 0 .884-.156 1.95-.468 3.198-.312 1.248-.832 2.626-1.56 4.134l-7.176 15.21c-.676 1.456-1.43 3.068-2.262 4.836a231.715 231.715 0 0 0-2.262 5.304 93.98 93.98 0 0 0-1.716 4.68c-.468 1.352-.702 2.392-.702 3.12 0 .832.338 1.248 1.014 1.248 1.04 0 2.34-.624 3.9-1.872 1.612-1.248 3.328-2.834 5.148-4.758.26-.312.598-.676 1.014-1.092.468-.416.884-.624 1.248-.624.832 0 1.248.468 1.248 1.404 0 .156-.052.338-.156.546-.104.156-.338.416-.702.78l-2.028 2.028c-.677.676-1.3 1.274-1.872 1.794a30.55 30.55 0 0 1-4.29 3.042c-1.456.936-2.86 1.404-4.212 1.404-2.132 0-3.198-1.196-3.198-3.588 0-1.456.52-3.718 1.56-6.786 1.04-3.068 2.626-6.942 4.758-11.622l8.19-17.784c.572-1.196.936-2.028 1.092-2.496.156-.52.234-.884.234-1.092 0-.312-.13-.468-.39-.468-.104 0-.39.078-.858.234-.416.104-1.17.416-2.262.936-3.172 1.456-6.656 3.406-10.452 5.85a91.01 91.01 0 0 0-10.608 7.956c-2.653 2.288-5.019 4.472-7.099 6.552a144.1 144.1 0 0 0-6.084 6.474 373.574 373.574 0 0 0-6.551 7.644 131.02 131.02 0 0 0-1.404 1.638c-.26.26-.676.39-1.248.39-.885 0-1.327-.468-1.327-1.404 0-.988.209-2.288.624-3.9.416-1.612.937-3.25 1.56-4.914l5.773-15.444c1.403-3.796 2.444-6.942 3.12-9.438.675-2.496 1.014-4.368 1.014-5.616 0-1.04-.442-1.56-1.326-1.56-1.717 0-5.59 2.756-11.623 8.268-2.08 1.924-4.03 3.77-5.85 5.538a112.999 112.999 0 0 0-4.992 5.148 172.727 172.727 0 0 0-5.538 6.24 114.85 114.85 0 0 0-4.835 6.162 133.016 133.016 0 0 0-4.68 6.942c-1.612 2.548-3.354 5.512-5.226 8.892-.52.936-1.092 1.404-1.716 1.404ZM96.393 55.78c-3.016 0-4.524-1.43-4.524-4.29 0-1.872.442-3.874 1.326-6.006.936-2.184 2.184-4.29 3.744-6.318a35.778 35.778 0 0 1 5.226-5.616c1.924-1.716 3.9-3.068 5.928-4.056 2.028-1.04 3.978-1.56 5.85-1.56 3.328 0 4.992 1.638 4.992 4.914 0 2.132-.52 3.198-1.56 3.198-.936 0-1.404-.442-1.404-1.326 0-.364.078-.728.234-1.092.208-.416.312-.858.312-1.326 0-1.456-.988-2.184-2.964-2.184-3.172 0-7.15 2.418-11.934 7.254-1.144 1.196-2.262 2.6-3.354 4.212a30.725 30.725 0 0 0-2.73 4.914c-.676 1.612-1.014 3.146-1.014 4.602 0 1.404.78 2.106 2.34 2.106 1.352 0 2.782-.416 4.29-1.248 1.56-.832 2.912-1.69 4.056-2.574 2.288-1.716 4.628-4.056 7.02-7.02.364-.416.832-.962 1.404-1.638.572-.676 1.222-1.43 1.95-2.262.26-.26.572-.39.936-.39.832 0 1.248.416 1.248 1.248l-2.964 4.446c-1.976 2.912-2.964 5.304-2.964 7.176 0 1.352.65 2.028 1.95 2.028 1.092 0 2.288-.286 3.588-.858 1.3-.572 2.366-1.144 3.198-1.716 1.664-1.092 3.406-2.444 5.226-4.056a161.573 161.573 0 0 0 5.226-4.992c.208-.208.52-.312.936-.312.78 0 1.17.312 1.17.936 0 .572-.364 1.222-1.092 1.95a160.459 160.459 0 0 1-5.616 5.382c-1.664 1.456-3.25 2.652-4.758 3.588-.988.572-2.21 1.17-3.666 1.794-1.456.624-3.12.936-4.992.936-2.548 0-3.822-1.352-3.822-4.056 0-1.04.13-1.898.39-2.574-4.732 4.524-9.126 6.786-13.182 6.786Z"/><path fill="#000" d="M125.729 56.95c-.832 0-1.248-.338-1.248-1.014 0-.312.078-.624.234-.936.208-.312.364-.572.468-.78l7.098-14.352c3.016-6.136 4.524-9.542 4.524-10.218 0-.728.364-1.092 1.092-1.092.988 0 1.482.494 1.482 1.482 0 .52-.234 1.352-.702 2.496a72.256 72.256 0 0 1-1.794 3.978c-1.248 2.704-2.288 4.784-3.12 6.24a91.342 91.342 0 0 1 4.758-5.148 101.144 101.144 0 0 1 4.914-4.602c4.94-4.316 8.736-6.474 11.388-6.474 1.82 0 2.73.858 2.73 2.574 0 1.664-.546 2.496-1.638 2.496-.52 0-.91-.442-1.17-1.326-.156-.624-.52-.936-1.092-.936-.884 0-2.6.962-5.148 2.886-2.808 2.08-5.642 4.55-8.502 7.41-2.808 2.86-5.798 6.5-8.97 10.92l-3.9 5.46a3.53 3.53 0 0 1-.624.624c-.156.208-.416.312-.78.312ZM174.813 58.666c-.52 0-.91-.312-1.17-.936l-1.092-2.652c-1.144-2.756-2.782-5.486-4.914-8.19a124.477 124.477 0 0 0-6.318-7.566 523.037 523.037 0 0 0-3.042 6.318c-.884 1.872-1.69 3.64-2.418 5.304a357.506 357.506 0 0 1-2.34 5.07c-.208.52-.572.78-1.092.78-.884 0-1.326-.364-1.326-1.092 0-.312.104-.702.312-1.17.26-.52.494-1.04.702-1.56 1.352-3.276 3.094-7.176 5.226-11.7a654.55 654.55 0 0 1 7.41-14.82c5.252-10.244 9.464-17.576 12.636-21.996a49.28 49.28 0 0 1 2.106-2.808C180.221.816 180.845.4 181.365.4c.936 0 1.404.494 1.404 1.482 0 1.352-1.976 4.94-5.928 10.764-.312.468-.858 1.248-1.638 2.34a190.324 190.324 0 0 0-2.496 3.588c-.884 1.248-1.716 2.418-2.496 3.51-.728 1.04-1.222 1.768-1.482 2.184l-5.616 11.154c12.584-7.332 19.344-10.998 20.28-10.998.832 0 1.248.468 1.248 1.404 0 .572-.312.988-.936 1.248a347.812 347.812 0 0 0-5.46 2.652c-1.3.676-2.626 1.378-3.978 2.106a112.724 112.724 0 0 1-4.446 2.652 279.811 279.811 0 0 1-6.318 3.588 89.382 89.382 0 0 1 4.056 4.758 60.464 60.464 0 0 1 4.056 5.538c1.3 1.872 2.366 3.614 3.198 5.226.832 1.612 1.248 2.912 1.248 3.9 0 .78-.416 1.17-1.248 1.17ZM199.661 57.418c-.884 0-1.326-.65-1.326-1.95 0-1.976.988-5.356 2.964-10.14 1.976-4.836 4.966-11.024 8.97-18.564 2.288-4.264 4.16-7.8 5.616-10.608 1.456-2.808 2.6-5.044 3.432-6.708.832-1.716 1.43-2.99 1.794-3.822.364-.884.572-1.534.624-1.95 0-.208.052-.364.156-.468l-3.042-.156c-.676-.052-1.196-.234-1.56-.546-.312-.312-.468-.65-.468-1.014 0-.728.416-1.092 1.248-1.092 11.336 0 21.164 2.34 29.484 7.02 4.316 2.444 7.878 5.512 10.686 9.204 2.808 3.64 4.212 7.774 4.212 12.402 0 3.744-1.04 6.968-3.12 9.672-2.08 2.704-4.914 5.044-8.502 7.02-3.536 1.976-7.54 3.744-12.012 5.304-3.016 1.04-6.37 2.054-10.062 3.042-3.692.936-7.306 1.69-10.842 2.262-3.536.572-6.656.858-9.36.858-1.872 0-3.328-.26-4.368-.78-1.092-.572-1.638-1.196-1.638-1.872 0-.572.312-.858.936-.858.416 0 .806.078 1.17.234.364.156.884.312 1.56.468.676.156 1.664.234 2.964.234 1.872 0 3.978-.156 6.318-.468 2.392-.364 4.862-.832 7.41-1.404 2.6-.572 5.122-1.196 7.566-1.872 2.444-.728 4.68-1.43 6.708-2.106 4.368-1.508 8.242-3.172 11.622-4.992 3.432-1.82 6.11-3.978 8.034-6.474 1.924-2.496 2.886-5.512 2.886-9.048 0-7.436-4.342-13.624-13.026-18.564-5.772-3.224-13.286-5.33-22.542-6.318.208.26.312.546.312.858 0 .468-.39 1.534-1.17 3.198-.728 1.664-1.716 3.666-2.964 6.006-1.196 2.34-2.47 4.81-3.822 7.41a419.927 419.927 0 0 1-3.9 7.332c-7.852 15.028-11.778 24.076-11.778 27.144v.468c.052.104.078.26.078.468 0 .26-.104.52-.312.78-.208.26-.52.39-.936.39ZM269.303 55.78c-3.016 0-4.524-1.43-4.524-4.29 0-1.872.442-3.874 1.326-6.006.936-2.184 2.184-4.29 3.744-6.318a35.778 35.778 0 0 1 5.226-5.616c1.924-1.716 3.9-3.068 5.928-4.056 2.028-1.04 3.978-1.56 5.85-1.56 3.328 0 4.992 1.638 4.992 4.914 0 2.132-.52 3.198-1.56 3.198-.936 0-1.404-.442-1.404-1.326 0-.364.078-.728.234-1.092.208-.416.312-.858.312-1.326 0-1.456-.988-2.184-2.964-2.184-3.172 0-7.15 2.418-11.934 7.254-1.144 1.196-2.262 2.6-3.354 4.212a30.725 30.725 0 0 0-2.73 4.914c-.676 1.612-1.014 3.146-1.014 4.602 0 1.404.78 2.106 2.34 2.106 1.352 0 2.782-.416 4.29-1.248 1.56-.832 2.912-1.69 4.056-2.574 2.288-1.716 4.628-4.056 7.02-7.02.364-.416.832-.962 1.404-1.638.572-.676 1.222-1.43 1.95-2.262.26-.26.572-.39.936-.39.832 0 1.248.416 1.248 1.248l-2.964 4.446c-1.976 2.912-2.964 5.304-2.964 7.176 0 1.352.65 2.028 1.95 2.028 1.092 0 2.288-.286 3.588-.858 1.3-.572 2.366-1.144 3.198-1.716 1.664-1.092 3.406-2.444 5.226-4.056a161.573 161.573 0 0 0 5.226-4.992c.208-.208.52-.312.936-.312.78 0 1.17.312 1.17.936 0 .572-.364 1.222-1.092 1.95a160.459 160.459 0 0 1-5.616 5.382c-1.664 1.456-3.25 2.652-4.758 3.588-.988.572-2.21 1.17-3.666 1.794-1.456.624-3.12.936-4.992.936-2.548 0-3.822-1.352-3.822-4.056 0-1.04.13-1.898.39-2.574-4.732 4.524-9.126 6.786-13.182 6.786Z"/><path fill="#000" d="M305.893 55.78c-.624 0-.936-.234-.936-.702-.832-1.456-1.248-4.446-1.248-8.97 0-1.092.078-2.548.234-4.368.156-1.82.364-3.718.624-5.694s.546-3.77.858-5.382c.312-1.664.65-2.86 1.014-3.588.312-.624.702-.936 1.17-.936.832 0 1.248.338 1.248 1.014 0 .364-.052.728-.156 1.092-.104.312-.208.702-.312 1.17a75.037 75.037 0 0 0-1.638 8.268 72.27 72.27 0 0 0-.546 8.97c0 1.404.052 2.652.156 3.744.156 1.092.312 2.028.468 2.808 1.456-.572 3.068-1.69 4.836-3.354a61.175 61.175 0 0 0 5.148-5.694 56.002 56.002 0 0 0 3.666-5.226c1.144-1.768 2.028-3.432 2.652-4.992.676-1.56 1.014-2.834 1.014-3.822 0-.676-.078-1.144-.234-1.404a1.831 1.831 0 0 0-.39-.624c-.156-.156-.234-.442-.234-.858 0-.78.39-1.17 1.17-1.17.52 0 .988.39 1.404 1.17.416.78.624 1.768.624 2.964 0 3.692-2.574 8.866-7.722 15.522-5.304 6.708-9.594 10.062-12.87 10.062ZM343.352 24.268c-.884 0-1.326-.442-1.326-1.326 0-.26.182-.728.546-1.404.364-.728.78-1.456 1.248-2.184.468-.728.832-1.222 1.092-1.482.884-.988 1.56-1.612 2.028-1.872.52-.26.988-.39 1.404-.39 1.092 0 1.638.494 1.638 1.482 0 .364-.234.806-.702 1.326a9.25 9.25 0 0 1-1.482 1.326c-.832.52-1.352.936-1.56 1.248l-1.716 2.418c-.052.208-.182.416-.39.624-.156.156-.416.234-.78.234Zm-13.26 31.59c-1.456 0-2.522-.286-3.198-.858-.624-.572-.936-1.43-.936-2.574 0-1.092.338-2.574 1.014-4.446.676-1.924 1.534-3.978 2.574-6.162a88.36 88.36 0 0 1 3.432-6.24c1.196-1.976 2.34-3.588 3.432-4.836 1.144-1.3 2.054-1.95 2.73-1.95.936 0 1.404.416 1.404 1.248 0 .52-.442 1.508-1.326 2.964a126.931 126.931 0 0 1-2.886 4.524 492.94 492.94 0 0 1-1.716 2.34c-.728.988-1.43 1.924-2.106 2.808-.676.832-1.118 1.404-1.326 1.716-.52.78-1.066 2.054-1.638 3.822-.624 1.768-.936 3.12-.936 4.056 0 .416.078.728.234.936.208.208.65.312 1.326.312 1.3 0 2.756-.416 4.368-1.248 1.612-.832 3.25-1.872 4.914-3.12a72.152 72.152 0 0 0 4.68-3.978 183.88 183.88 0 0 0 3.822-3.51c.208-.208.52-.312.936-.312.78 0 1.17.312 1.17.936 0 .572-.364 1.222-1.092 1.95a119.944 119.944 0 0 1-3.9 3.744 50.692 50.692 0 0 1-3.432 2.886 40.297 40.297 0 0 1-5.694 3.432c-2.08 1.04-4.03 1.56-5.85 1.56Z"/><path fill="#000" d="M347.185 57.574c-2.912 0-4.368-.962-4.368-2.886 0-1.196.416-2.392 1.248-3.588a18.536 18.536 0 0 1 3.12-3.276c1.196-.988 2.314-1.742 3.354-2.262a8.025 8.025 0 0 1 1.248-.468c.572-.156 1.04-.234 1.404-.234.416 0 .624.156.624.468 0 .26-.286.546-.858.858-2.392 1.144-4.264 2.522-5.616 4.134-1.3 1.56-1.95 2.834-1.95 3.822 0 .936.806 1.404 2.418 1.404 1.352 0 2.808-.338 4.368-1.014a19.84 19.84 0 0 0 4.524-2.652c1.456-1.092 2.652-2.262 3.588-3.51.936-1.248 1.404-2.444 1.404-3.588 0-.78-.26-1.482-.78-2.106-.468-.624-1.248-1.092-2.34-1.404l-5.148-1.56c-1.3-.416-2.236-.962-2.808-1.638-.572-.676-.858-1.43-.858-2.262 0-1.56.572-2.964 1.716-4.212 1.196-1.248 2.678-2.236 4.446-2.964 1.768-.728 3.484-1.092 5.148-1.092 1.664 0 3.12.416 4.368 1.248 1.248.78 1.872 1.846 1.872 3.198 0 .78-.234 1.508-.702 2.184-.416.676-.91 1.014-1.482 1.014-.884 0-1.326-.364-1.326-1.092 0-.26.13-.572.39-.936.312-.416.468-.806.468-1.17 0-1.56-1.196-2.34-3.588-2.34-1.3 0-2.6.286-3.9.858-1.248.52-2.288 1.222-3.12 2.106-.832.884-1.248 1.846-1.248 2.886s1.04 1.872 3.12 2.496l4.992 1.56c1.508.468 2.548 1.118 3.12 1.95.572.78.858 1.664.858 2.652 0 2.34-1.43 4.758-4.29 7.254-4.628 4.108-9.1 6.162-13.416 6.162Z"/></svg>