<svg xmlns="http://www.w3.org/2000/svg" width="126" height="126" fill="none"><circle cx="63" cy="63" r="63" fill="#fff"/><path stroke="#EB5C2B" stroke-linecap="round" stroke-linejoin="round" stroke-miterlimit="10" stroke-width="3" d="M84.009 61.884V37.822m0 0H36m48.009 0v-5.144c0-1.479-1.2-2.678-2.678-2.678H38.678C37.2 30 36 31.2 36 32.678v5.144m0 0v54.579c0 1.48 1.2 2.678 2.678 2.678H63.55"/><path stroke="#EB5C2B" stroke-linecap="round" stroke-linejoin="round" stroke-miterlimit="10" stroke-width="3" d="M38.678 30C37.2 30 36 31.2 36 32.678v5.144h8.935V30h-6.257Zm27.084 42.749h4.156v19.653h-4.156V72.75Zm8.957 0h4.155v19.653H74.72V72.75Zm8.956 0h4.156v19.653h-4.156V72.75Zm8.956 0h4.156v19.653h-4.156V72.75ZM63.55 69.043v3.012a.694.694 0 0 0 .694.694h34.063a.694.694 0 0 0 .694-.694v-3.012a.694.694 0 0 0-.41-.633l-17.032-7.623a.694.694 0 0 0-.567 0L63.96 68.41a.694.694 0 0 0-.41.633Zm0 24.053v2.768a.694.694 0 0 0 .694.694h34.063a.694.694 0 0 0 .694-.694v-2.768a.694.694 0 0 0-.694-.694H64.243a.694.694 0 0 0-.694.694Z"/><path stroke="#EB5C2B" stroke-linecap="round" stroke-linejoin="round" stroke-miterlimit="10" stroke-width="3" d="M81.275 69.39a2.253 2.253 0 1 0 0-4.507 2.253 2.253 0 0 0 0 4.507ZM52.004 61.62a9.58 9.58 0 0 0 9.58-9.58 9.58 9.58 0 1 0-9.58 9.58Z"/><path stroke="#EB5C2B" stroke-linecap="round" stroke-linejoin="round" stroke-miterlimit="10" stroke-width="3" d="M57.696 59.746a6.365 6.365 0 0 0-4.267-3.371 4.556 4.556 0 0 1-2.852 0 6.366 6.366 0 0 0-4.267 3.371"/><path stroke="#EB5C2B" stroke-linecap="round" stroke-linejoin="round" stroke-miterlimit="10" stroke-width="3" d="M52.003 56.604a4.562 4.562 0 1 0 0-9.124 4.562 4.562 0 0 0 0 9.124ZM49.657 72.835c0-1.184-.96-2.144-2.143-2.144h-2.947c-1.184 0-2.143.96-2.143 2.144v.625c0 1.183.96 2.143 2.143 2.143h2.947c1.184 0 2.143.96 2.143 2.143v.625c0 1.184-.96 2.144-2.143 2.144h-2.947a2.143 2.143 0 0 1-2.143-2.144m3.617-9.644v1.964m0 9.824v1.964m7.398-12.93h6.297m-6.297 4.265h6.297m-6.297 4.265h6.297m-6.297 4.266h6.297m-17.312 5.28h17.312m5.957-42.207h11.894m-11.894 5.083h2.722m3.286 0h5.886m-11.894 5.083h11.894"/></svg>