<svg xmlns="http://www.w3.org/2000/svg" width="126" height="126" fill="none"><circle cx="63" cy="63" r="63" fill="#fff"/><path fill="#EB5C2B" d="M84.186 32.017H77.96V29.23c0-.9-.983-1.31-1.884-1.31h-4.833c-1.147-3.277-4.014-4.916-7.29-4.916a7.455 7.455 0 0 0-7.292 4.916H51.91c-.901 0-1.802.41-1.802 1.31v2.785H43.88A6.963 6.963 0 0 0 37 38.653v46.94c0 3.605 3.277 6.227 6.881 6.227h40.305c3.605 0 6.882-2.622 6.882-6.227v-46.94a6.963 6.963 0 0 0-6.882-6.636Zm-30.802-.82h4.506a1.803 1.803 0 0 0 1.556-1.474 4.751 4.751 0 0 1 4.506-3.687 4.67 4.67 0 0 1 4.424 3.687 1.802 1.802 0 0 0 1.638 1.474h4.67v6.554h-21.3v-6.554Zm34.407 54.396c0 1.802-1.802 2.949-3.605 2.949H43.881c-1.802 0-3.604-1.147-3.604-2.95v-46.94a3.686 3.686 0 0 1 3.604-3.358h6.226v4.178a1.72 1.72 0 0 0 1.803 1.556h24.166a1.801 1.801 0 0 0 1.884-1.556v-4.179h6.226a3.687 3.687 0 0 1 3.605 3.359v46.94Z"/><path fill="#EB5C2B" d="M57.726 59.622a1.638 1.638 0 0 0-2.293-.082l-5.243 4.997-2.212-2.294a1.638 1.638 0 0 0-2.294-.081 1.72 1.72 0 0 0 0 2.375l3.359 3.441a1.473 1.473 0 0 0 1.147.492 1.638 1.638 0 0 0 1.146-.492l6.39-6.062a1.556 1.556 0 0 0 0-2.294Zm23.512 3.523H62.396a1.638 1.638 0 1 0 0 3.276h18.842a1.638 1.638 0 1 0 0-3.276Zm-23.512-16.63a1.638 1.638 0 0 0-2.293-.082L50.19 51.43l-2.212-2.294a1.638 1.638 0 0 0-2.294-.082 1.72 1.72 0 0 0 0 2.376l3.359 3.44a1.474 1.474 0 0 0 1.147.492 1.638 1.638 0 0 0 1.146-.491l6.39-6.063a1.556 1.556 0 0 0 0-2.293Zm23.512 3.522H62.396a1.638 1.638 0 0 0 0 3.277h18.842a1.638 1.638 0 1 0 0-3.277ZM57.726 72.73a1.638 1.638 0 0 0-2.293-.082l-5.243 4.997-2.212-2.293a1.638 1.638 0 0 0-2.294-.082 1.72 1.72 0 0 0 0 2.375l3.359 3.441a1.474 1.474 0 0 0 1.147.492 1.638 1.638 0 0 0 1.146-.492l6.39-6.062a1.556 1.556 0 0 0 0-2.294Zm23.512 3.523H62.396a1.638 1.638 0 1 0 0 3.277h18.842a1.638 1.638 0 1 0 0-3.277Z"/></svg>